<svg width="13" height="18" viewBox="0 0 13 18" fill="none" xmlns="http://www.w3.org/2000/svg">
<path fill-rule="evenodd" clip-rule="evenodd" d="M12.8333 16.4074C12.8333 16.9185 12.4342 17.3333 11.9405 17.3333C11.4467 17.3333 11.0476 16.9185 11.0476 16.4074C11.0476 13.8546 9.04494 11.7778 6.58334 11.7778C4.12173 11.7778 2.11905 13.8546 2.11905 16.4074C2.11905 16.9185 1.71994 17.3333 1.22619 17.3333C0.732443 17.3333 0.333336 16.9185 0.333336 16.4074C0.333336 12.8333 3.1378 9.92594 6.58334 9.92594C10.0289 9.92594 12.8333 12.8333 12.8333 16.4074M6.58357 2.51831C7.56839 2.51831 8.36928 3.34887 8.36928 4.37016C8.36928 5.39146 7.56839 6.22201 6.58357 6.22201C5.59875 6.22201 4.79785 5.39146 4.79785 4.37016C4.79785 3.34887 5.59875 2.51831 6.58357 2.51831M6.58299 8.07391C8.55263 8.07391 10.1544 6.4128 10.1544 4.37021C10.1544 2.32762 8.55263 0.666504 6.58299 0.666504C4.61334 0.666504 3.01156 2.32762 3.01156 4.37021C3.01156 6.4128 4.61334 8.07391 6.58299 8.07391" fill="#3E4767"/>
</svg>
