<svg width="22" height="26" viewBox="0 0 22 26" fill="none" xmlns="http://www.w3.org/2000/svg">
<path fill-rule="evenodd" clip-rule="evenodd" d="M5.07432 6.4375H3.4137C2.86049 6.43752 2.32784 6.64714 1.92299 7.02416C1.51815 7.40117 1.27118 7.91757 1.23182 8.46937L0.160572 23.4694C0.139203 23.769 0.179766 24.0698 0.279734 24.353C0.379702 24.6363 0.536933 24.8959 0.741629 25.1157C0.946325 25.3356 1.1941 25.5109 1.46951 25.6307C1.74493 25.7506 2.04208 25.8125 2.34245 25.8125H19.6575C19.9578 25.8123 20.2548 25.7503 20.5302 25.6304C20.8055 25.5104 21.0532 25.3351 21.2578 25.1153C21.4625 24.8955 21.6197 24.636 21.7198 24.3528C21.8198 24.0697 21.8605 23.7689 21.8393 23.4694L20.7681 8.46937C20.7287 7.91757 20.4818 7.40117 20.0769 7.02416C19.6721 6.64714 19.1394 6.43752 18.5862 6.4375H16.9375V6.125C16.9375 4.55028 16.3119 3.04005 15.1984 1.92655C14.0849 0.813056 12.5747 0.1875 11 0.1875C7.84057 0.1875 4.92057 2.70375 5.06245 6.125L5.07432 6.4375ZM16.9375 8.3125V8C16.9375 8.24864 16.8387 8.4871 16.6629 8.66291C16.487 8.83873 16.2486 8.9375 16 8.9375C15.7513 8.9375 15.5129 8.83873 15.337 8.66291C15.1612 8.4871 15.0625 8.24864 15.0625 8V8.3125H6.93745V8C6.93745 8.24864 6.83868 8.4871 6.66286 8.66291C6.48705 8.83873 6.24859 8.9375 5.99995 8.9375C5.75131 8.9375 5.51285 8.83873 5.33704 8.66291C5.16122 8.4871 5.06245 8.24864 5.06245 8L5.07432 8.3125H3.4137C3.33479 8.31261 3.25884 8.34257 3.20111 8.39636C3.14338 8.45015 3.10813 8.5238 3.10245 8.6025L2.03057 23.6025C2.02748 23.6453 2.03325 23.6884 2.04753 23.7289C2.0618 23.7694 2.08427 23.8065 2.11354 23.8379C2.1428 23.8694 2.17823 23.8944 2.21762 23.9116C2.257 23.9287 2.2995 23.9375 2.34245 23.9375H19.6575C19.7003 23.9373 19.7428 23.9284 19.7821 23.9112C19.8214 23.894 19.8567 23.8689 19.8859 23.8375C19.9152 23.8061 19.9376 23.7691 19.952 23.7287C19.9663 23.6882 19.9722 23.6453 19.9693 23.6025L18.8975 8.6025C18.8918 8.5238 18.8565 8.45015 18.7988 8.39636C18.7411 8.34257 18.6651 8.31261 18.5862 8.3125H16.9375ZM15.0625 6.4375V6.125C15.0625 5.04756 14.6344 4.01425 13.8726 3.25238C13.1107 2.49051 12.0774 2.0625 11 2.0625C9.92251 2.0625 8.8892 2.49051 8.12733 3.25238C7.36546 4.01425 6.93745 5.04756 6.93745 6.125V6.4375H15.0625Z" fill="#B67879"/>
</svg>
