<svg width="16" height="17" viewBox="0 0 16 17" fill="none" xmlns="http://www.w3.org/2000/svg">
<path d="M15.6756 4.42875C15.5769 2.78656 14.2056 1.5 12.5541 1.5H11.75V0.875C11.75 0.70924 11.6841 0.550268 11.5669 0.433058C11.4497 0.315848 11.2908 0.25 11.125 0.25C10.9592 0.25 10.8003 0.315848 10.683 0.433058C10.5658 0.550268 10.5 0.70924 10.5 0.875V1.5H5.49999V0.875C5.49999 0.70924 5.43414 0.550268 5.31693 0.433058C5.19972 0.315848 5.04075 0.25 4.87499 0.25C4.70923 0.25 4.55026 0.315848 4.43305 0.433058C4.31584 0.550268 4.24999 0.70924 4.24999 0.875V1.5H3.44593C1.79405 1.5 0.422803 2.78656 0.324365 4.42875C0.139053 7.5175 0.14249 10.6506 0.334678 13.7409C0.432178 15.3103 1.68936 16.5675 3.25874 16.665C4.83155 16.7628 6.41562 16.8116 7.99968 16.8116C9.58343 16.8116 11.1678 16.7628 12.7406 16.665C14.31 16.5675 15.5672 15.3103 15.6647 13.7409C15.8572 10.6522 15.8606 7.51937 15.6756 4.42875ZM14.4175 13.6634C14.3885 14.1191 14.1944 14.5487 13.8715 14.8716C13.5487 15.1944 13.1191 15.3885 12.6634 15.4175C9.56905 15.6097 6.43093 15.6097 3.33655 15.4175C2.88084 15.3885 2.45132 15.1944 2.12844 14.8716C1.80555 14.5487 1.61145 14.1191 1.58249 13.6634C1.436 11.2785 1.40294 8.88803 1.48343 6.5H14.5169C14.5956 8.8875 14.5653 11.2884 14.4175 13.6634ZM4.87499 4C5.04075 4 5.19972 3.93415 5.31693 3.81694C5.43414 3.69973 5.49999 3.54076 5.49999 3.375V2.75H10.5V3.375C10.5 3.54076 10.5658 3.69973 10.683 3.81694C10.8003 3.93415 10.9592 4 11.125 4C11.2908 4 11.4497 3.93415 11.5669 3.81694C11.6841 3.69973 11.75 3.54076 11.75 3.375V2.75H12.5541C13.5456 2.75 14.3687 3.52031 14.4278 4.50344C14.4425 4.75156 14.4487 5.00125 14.4609 5.25H1.53905C1.55155 5.00125 1.55749 4.75156 1.57218 4.50344C1.63124 3.52031 2.45405 2.75 3.44593 2.75H4.24999V3.375C4.24999 3.54076 4.31584 3.69973 4.43305 3.81694C4.55026 3.93415 4.70923 4 4.87499 4Z" fill="#3E4767"/>
</svg>
