<svg width="42" height="8" viewBox="0 0 42 8" fill="none" xmlns="http://www.w3.org/2000/svg">
<path d="M36.9622 4.08892C36.9622 4.08892 36.9496 4.13938 36.9306 4.16461C36.8865 4.23399 36.8108 4.27182 36.7351 4.30967C35.9972 4.68808 35.4296 4.94036 34.9566 5.62781C34.534 6.3468 34.6854 7.40637 35.5557 7.70279C36.6405 8.0749 37.6622 7.41898 38.5074 6.81982C39.4345 6.1639 40.2859 5.40707 41.0427 4.55564C41.213 4.36643 41.3896 4.17091 41.3139 3.89971C41.2635 3.72943 41.15 3.59068 41.0301 3.45823C40.2102 2.53111 39.3273 1.57877 38.2109 0.998531C37.4415 0.601195 35.2404 -0.0925675 35.2341 1.42109C35.2341 2.20315 36.3252 3.12397 36.7982 3.71682C36.8739 3.81142 36.9874 3.96279 36.9622 4.09523L36.9622 4.08892Z" fill="#FF5A65"/>
<path d="M35.2323 5.79809C35.4215 5.11694 35.9891 4.61869 36.4937 4.18352C36.4811 4.18352 36.4685 4.18982 36.4495 4.18982L12.4279 4.18983C12.4279 4.18983 12.4342 4.20244 12.4342 4.21505C12.4342 4.24658 12.4342 4.27812 12.4153 4.30965C11.9044 5.48905 11.0025 6.47924 9.87356 7.09101C9.05997 7.53249 7.09852 8.447 6.47413 7.45681L6.43629 7.39374C6.29123 7.13515 6.27231 6.86396 6.36692 6.59907C6.66334 5.76656 8.10763 5.18001 8.80139 4.8962L8.95906 4.83313C9.47623 4.61869 10.0249 4.43579 10.5926 4.28443C10.6556 4.27181 10.8322 4.24028 11.053 4.20875C11.0908 4.20875 11.1286 4.19613 11.1728 4.18983L6.6192 4.18983C6.6192 4.18983 6.6255 4.20244 6.6255 4.21505C6.6255 4.24658 6.6255 4.27812 6.60658 4.30965C6.09572 5.48905 5.19383 6.47924 4.06489 7.09101C3.2513 7.53249 1.28985 8.447 0.665462 7.45681L0.627622 7.39374C0.482563 7.13516 0.463642 6.86396 0.558245 6.59907C0.854671 5.76656 2.29896 5.18001 2.99272 4.8962L3.15039 4.83313C3.66756 4.61869 4.21626 4.43579 4.78388 4.28443C4.84695 4.27181 5.02354 4.24028 5.24428 4.20875C5.28213 4.20875 5.31997 4.19613 5.36412 4.18983L1.90793 4.18983C1.77548 4.18983 1.66826 4.08261 1.66826 3.95016C1.66826 3.81771 1.77548 3.7105 1.90793 3.7105L5.37042 3.7105C5.32627 3.70419 5.28213 3.69789 5.2506 3.69158C5.02985 3.66004 4.85326 3.63481 4.7965 3.61589C4.23518 3.47083 3.68647 3.28793 3.163 3.06719L3.00532 3.00412C2.31156 2.72031 0.867277 2.14007 0.570852 1.30125C0.476248 1.03636 0.501476 0.765165 0.640229 0.506581L0.678078 0.443513C1.30246 -0.546674 3.26392 0.367831 4.07751 0.809315C5.20645 1.42109 6.11464 2.41127 6.6192 3.59067C6.6192 3.59067 6.63812 3.65374 6.63812 3.68527C6.63812 3.69158 6.63811 3.69788 6.63181 3.7105L11.1791 3.7105C11.135 3.70419 11.0971 3.69789 11.0593 3.69158C10.8385 3.66004 10.6619 3.63481 10.6052 3.61589C10.0439 3.47083 9.49515 3.28793 8.97168 3.06719L8.814 3.00412C8.12024 2.72031 6.67596 2.14007 6.37953 1.30125C6.28493 1.03636 6.31016 0.765164 6.44891 0.506581L6.48675 0.443512C7.11113 -0.546675 9.07259 0.36783 9.88618 0.809315C11.0151 1.42109 11.9233 2.41127 12.4279 3.59067C12.4405 3.6222 12.4468 3.65374 12.4468 3.68527C12.4468 3.69158 12.4468 3.69788 12.4405 3.7105L36.4054 3.7105C36.109 3.37623 35.8378 2.9852 35.6612 2.48695C35.5792 2.24729 35.4783 1.8878 35.5855 1.5283C35.7432 1.01113 36.1784 0.702097 36.7397 0.721017C37.2442 0.733631 37.6668 1.02375 38.0389 1.27602L38.2407 1.40847C39.4075 2.17161 40.3535 2.90321 41.1356 3.63481C41.1861 3.67896 41.2113 3.74203 41.2113 3.8051C41.2113 3.86186 41.1924 3.91862 41.1482 3.96908C41.123 3.99431 41.0977 4.01323 41.0662 4.02584C40.9653 4.10783 40.65 4.41687 40.5427 4.53039L40.4355 4.63762C40.0697 4.97819 39.7102 5.32507 39.3634 5.67195C38.7642 6.27111 38.1146 6.88288 37.3073 7.22345C36.6766 7.49465 35.9702 7.43158 35.5477 7.06578C35.2071 6.76935 35.0999 6.31525 35.2449 5.79809L35.2323 5.79809ZM11.1223 4.68176C10.9268 4.7133 10.7691 4.73222 10.7124 4.74483C10.17 4.88359 9.64652 5.06018 9.14197 5.26831L8.97798 5.33769C8.39774 5.57104 7.03546 6.12605 6.80841 6.75674C6.78949 6.81351 6.77687 6.86396 6.77687 6.92072C6.77687 7.00271 6.8021 7.0847 6.84625 7.16669L6.63812 7.28021L6.87147 7.20453C7.18682 7.70278 8.49236 7.29914 9.64652 6.67475C10.5358 6.19542 11.2674 5.45751 11.7593 4.58085C11.5954 4.60608 11.3872 4.63762 11.1223 4.68176ZM5.31366 4.68176C5.11815 4.7133 4.96048 4.73222 4.90371 4.74483C4.36132 4.88359 3.83153 5.06018 3.33329 5.26831L3.16931 5.33769C2.58907 5.57104 1.22678 6.12605 0.999728 6.75674C0.980807 6.81351 0.968192 6.86396 0.968192 6.92072C0.968192 7.00271 0.99342 7.0847 1.03757 7.16669L0.829438 7.28021L1.0628 7.20453C1.37815 7.70278 2.68368 7.29914 3.83784 6.67475C4.72712 6.19542 5.45873 5.45751 5.95067 4.58085C5.78669 4.60608 5.57855 4.63762 5.31366 4.68176ZM3.84415 1.23819C2.68998 0.613801 1.38445 0.210155 1.07541 0.708402L1.05018 0.746242C1.00604 0.828232 0.980808 0.910227 0.980808 0.992217C0.980808 1.04267 0.993424 1.09943 1.01234 1.15619C1.23939 1.79319 2.60169 2.34189 3.18193 2.57525L3.3459 2.64463C3.84415 2.85276 4.37394 3.02935 4.91633 3.1681C4.96679 3.18072 5.13076 3.20594 5.32628 3.23117C5.59117 3.26901 5.79929 3.30055 5.96327 3.33208C5.47764 2.44911 4.73974 1.71751 3.85046 1.23819L3.84415 1.23819ZM9.65283 1.23819C8.49866 0.6138 7.19312 0.210155 6.87777 0.708402L6.85255 0.746242C6.77687 0.884994 6.76426 1.01744 6.81471 1.15619C7.04176 1.79319 8.40406 2.34189 8.98429 2.57525L9.14827 2.64463C9.64652 2.85276 10.1763 3.02935 10.7187 3.1681C10.7692 3.18072 10.9331 3.20594 11.1286 3.23117C11.3935 3.26901 11.6017 3.30055 11.7656 3.33208C11.28 2.44911 10.5421 1.71751 9.65283 1.23819ZM37.1055 6.79458C37.8371 6.48554 38.4488 5.9053 39.0165 5.34399C39.3634 4.99711 39.7291 4.64392 40.1013 4.30335L40.1959 4.20874C40.3661 4.03846 40.4986 3.90601 40.6058 3.81141C39.8868 3.15549 39.0228 2.50587 37.9758 1.81842L37.7677 1.67967C37.4334 1.45262 37.0866 1.21295 36.7207 1.20665C36.3802 1.19403 36.1279 1.37063 36.0333 1.67967C36.0144 1.74274 36.0081 1.8058 36.0081 1.87518C36.0081 2.00763 36.0396 2.1653 36.1027 2.3482C36.3297 3.01043 36.7586 3.46452 37.1938 3.85555C37.2442 3.8997 37.2694 3.96277 37.2694 4.02584C37.2442 4.06999 37.2442 4.15198 37.1938 4.20244C37.0739 4.31596 36.9478 4.42318 36.8153 4.5367C36.336 4.95296 35.8378 5.38183 35.6864 5.93053C35.6233 6.17019 35.5981 6.49815 35.8441 6.7189C36.1216 6.96487 36.6387 6.9964 37.1055 6.80089L37.1055 6.79458Z" fill="#B67879"/>
</svg>
