<svg width="365" height="366" viewBox="0 0 365 366" fill="none" xmlns="http://www.w3.org/2000/svg">
<path opacity="0.05" fill-rule="evenodd" clip-rule="evenodd" d="M182.5 365.133H165.778C165.27 365.137 164.76 365.14 164.251 365.14H147.196C146.798 365.143 146.399 365.145 146.001 365.145H2.2177H0.000546471V365.14V365.134V365.133H0V363.393V182.633C0 81.8409 81.708 0.132812 182.5 0.132812C283.292 0.132812 365 81.8409 365 182.633C365 283.425 283.292 365.133 182.5 365.133ZM2.2177 274.214V273.884C2.2177 224.712 42.0791 184.851 91.2505 184.851C140.422 184.851 180.283 224.712 180.283 273.884C180.283 322.567 141.209 362.124 92.7118 362.905H90.9959C122.61 354.89 146.001 326.246 146.001 292.14C146.001 251.823 113.317 219.14 73.0005 219.14C38.8688 219.14 10.2081 242.564 2.2177 274.214ZM2.2177 292.14V362.905H74.5966C112.952 362.056 143.783 330.699 143.783 292.14C143.783 253.047 112.093 221.357 73.0005 221.357C33.9083 221.357 2.2177 253.047 2.2177 292.14ZM216.783 255.627C216.783 314.229 169.796 361.858 111.441 362.892C152.121 353.704 182.501 317.342 182.501 273.884C182.501 223.488 141.647 182.634 91.2505 182.634C47.7806 182.634 11.4101 213.03 2.23417 253.728C3.24747 195.353 50.8842 148.344 109.501 148.344C168.751 148.344 216.783 196.376 216.783 255.627ZM2.43308 192.462C6.81746 106.891 77.5889 38.8569 164.251 38.8569C253.739 38.8569 326.283 111.402 326.283 200.89C326.283 287.537 258.272 358.299 172.721 362.705C240.594 350.152 292.001 290.652 292.001 219.145C292.001 138.511 226.634 73.1446 146.001 73.1446C74.4802 73.1446 14.9709 124.571 2.43308 192.462ZM2.28323 233.277C4.44441 165.843 59.7909 111.839 127.751 111.839C197.08 111.839 253.283 168.042 253.283 237.372C253.283 305.321 199.298 360.66 131.878 362.838C181.621 352.509 219.001 308.433 219.001 255.627C219.001 195.152 169.976 146.127 109.501 146.127C56.6844 146.127 12.6019 183.52 2.28323 233.277ZM146.001 75.3617C68.7034 75.3617 5.65241 136.357 2.35337 212.842C13.7928 154.023 65.5864 109.622 127.751 109.622C198.305 109.622 255.501 166.818 255.501 237.372C255.501 299.591 211.021 351.421 152.126 362.799C228.694 359.59 289.783 296.502 289.783 219.145C289.783 139.736 225.41 75.3617 146.001 75.3617ZM363.26 182.633C363.26 280.262 285.861 359.814 189.077 363.276C268.009 351.308 328.501 283.163 328.501 200.89C328.501 110.177 254.963 36.6398 164.251 36.6398C81.9536 36.6398 13.7932 97.1652 1.85438 176.131C5.2775 79.3112 84.8454 1.87243 182.5 1.87243C282.331 1.87243 363.26 82.8016 363.26 182.633Z" fill="url(#paint0_linear_1656_6916)"/>
<defs>
<linearGradient id="paint0_linear_1656_6916" x1="365.001" y1="-15.076" x2="-0.0121589" y2="365.133" gradientUnits="userSpaceOnUse">
<stop stop-color="white"/>
<stop offset="0.405571" stop-color="white"/>
<stop offset="1" stop-color="#3E3E3E"/>
</linearGradient>
</defs>
</svg>
