<svg width="24" height="24" viewBox="0 0 24 24" fill="none" xmlns="http://www.w3.org/2000/svg">
<path fill-rule="evenodd" clip-rule="evenodd" d="M5.16229 11.9999C5.16229 11.2378 5.28887 10.5071 5.51479 9.82177L1.56038 6.80203C0.789685 8.36683 0.355469 10.13 0.355469 11.9999C0.355469 13.8682 0.789151 15.6303 1.55878 17.194L5.51105 14.1684C5.28726 13.4863 5.16229 12.7583 5.16229 11.9999Z" fill="#FBBC05"/>
<path fill-rule="evenodd" clip-rule="evenodd" d="M12.1056 5.0666C13.7613 5.0666 15.2568 5.65327 16.4318 6.61327L19.85 3.19994C17.767 1.3866 15.0965 0.266602 12.1056 0.266602C7.46225 0.266602 3.47152 2.92207 1.56055 6.80207L5.51496 9.8218C6.42612 7.05594 9.0234 5.0666 12.1056 5.0666Z" fill="#EB4335"/>
<path fill-rule="evenodd" clip-rule="evenodd" d="M12.1056 18.9332C9.0234 18.9332 6.42612 16.9439 5.51496 14.178L1.56055 17.1972C3.47152 21.0778 7.46225 23.7332 12.1056 23.7332C14.9716 23.7332 17.7077 22.7156 19.7613 20.809L16.0077 17.9071C14.9486 18.5743 13.615 18.9332 12.1056 18.9332Z" fill="#34A853"/>
<path fill-rule="evenodd" clip-rule="evenodd" d="M23.3214 11.9999C23.3214 11.3066 23.2146 10.5599 23.0543 9.86658H12.1055V14.3999H18.4077C18.0926 15.9455 17.2349 17.1338 16.0075 17.9071L19.7611 20.809C21.9183 18.8068 23.3214 15.8244 23.3214 11.9999Z" fill="#4285F4"/>
</svg>
