<svg width="20" height="20" viewBox="0 0 20 20" fill="none" xmlns="http://www.w3.org/2000/svg">
<path d="M13.125 7.36328C16.3609 7.36328 18.9844 9.98672 18.9844 13.2227C18.9844 16.4586 16.3609 19.082 13.125 19.082C11.9762 19.082 10.9043 18.7512 9.99999 18.1797C10.5428 17.8371 11.0256 17.4076 11.4293 16.9086C11.9453 17.1465 12.5195 17.2793 13.125 17.2793C15.3652 17.2793 17.1816 15.4629 17.1816 13.2227C17.1816 10.2475 14.0913 8.30949 11.4293 9.53672C9.02738 10.6423 8.2921 13.7492 9.99999 15.809C9.61445 16.2746 9.12656 16.6527 8.5707 16.9086C6.83609 14.7698 6.82382 11.6906 8.5707 9.53672C9.64085 8.21328 11.2849 7.36328 13.125 7.36328Z" fill="#FCBE00"/>
<path d="M11.4293 9.53673C13.1639 11.6755 13.1761 14.7547 11.4293 16.9086C10.3591 18.232 8.71504 19.082 6.875 19.082C3.63906 19.082 1.01562 16.4586 1.01562 13.2227C1.01562 9.68673 4.12801 6.95396 7.6332 7.41212C8.47494 7.52063 9.28275 7.81194 10 8.26564C9.45722 8.60827 8.97437 9.03768 8.5707 9.53673C5.90934 8.30978 2.81836 10.247 2.81836 13.2227C2.81836 15.4629 4.63477 17.2793 6.875 17.2793C8.1175 17.2793 9.24746 16.7178 10 15.809C11.2425 14.3104 11.2431 12.1355 10 10.6363C10.3855 10.1707 10.8734 9.79259 11.4293 9.53673Z" fill="#FFD92E"/>
<path d="M9.41092 4.98125C9.41092 5.41016 9.25116 5.80313 8.9078 6.21719C8.58217 6.60993 8.05057 7.05895 7.63319 7.41211C7.12982 7.34698 6.62015 7.34698 6.11678 7.41211C5.69702 7.06231 5.15237 6.59133 4.84218 6.21719C4.49882 5.80313 4.33905 5.41016 4.33905 4.98125C4.33905 3.51207 6.03132 2.89872 6.87499 4.06875C7.14581 3.69469 7.5285 3.45704 7.99413 3.45704C8.80608 3.45704 9.41092 4.1225 9.41092 4.98125ZM18.8207 4.76485C19.1596 5.10372 18.9665 5.74805 18.2949 5.81133C18.0376 5.83536 17.7152 5.79461 17.2941 5.76602C17.2652 5.76419 17.2379 5.75188 17.2173 5.7314C17.1967 5.71091 17.1843 5.68365 17.1824 5.65469C17.1347 4.94895 17.0378 4.46645 17.3461 4.15821C17.7601 3.74278 18.4193 4.04161 18.3281 4.62032C18.5112 4.59145 18.6875 4.63168 18.8207 4.76485Z" fill="#EC6385"/>
<path d="M15.8836 3.51601C15.8809 3.55719 15.8633 3.59597 15.8341 3.62515C15.805 3.65432 15.7662 3.6719 15.725 3.67461C14.7338 3.74168 14.0384 3.88121 13.5984 3.44219C13.0032 2.84699 13.4412 1.9148 14.2555 2.04648C14.1238 1.23187 15.0564 0.794687 15.6512 1.38945C16.0888 1.82605 15.9516 2.51359 15.8836 3.51601Z" fill="#FF6E6A"/>
<path d="M9.47128 2.42324C9.45314 2.40511 9.43875 2.38358 9.42893 2.35989C9.41911 2.3362 9.41406 2.3108 9.41406 2.28516C9.41406 2.25951 9.41911 2.23411 9.42893 2.21042C9.43875 2.18673 9.45314 2.1652 9.47128 2.14707L10.2525 1.36582C10.2707 1.34768 10.2922 1.33329 10.3159 1.32347C10.3396 1.31366 10.365 1.3086 10.3906 1.3086C10.4163 1.3086 10.4417 1.31366 10.4653 1.32347C10.489 1.33329 10.5106 1.34768 10.5287 1.36582C10.5468 1.38395 10.5612 1.40548 10.571 1.42917C10.5809 1.45286 10.5859 1.47826 10.5859 1.50391C10.5859 1.52955 10.5809 1.55495 10.571 1.57864C10.5612 1.60233 10.5468 1.62386 10.5287 1.64199L9.74749 2.42324C9.72936 2.44139 9.70783 2.45579 9.68413 2.46561C9.66043 2.47544 9.63503 2.4805 9.60938 2.4805C9.58373 2.4805 9.55833 2.47544 9.53463 2.46561C9.51093 2.45579 9.4894 2.44139 9.47128 2.42324ZM11.5625 4.04297H10.7813C10.6734 4.04297 10.586 3.95555 10.586 3.84766C10.586 3.73977 10.6734 3.65234 10.7813 3.65234H11.5625C11.6704 3.65234 11.7578 3.73977 11.7578 3.84766C11.7578 3.95555 11.6704 4.04297 11.5625 4.04297ZM4.00252 2.42324L3.22127 1.64199C3.20276 1.62394 3.18802 1.60239 3.1779 1.5786C3.16778 1.5548 3.16248 1.52924 3.16232 1.50338C3.16216 1.47752 3.16713 1.45189 3.17695 1.42797C3.18678 1.40405 3.20125 1.38232 3.21953 1.36404C3.23782 1.34576 3.25955 1.33129 3.28347 1.32147C3.30739 1.31165 3.33302 1.30668 3.35888 1.30685C3.38474 1.30701 3.4103 1.31231 3.4341 1.32243C3.45789 1.33256 3.47944 1.34731 3.49749 1.36582L4.27874 2.14707C4.29688 2.1652 4.31126 2.18673 4.32108 2.21042C4.3309 2.23411 4.33595 2.25951 4.33595 2.28516C4.33595 2.3108 4.3309 2.3362 4.32108 2.35989C4.31126 2.38358 4.29688 2.40511 4.27874 2.42324C4.26061 2.44139 4.23908 2.45579 4.21538 2.46561C4.19168 2.47544 4.16628 2.4805 4.14063 2.4805C4.11498 2.4805 4.08958 2.47544 4.06588 2.46561C4.04218 2.45579 4.02065 2.44139 4.00252 2.42324ZM2.96877 4.04297H2.33557C2.28377 4.04297 2.23409 4.02239 2.19746 3.98576C2.16084 3.94914 2.14026 3.89946 2.14026 3.84766C2.14026 3.79586 2.16084 3.74618 2.19746 3.70955C2.23409 3.67292 2.28377 3.65234 2.33557 3.65234H2.96877C3.02057 3.65234 3.07025 3.67292 3.10688 3.70955C3.14351 3.74618 3.16409 3.79586 3.16409 3.84766C3.16409 3.89946 3.14351 3.94914 3.10688 3.98576C3.07025 4.02239 3.02057 4.04297 2.96877 4.04297ZM6.87502 2.08984C6.82322 2.08984 6.77355 2.06927 6.73692 2.03264C6.70029 1.99601 6.67971 1.94633 6.67971 1.89453V1.11328C6.67971 1.06148 6.70029 1.0118 6.73692 0.975174C6.77355 0.938546 6.82322 0.917969 6.87502 0.917969C6.92683 0.917969 6.9765 0.938546 7.01313 0.975174C7.04976 1.0118 7.07034 1.06148 7.07034 1.11328V1.89453C7.07034 1.94633 7.04976 1.99601 7.01313 2.03264C6.9765 2.06927 6.92683 2.08984 6.87502 2.08984Z" fill="#FCBE00"/>
</svg>
