<svg width="160" height="42" viewBox="0 0 160 42" fill="none" xmlns="http://www.w3.org/2000/svg">
<path d="M155.349 32.992C151.269 32.992 149.229 30.8705 149.229 26.6275C149.229 24.5386 149.702 22.9556 150.649 21.8786C151.596 20.8015 152.917 20.2629 154.615 20.2629C156.296 20.2629 157.609 20.7852 158.556 21.8296C159.519 22.874 160 24.3917 160 26.3827V26.9947L159.266 27.729H152.656C152.656 29.769 153.635 30.7889 155.594 30.7889C156.279 30.7889 156.907 30.6257 157.479 30.2993C157.707 30.1851 157.936 30.0219 158.164 29.8098H158.409L159.51 31.7681C159.053 32.0455 158.662 32.2495 158.335 32.3801C157.356 32.788 156.361 32.992 155.349 32.992ZM156.573 25.5259C156.573 24.5468 156.377 23.7961 155.985 23.2739C155.61 22.7353 155.153 22.4661 154.615 22.4661C154.076 22.4661 153.611 22.7353 153.219 23.2739C152.844 23.7961 152.656 24.5468 152.656 25.5259H156.573Z" fill="#205156"/>
<path d="M144.577 32.992C143.174 32.992 142.064 32.6084 141.248 31.8414C140.448 31.0744 140.049 30.0708 140.049 28.8305V22.7108H138.457V21.242L142.129 17.5702H143.476V20.5076H146.291V22.7108H143.476V28.8305C143.476 29.4833 143.598 29.9729 143.843 30.2993C144.088 30.6256 144.414 30.7888 144.822 30.7888C145.312 30.7888 145.793 30.6256 146.266 30.2993C146.478 30.1524 146.691 29.9892 146.903 29.8097H147.148L148.249 31.768C147.825 32.0454 147.458 32.2494 147.148 32.38C146.266 32.788 145.41 32.992 144.577 32.992Z" fill="#205156"/>
<path d="M130.378 32.992C128.942 32.992 127.824 32.6493 127.025 31.9639C126.242 31.2622 125.85 30.3401 125.85 29.1978C125.85 27.9738 126.29 27.0192 127.172 26.3337C128.069 25.632 129.465 25.2811 131.358 25.2811H133.071V24.914C133.071 24.049 132.883 23.4289 132.508 23.0536C132.133 22.6619 131.545 22.4661 130.746 22.4661C130.06 22.4661 129.432 22.6292 128.861 22.9556C128.632 23.0699 128.404 23.2331 128.175 23.4452H127.931L126.829 21.4869C127.221 21.2258 127.604 21.0218 127.98 20.8749C129.04 20.4669 130.044 20.2629 130.99 20.2629C132.133 20.2629 133.12 20.4669 133.952 20.8749C134.785 21.2666 135.413 21.8133 135.837 22.515C136.278 23.2167 136.498 24.0164 136.498 24.914V32.7473H134.05L133.806 31.2785H133.683C133.406 31.6375 133.128 31.9231 132.851 32.1353C132.165 32.7065 131.341 32.992 130.378 32.992ZM130.99 30.6665C131.496 30.6665 131.994 30.4217 132.484 29.9322C132.712 29.7037 132.908 29.4589 133.071 29.1978V27.4843H131.358C129.97 27.4843 129.277 28.0554 129.277 29.1978C129.277 29.6384 129.424 29.9974 129.718 30.2749C130.028 30.536 130.452 30.6665 130.99 30.6665Z" fill="#205156"/>
<path d="M105.652 15.6119H108.956L113.73 25.2811C113.893 25.6401 113.999 25.9094 114.048 26.0889L114.17 26.5051H114.268L114.391 26.0889C114.44 25.9094 114.546 25.6401 114.709 25.2811L119.482 15.6119H122.787V32.7472H119.36V22.5884C119.36 22.0825 119.376 21.7235 119.409 21.5113L119.482 20.9728H119.385C119.303 21.2502 119.246 21.4297 119.213 21.5113C119.017 22.0009 118.862 22.3599 118.748 22.5884L114.954 29.9321H113.24L109.691 22.8332C109.495 22.4252 109.34 22.0662 109.226 21.7561C109.193 21.6745 109.136 21.495 109.054 21.2176H108.956L109.005 21.7561C109.054 22.3926 109.079 22.7516 109.079 22.8332V32.7472H105.652V15.6119Z" fill="#205156"/>
<path d="M94.7615 37.8878C94.1087 37.8878 93.4722 37.7654 92.8521 37.5206C92.542 37.4227 92.2809 37.3003 92.0688 37.1534L92.9255 35.0727H93.1703C93.3335 35.2359 93.4641 35.342 93.562 35.3909C93.8721 35.5867 94.1903 35.6847 94.5167 35.6847C94.9083 35.6847 95.2674 35.5378 95.5938 35.244C95.9202 34.9503 96.1568 34.526 96.3037 33.9711L96.6464 32.7472H95.7162L91.6771 20.5077H94.8839L97.3318 28.4633C97.3971 28.7245 97.446 29.01 97.4786 29.3201L97.5276 29.8097H97.6255L97.6745 29.3201C97.7071 29.01 97.7561 28.7245 97.8214 28.4633L99.9021 20.5077H103.329L99.2901 33.9711C98.4741 36.5822 96.9646 37.8878 94.7615 37.8878Z" fill="#205156"/>
<path d="M83.2678 20.5077H85.7157L85.9605 21.9765H86.0829C86.2461 21.7317 86.5235 21.4461 86.9152 21.1197C87.6822 20.5485 88.5063 20.2629 89.3876 20.2629C89.8119 20.2629 90.228 20.3037 90.636 20.3853C90.8971 20.4506 91.0929 20.4914 91.2235 20.5077L90.7339 22.9556H90.4891C90.3422 22.9393 90.1627 22.8985 89.9506 22.8332C89.5915 22.7516 89.1999 22.7108 88.7756 22.7108C88.237 22.7108 87.723 22.9556 87.2334 23.4452C87.0702 23.641 86.8907 23.8858 86.6949 24.1796V32.7473H83.2678V20.5077Z" fill="#205156"/>
<path d="M73.61 20.5077H76.058L76.3027 21.9765H76.4251C76.5883 21.7317 76.8658 21.4461 77.2574 21.1197C78.0244 20.5485 78.8486 20.2629 79.7298 20.2629C80.1541 20.2629 80.5703 20.3037 80.9782 20.3853C81.2394 20.4506 81.4352 20.4914 81.5657 20.5077L81.0762 22.9556H80.8314C80.6845 22.9393 80.505 22.8985 80.2928 22.8332C79.9338 22.7516 79.5421 22.7108 79.1178 22.7108C78.5793 22.7108 78.0652 22.9556 77.5757 23.4452C77.4125 23.641 77.2329 23.8858 77.0371 24.1796V32.7473H73.61V20.5077Z" fill="#205156"/>
<path d="M64.1847 32.992C62.7486 32.992 61.6307 32.6493 60.831 31.9639C60.0477 31.2622 59.656 30.3401 59.656 29.1978C59.656 27.9738 60.0967 27.0192 60.9779 26.3337C61.8755 25.632 63.2708 25.2811 65.1638 25.2811H66.8774V24.914C66.8774 24.049 66.6897 23.4289 66.3143 23.0536C65.939 22.6619 65.3515 22.4661 64.5518 22.4661C63.8664 22.4661 63.2381 22.6292 62.667 22.9556C62.4385 23.0699 62.21 23.2331 61.9815 23.4452H61.7368L60.6352 21.4869C61.0269 21.2258 61.4104 21.0218 61.7857 20.8749C62.8465 20.4669 63.8501 20.2629 64.7966 20.2629C65.939 20.2629 66.9263 20.4669 67.7586 20.8749C68.5909 21.2666 69.2192 21.8133 69.6435 22.515C70.0841 23.2167 70.3044 24.0164 70.3044 24.914V32.7473H67.8565L67.6117 31.2785H67.4893C67.2119 31.6375 66.9345 31.9231 66.657 32.1353C65.9716 32.7065 65.1475 32.992 64.1847 32.992ZM64.7966 30.6665C65.3025 30.6665 65.8003 30.4217 66.2899 29.9322C66.5183 29.7037 66.7142 29.4589 66.8774 29.1978V27.4843H65.1638C63.7767 27.4843 63.0831 28.0554 63.0831 29.1978C63.0831 29.6384 63.23 29.9974 63.5237 30.2749C63.8338 30.536 64.2581 30.6665 64.7966 30.6665Z" fill="#205156"/>
<path d="M39.458 15.6119H42.7626L47.536 25.2811C47.6992 25.6401 47.8053 25.9094 47.8543 26.0889L47.9767 26.5051H48.0746L48.197 26.0889C48.2459 25.9094 48.352 25.6401 48.5152 25.2811L53.2886 15.6119H56.5933V32.7472H53.1662V22.5884C53.1662 22.0825 53.1825 21.7235 53.2152 21.5113L53.2886 20.9728H53.1907C53.1091 21.2502 53.052 21.4297 53.0194 21.5113C52.8235 22.0009 52.6685 22.3599 52.5542 22.5884L48.76 29.9321H47.0465L43.497 22.8332C43.3012 22.4252 43.1461 22.0662 43.0319 21.7561C42.9993 21.6745 42.9421 21.495 42.8605 21.2176H42.7626L42.8116 21.7561C42.8605 22.3926 42.885 22.7516 42.885 22.8332V32.7472H39.458V15.6119Z" fill="#205156"/>
<path fill-rule="evenodd" clip-rule="evenodd" d="M2.59373 28.18L16.0732 41.6595L29.5527 28.18C31.2133 26.519 32.1461 24.2665 32.1461 21.9178C32.1461 19.5691 31.2133 17.3165 29.5527 15.6555V15.655C27.8917 13.9943 25.639 13.0613 23.2902 13.0613C20.9414 13.0613 18.6887 13.9943 17.0277 15.655L16.0732 16.6095L15.1187 15.655C13.4577 13.9944 11.2052 13.0616 8.85647 13.0616C6.50776 13.0616 4.25522 13.9944 2.59423 15.655C0.93349 17.316 1.52588e-05 19.5687 1.52588e-05 21.9175C1.52588e-05 24.2663 0.932988 26.519 2.59373 28.18ZM16.0732 38.8181L4.01442 26.7593C2.73042 25.4752 2.00909 23.7337 2.00909 21.9178C2.00909 20.1019 2.73042 18.3603 4.01442 17.0762V17.0757C4.65025 16.4399 5.40509 15.9355 6.23585 15.5914C7.06661 15.2473 7.95701 15.0701 8.85622 15.0701C9.75543 15.0701 10.6458 15.2473 11.4766 15.5914C12.3073 15.9355 13.0622 16.4399 13.698 17.0757L16.0732 19.4509L18.4484 17.0757C19.0842 16.4399 19.8391 15.9355 20.6698 15.5914C21.5006 15.2473 22.391 15.0702 23.2902 15.0702C24.1894 15.0702 25.0798 15.2473 25.9105 15.5914C26.7413 15.9355 27.4961 16.4399 28.132 17.0757C28.7678 17.7115 29.2722 18.4664 29.6163 19.2972C29.9604 20.1279 30.1375 21.0183 30.1375 21.9175C30.1375 22.8167 29.9604 23.7071 29.6163 24.5379C29.2722 25.3686 28.7678 26.1235 28.132 26.7593L16.0732 38.8181Z" fill="#B67879"/>
<path d="M14.8283 11.8625C15.0785 11.6123 15.0785 11.2067 14.8283 10.9565L12.1673 8.2966L13.475 6.32776H18.7845L20.0922 8.2966L17.4204 10.9673C17.1703 11.2173 17.1702 11.6227 17.4201 11.8729L18.15 12.6036C18.4001 12.8539 18.8057 12.854 19.0559 12.604L23.0686 8.5939L20.0251 4.01419H12.2344L9.1908 8.5939L13.1923 12.5927C13.4424 12.8427 13.8477 12.8426 14.0978 12.5926L14.8283 11.8625Z" fill="#B67879"/>
<path d="M8.12604 1L9.30833 1.67865M5.29745 6.36899H6.66269M6.74453 11.738L7.92683 11.0593M25.4521 11.7381L24.2698 11.0594M26.8992 6.36907H25.5339M23.8822 1L22.6999 1.67865" stroke="#B67879" stroke-width="1.28096" stroke-miterlimit="10" stroke-linecap="round" stroke-linejoin="round"/>
</svg>
