<svg width="173" height="45" viewBox="0 0 173 45" fill="none" xmlns="http://www.w3.org/2000/svg">
<path d="M167.971 35.6207C163.56 35.6207 161.354 33.3249 161.354 28.7332C161.354 26.4727 161.866 24.7596 162.889 23.5941C163.913 22.4285 165.342 21.8457 167.177 21.8457C168.995 21.8457 170.415 22.4108 171.438 23.5411C172.479 24.6713 173 26.3138 173 28.4683V29.1306L172.206 29.9253H165.06C165.06 32.1328 166.118 33.2366 168.236 33.2366C168.977 33.2366 169.656 33.06 170.274 32.7068C170.521 32.5832 170.768 32.4065 171.015 32.177H171.28L172.471 34.2962C171.977 34.5964 171.553 34.8172 171.2 34.9585C170.141 35.4 169.065 35.6207 167.971 35.6207ZM169.295 27.5411C169.295 26.4815 169.083 25.6692 168.659 25.104C168.253 24.5212 167.759 24.2298 167.177 24.2298C166.595 24.2298 166.092 24.5212 165.668 25.104C165.263 25.6692 165.06 26.4815 165.06 27.5411H169.295Z" fill="white"/>
<path d="M156.324 35.6196C154.807 35.6196 153.607 35.2046 152.724 34.3746C151.86 33.5445 151.428 32.4584 151.428 31.1163V24.4936H149.707V22.9042L153.677 18.9307H155.133V22.1095H158.177V24.4936H155.133V31.1163C155.133 31.8227 155.265 32.3525 155.53 32.7057C155.795 33.0589 156.148 33.2355 156.589 33.2355C157.118 33.2355 157.639 33.0589 158.15 32.7057C158.38 32.5467 158.609 32.3701 158.839 32.1759H159.103L160.294 34.2951C159.836 34.5953 159.439 34.8161 159.103 34.9574C158.15 35.3989 157.224 35.6196 156.324 35.6196Z" fill="white"/>
<path d="M140.972 35.6207C139.419 35.6207 138.21 35.2499 137.346 34.5081C136.499 33.7487 136.075 32.7509 136.075 31.5147C136.075 30.1902 136.552 29.1571 137.504 28.4153C138.475 27.6559 139.984 27.2762 142.03 27.2762H143.883V26.8789C143.883 25.9429 143.68 25.2718 143.274 24.8656C142.869 24.4418 142.233 24.2298 141.369 24.2298C140.628 24.2298 139.948 24.4064 139.331 24.7596C139.084 24.8833 138.837 25.0599 138.59 25.2895H138.325L137.134 23.1702C137.557 22.8877 137.972 22.6669 138.378 22.508C139.525 22.0665 140.61 21.8457 141.633 21.8457C142.869 21.8457 143.936 22.0665 144.836 22.508C145.736 22.9318 146.415 23.5234 146.874 24.2828C147.351 25.0422 147.589 25.9076 147.589 26.8789V35.3558H144.942L144.677 33.7664H144.545C144.245 34.1549 143.945 34.464 143.645 34.6936C142.904 35.3117 142.013 35.6207 140.972 35.6207ZM141.633 33.1041C142.18 33.1041 142.719 32.8392 143.248 32.3094C143.495 32.0622 143.707 31.7973 143.883 31.5147V29.6604H142.03C140.531 29.6604 139.781 30.2785 139.781 31.5147C139.781 31.9915 139.94 32.3801 140.257 32.6803C140.592 32.9628 141.051 33.1041 141.633 33.1041Z" fill="white"/>
<path d="M114.236 16.8115H117.809L122.97 27.2752C123.147 27.6638 123.262 27.9552 123.314 28.1494L123.447 28.5998H123.553L123.685 28.1494C123.738 27.9552 123.853 27.6638 124.029 27.2752L129.19 16.8115H132.764V35.3548H129.058V24.3613C129.058 23.8138 129.076 23.4253 129.111 23.1957L129.19 22.6129H129.084C128.996 22.9131 128.935 23.1074 128.899 23.1957C128.687 23.7255 128.52 24.114 128.396 24.3613L124.294 32.3084H122.441L118.603 24.6262C118.391 24.1847 118.224 23.7962 118.1 23.4606C118.065 23.3723 118.003 23.1781 117.915 22.8778H117.809L117.862 23.4606C117.915 24.1494 117.941 24.5379 117.941 24.6262V35.3548H114.236V16.8115Z" fill="white"/>
<path d="M102.461 40.9185C101.755 40.9185 101.067 40.7861 100.396 40.5212C100.061 40.4152 99.7787 40.2828 99.5493 40.1238L100.476 37.8721H100.74C100.917 38.0488 101.058 38.1635 101.164 38.2165C101.499 38.4284 101.843 38.5344 102.196 38.5344C102.62 38.5344 103.008 38.3755 103.361 38.0576C103.714 37.7397 103.969 37.2805 104.128 36.6801L104.499 35.3556H103.493L99.1259 22.1104H102.593L105.24 30.7197C105.311 31.0023 105.363 31.3114 105.399 31.6469L105.452 32.1767H105.558L105.611 31.6469C105.646 31.3114 105.699 31.0023 105.769 30.7197L108.019 22.1104H111.725L107.357 36.6801C106.475 39.5057 104.843 40.9185 102.461 40.9185Z" fill="white"/>
<path d="M90.0333 22.1106H92.6801L92.9448 23.7H93.0771C93.2536 23.4351 93.5536 23.1261 93.9771 22.7729C94.8064 22.1548 95.6975 21.8457 96.6503 21.8457C97.1091 21.8457 97.559 21.8899 98.0002 21.9782C98.2825 22.0488 98.4943 22.0929 98.6354 22.1106L98.1061 24.7596H97.8414C97.6826 24.742 97.4885 24.6978 97.2591 24.6272C96.8709 24.5389 96.4474 24.4947 95.9886 24.4947C95.4063 24.4947 94.8505 24.7596 94.3211 25.2895C94.1447 25.5014 93.9506 25.7663 93.7388 26.0842V35.3558H90.0333V22.1106Z" fill="white"/>
<path d="M79.5908 22.1106H82.2376L82.5023 23.7H82.6346C82.8111 23.4351 83.1111 23.1261 83.5345 22.7729C84.3639 22.1548 85.255 21.8457 86.2078 21.8457C86.6666 21.8457 87.1165 21.8899 87.5577 21.9782C87.84 22.0488 88.0517 22.0929 88.1929 22.1106L87.6635 24.7596H87.3989C87.2401 24.742 87.046 24.6978 86.8166 24.6272C86.4284 24.5389 86.0049 24.4947 85.5461 24.4947C84.9638 24.4947 84.408 24.7596 83.8786 25.2895C83.7022 25.5014 83.5081 25.7663 83.2963 26.0842V35.3558H79.5908V22.1106Z" fill="white"/>
<path d="M69.3997 35.6207C67.847 35.6207 66.6383 35.2499 65.7736 34.5081C64.9267 33.7487 64.5032 32.7509 64.5032 31.5147C64.5032 30.1902 64.9796 29.1571 65.9324 28.4153C66.9029 27.6559 68.4116 27.2762 70.4585 27.2762H72.3112V26.8789C72.3112 25.9429 72.1083 25.2718 71.7025 24.8656C71.2966 24.4418 70.6614 24.2298 69.7968 24.2298C69.0557 24.2298 68.3763 24.4064 67.7587 24.7596C67.5117 24.8833 67.2647 25.0599 67.0176 25.2895H66.753L65.5619 23.1702C65.9854 22.8877 66.4 22.6669 66.8059 22.508C67.9528 22.0665 69.038 21.8457 70.0614 21.8457C71.2966 21.8457 72.3642 22.0665 73.2641 22.508C74.164 22.9318 74.8433 23.5234 75.3021 24.2828C75.7785 25.0422 76.0167 25.9076 76.0167 26.8789V35.3558H73.3699L73.1053 33.7664H72.9729C72.673 34.1549 72.373 34.464 72.073 34.6936C71.3319 35.3117 70.4408 35.6207 69.3997 35.6207ZM70.0614 33.1041C70.6085 33.1041 71.1466 32.8392 71.676 32.3094C71.923 32.0622 72.1348 31.7973 72.3112 31.5147V29.6604H70.4585C68.9586 29.6604 68.2087 30.2785 68.2087 31.5147C68.2087 31.9915 68.3675 32.3801 68.6851 32.6803C69.0204 32.9628 69.4792 33.1041 70.0614 33.1041Z" fill="white"/>
<path d="M42.6639 16.8115H46.2371L51.3984 27.2752C51.5748 27.6638 51.6895 27.9552 51.7425 28.1494L51.8748 28.5998H51.9807L52.113 28.1494C52.1659 27.9552 52.2806 27.6638 52.4571 27.2752L57.6183 16.8115H61.1915V35.3548H57.486V24.3613C57.486 23.8138 57.5036 23.4253 57.5389 23.1957L57.6183 22.6129H57.5125C57.4242 22.9131 57.3625 23.1074 57.3272 23.1957C57.1154 23.7255 56.9478 24.114 56.8243 24.3613L52.7218 32.3084H50.869L47.0312 24.6262C46.8194 24.1847 46.6518 23.7962 46.5283 23.4606C46.493 23.3723 46.4312 23.1781 46.343 22.8778H46.2371L46.2901 23.4606C46.343 24.1494 46.3695 24.5379 46.3695 24.6262V35.3548H42.6639V16.8115Z" fill="white"/>
<path fill-rule="evenodd" clip-rule="evenodd" d="M2.80445 30.4137L17.3791 45.0007L31.9538 30.4137C33.7493 28.6162 34.758 26.1786 34.758 23.6369C34.758 21.0952 33.7493 18.6576 31.9538 16.8601V16.8596C30.1578 15.0624 27.7222 14.0527 25.1825 14.0527C22.6428 14.0527 20.2071 15.0624 18.4112 16.8596L17.3791 17.8925L16.3471 16.8596C14.5511 15.0625 12.1156 14.053 9.57604 14.053C7.0365 14.053 4.60094 15.0625 2.805 16.8596C1.00932 18.6571 0 21.0948 0 23.6366C0 26.1785 1.00878 28.6162 2.80445 30.4137ZM17.3791 41.9259L4.34057 28.8763C2.95225 27.4867 2.17231 25.602 2.17231 23.6369C2.17231 21.6718 2.95225 19.7871 4.34057 18.3975V18.397C5.02806 17.7089 5.84424 17.1631 6.74249 16.7907C7.64075 16.4183 8.6035 16.2266 9.57577 16.2266C10.548 16.2266 11.5108 16.4183 12.409 16.7907C13.3073 17.1631 14.1235 17.7089 14.811 18.397L17.3791 20.9673L19.9473 18.397C20.6348 17.7089 21.451 17.1631 22.3492 16.7907C23.2475 16.4183 24.2102 16.2267 25.1825 16.2267C26.1548 16.2267 27.1175 16.4183 28.0158 16.7907C28.914 17.1631 29.7302 17.7089 30.4177 18.397C31.1052 19.0851 31.6505 19.9019 32.0226 20.801C32.3947 21.7 32.5862 22.6635 32.5862 23.6366C32.5862 24.6097 32.3947 25.5733 32.0226 26.4723C31.6505 27.3713 31.1052 28.1882 30.4177 28.8763L17.3791 41.9259Z" fill="white"/>
<path d="M16.028 12.7599C16.3014 12.4864 16.3014 12.043 16.028 11.7695L13.1558 8.89601L14.5698 6.76539H20.3107L21.7246 8.89601L18.8408 11.7811C18.5675 12.0545 18.5674 12.4976 18.8405 12.7712L19.6188 13.551C19.8923 13.825 20.3363 13.8252 20.61 13.5514L24.9429 9.21773L21.652 4.26172H13.2284L9.9375 9.21773L14.2582 13.5392C14.5319 13.8129 14.9755 13.8129 15.2491 13.5392L16.028 12.7599Z" fill="white"/>
<path d="M8.78631 1L10.0647 1.73441M5.72791 6.81015H7.20407M7.29256 12.6203L8.57091 11.8859M27.5201 12.6204L26.2418 11.886M29.0848 6.81023H27.6086M25.8227 1L24.5443 1.73441" stroke="white" stroke-width="1.40105" stroke-miterlimit="10" stroke-linecap="round" stroke-linejoin="round"/>
</svg>
