<svg width="111" height="30" viewBox="0 0 111 30" fill="none" xmlns="http://www.w3.org/2000/svg">
<circle cx="15" cy="15" r="15" transform="matrix(-1 0 0 1 110.5 0)" fill="#B67879"/>
<path d="M101 14.5H44.5" stroke="#6E758D" stroke-width="2" stroke-linecap="round"/>
<path d="M92 7C92.6667 9.5 95.7 14.5 102.5 14.5" stroke="#6E758D" stroke-width="2" stroke-linecap="round"/>
<path d="M92 22.5C92.6667 20 95.7 14.5 102.5 14.5" stroke="#6E758D" stroke-width="2" stroke-linecap="round"/>
<path d="M14.18 8H15.86L13.34 22.68L4.98 11.56L3.18 22H1.48L4 7.32L12.38 18.42L14.18 8ZM20.2991 22.2C19.5391 22.2 18.8724 22.0333 18.2991 21.7C17.7257 21.3667 17.2791 20.8867 16.9591 20.26C16.6391 19.6333 16.4791 18.88 16.4791 18C16.4791 17.28 16.6057 16.6 16.8591 15.96C17.1257 15.3067 17.4857 14.7333 17.9391 14.24C18.4057 13.7333 18.9457 13.3333 19.5591 13.04C20.1857 12.7467 20.8657 12.6 21.5991 12.6C22.3724 12.6 23.0324 12.7533 23.5791 13.06C24.1391 13.3667 24.5724 13.82 24.8791 14.42C25.1857 15.0067 25.3391 15.74 25.3391 16.62C25.3391 16.82 25.3124 17.04 25.2591 17.28C25.2191 17.52 25.1724 17.6933 25.1191 17.8H17.4591V16.44H24.0591L23.4391 17.36C23.5057 17.2 23.5657 17.0333 23.6191 16.86C23.6724 16.6733 23.6991 16.4867 23.6991 16.3C23.6991 15.82 23.6124 15.4133 23.4391 15.08C23.2791 14.7333 23.0391 14.4667 22.7191 14.28C22.3991 14.0933 21.9924 14 21.4991 14C20.9924 14 20.5257 14.1067 20.0991 14.32C19.6857 14.52 19.3257 14.8 19.0191 15.16C18.7124 15.52 18.4724 15.94 18.2991 16.42C18.1391 16.8867 18.0591 17.38 18.0591 17.9C18.0591 18.4467 18.1457 18.9333 18.3191 19.36C18.4924 19.7867 18.7591 20.12 19.1191 20.36C19.4791 20.5867 19.9391 20.7 20.4991 20.7C21.1257 20.7 21.6924 20.5467 22.1991 20.24C22.7191 19.92 23.1457 19.52 23.4791 19.04L24.7391 19.86C24.2591 20.54 23.6457 21.1 22.8991 21.54C22.1524 21.98 21.2857 22.2 20.2991 22.2ZM32.5061 12.8H34.3461L30.5861 17.34L33.0461 22H31.3261L29.5461 18.48L26.6861 22H24.8461L28.8861 17.16L26.5261 12.8H28.2461L29.9061 16L32.5061 12.8ZM34.5702 12.8H39.0502L38.7902 14.3H34.2902L34.5702 12.8ZM36.5102 9.6H38.1302L35.9702 22H34.4302L36.5102 9.6Z" fill="#6E758D"/>
</svg>
