<svg width="110" height="30" viewBox="0 0 110 30" fill="none" xmlns="http://www.w3.org/2000/svg">
<circle cx="15" cy="15" r="15" transform="matrix(-1 0 0 1 110 0)" fill="#B67879"/>
<path d="M100.5 14.5H44" stroke="white" stroke-width="2" stroke-linecap="round"/>
<path d="M91.5 7C92.1667 9.5 95.2 14.5 102 14.5" stroke="white" stroke-width="2" stroke-linecap="round"/>
<path d="M91.5 22.5C92.1667 20 95.2 14.5 102 14.5" stroke="white" stroke-width="2" stroke-linecap="round"/>
<path d="M13.68 8H15.36L12.84 22.68L4.48 11.56L2.68 22H0.98L3.5 7.32L11.88 18.42L13.68 8ZM19.7991 22.2C19.0391 22.2 18.3724 22.0333 17.7991 21.7C17.2257 21.3667 16.7791 20.8867 16.4591 20.26C16.1391 19.6333 15.9791 18.88 15.9791 18C15.9791 17.28 16.1057 16.6 16.3591 15.96C16.6257 15.3067 16.9857 14.7333 17.4391 14.24C17.9057 13.7333 18.4457 13.3333 19.0591 13.04C19.6857 12.7467 20.3657 12.6 21.0991 12.6C21.8724 12.6 22.5324 12.7533 23.0791 13.06C23.6391 13.3667 24.0724 13.82 24.3791 14.42C24.6857 15.0067 24.8391 15.74 24.8391 16.62C24.8391 16.82 24.8124 17.04 24.7591 17.28C24.7191 17.52 24.6724 17.6933 24.6191 17.8H16.9591V16.44H23.5591L22.9391 17.36C23.0057 17.2 23.0657 17.0333 23.1191 16.86C23.1724 16.6733 23.1991 16.4867 23.1991 16.3C23.1991 15.82 23.1124 15.4133 22.9391 15.08C22.7791 14.7333 22.5391 14.4667 22.2191 14.28C21.8991 14.0933 21.4924 14 20.9991 14C20.4924 14 20.0257 14.1067 19.5991 14.32C19.1857 14.52 18.8257 14.8 18.5191 15.16C18.2124 15.52 17.9724 15.94 17.7991 16.42C17.6391 16.8867 17.5591 17.38 17.5591 17.9C17.5591 18.4467 17.6457 18.9333 17.8191 19.36C17.9924 19.7867 18.2591 20.12 18.6191 20.36C18.9791 20.5867 19.4391 20.7 19.9991 20.7C20.6257 20.7 21.1924 20.5467 21.6991 20.24C22.2191 19.92 22.6457 19.52 22.9791 19.04L24.2391 19.86C23.7591 20.54 23.1457 21.1 22.3991 21.54C21.6524 21.98 20.7857 22.2 19.7991 22.2ZM32.0061 12.8H33.8461L30.0861 17.34L32.5461 22H30.8261L29.0461 18.48L26.1861 22H24.3461L28.3861 17.16L26.0261 12.8H27.7461L29.4061 16L32.0061 12.8ZM34.0702 12.8H38.5502L38.2902 14.3H33.7902L34.0702 12.8ZM36.0102 9.6H37.6302L35.4702 22H33.9302L36.0102 9.6Z" fill="white"/>
</svg>
