<svg width="148" height="127" viewBox="0 0 148 127" fill="none" xmlns="http://www.w3.org/2000/svg">
<path d="M145.948 126.838H145.511C127.079 122.819 108.002 117.6 91.943 105.89C84.9779 100.817 78.8777 94.6481 73.8796 87.6212C70.1862 89.8733 66.3364 91.857 62.3598 93.5569C52.0282 98.2071 40.6546 100.04 29.3897 98.8689C23.6682 98.2475 18.1372 96.4451 13.1449 93.5752C8.15255 90.7052 3.80756 86.8299 0.382974 82.1935C0.224317 81.9695 0.111521 81.7163 0.0511023 81.4483C-0.00931613 81.1804 -0.016281 80.9032 0.0308524 80.6326C0.0779858 80.362 0.178179 80.1033 0.3256 79.8718C0.47302 79.6402 0.664798 79.4403 0.889782 79.2835C1.11504 79.1239 1.36935 79.0103 1.63846 78.9494C1.90757 78.8885 2.18619 78.8815 2.45802 78.9287C2.72984 78.9759 2.98944 79.0764 3.22245 79.2245C3.45545 79.3725 3.65731 79.5653 3.81588 79.7916C6.92823 83.9251 10.8478 87.3798 15.3358 89.945C19.8238 92.5102 24.7858 94.1321 29.9196 94.7117C40.4511 95.7914 51.0802 94.0541 60.724 89.6767C64.4448 88.0965 68.048 86.2518 71.5065 84.1567C59.507 65.7503 55.0278 43.4231 58.996 21.7975C59.7879 16.6781 61.7601 11.8145 64.756 7.59334C66.3857 5.32829 68.5726 3.52508 71.1043 2.35938C73.6359 1.19368 76.426 0.705222 79.202 0.941676C85.6301 1.81933 89.8231 6.94662 92.2192 13.044C92.9642 10.7611 94.0355 8.59847 95.399 6.62335C98.3942 2.44297 104.315 -1.29857 110.26 0.433631C116.78 2.28131 119.752 9.25635 120.374 15.192C121.526 26.1857 117.01 36.6713 113.462 43.6001C105.188 60.4298 92.7502 74.8538 77.3356 85.4964C82.0592 92.0637 87.7899 97.8399 94.3156 102.61C109.752 113.766 128.438 118.939 146.34 122.843C146.848 122.951 147.299 123.245 147.603 123.668C147.907 124.091 148.045 124.612 147.987 125.13C147.93 125.649 147.682 126.127 147.293 126.472C146.903 126.818 146.399 127.006 145.879 127L145.948 126.838ZM77.5432 4.86803C75.6821 4.96677 73.8663 5.48033 72.2282 6.3713C70.5901 7.26227 69.1707 8.50817 68.0736 10.0184C65.4832 13.7275 63.7877 17.9891 63.1203 22.4672C59.3158 43.07 63.5909 64.3499 75.0547 81.8703C89.881 71.6228 101.842 57.7399 109.799 41.5445C114.96 31.2668 117.01 23.0677 116.226 15.4461C115.789 11.104 113.646 5.58401 109.131 4.29063C105.145 3.15892 100.998 5.88426 98.8319 8.90983C96.4476 12.8312 94.9234 17.2167 94.3618 21.7743C94.2729 22.2654 94.0087 22.7073 93.6187 23.0175C93.2287 23.3278 92.7396 23.4852 92.2423 23.4603C91.749 23.4482 91.276 23.2602 90.9086 22.93C90.5412 22.5998 90.3038 22.1491 90.2381 21.6589C89.1783 14.1989 85.6302 5.88432 78.7182 4.93739C78.3285 4.88864 77.9359 4.86542 77.5432 4.86803Z" fill="#B67879"/>
</svg>
