<svg width="167" height="205" viewBox="0 0 167 205" fill="none" xmlns="http://www.w3.org/2000/svg">
<g opacity="0.25">
<path d="M164.499 205C152.662 172.563 128.648 144.198 98.6114 127.167C95.4877 125.398 92.235 123.707 89.092 122.074C81.8507 118.305 74.3578 114.407 67.7943 109.238C62.5021 105.049 57.836 99.9894 53.9701 95.5879C52.589 94.0196 50.6077 92.0706 48.3165 89.8182C33.6276 75.368 3.06216 45.2866 23.7274 4.62738L25.3731 5.46637C5.35328 44.9381 34.1633 73.2769 49.646 88.5016C51.963 90.7798 53.9637 92.7482 55.3835 94.3681C59.3913 98.9245 63.7735 103.7 68.9366 107.792C75.3324 112.852 82.7478 116.705 89.9116 120.435C93.074 122.081 96.3654 123.778 99.4891 125.598C129.9 142.837 154.218 171.556 166.203 204.4L164.499 205Z" fill="#B67879"/>
<path d="M95.9846 124.637L95.4941 123.92C94.7269 122.702 94.095 121.404 93.6096 120.048C93.1487 118.75 92.5562 117.502 91.8412 116.324C90.2311 113.952 88.3631 111.766 86.2716 109.806C84.8065 108.399 83.2447 107.024 81.7539 105.695C78.6866 103.135 75.8331 100.329 73.2219 97.3048C69.0728 92.2355 66.3445 86.1553 65.3159 79.6858C64.2833 73.2319 65.374 67.4235 68.375 63.435C69.6402 61.8529 71.0678 60.4079 72.6346 59.1238C73.1638 58.6591 73.693 58.1945 74.2093 57.7169C77.1934 54.9465 79.7163 51.7177 81.6829 48.1523L82.9736 45.7643L85.9553 65.6164C86.3385 68.5168 86.8749 71.395 87.5623 74.2387C88.8854 79.2534 91.1894 84.055 93.4224 88.7018C94.9197 91.8125 96.4686 95.0266 97.7207 98.3116C99.4383 102.586 100.387 107.131 100.522 111.736C100.573 115.524 100.154 122.171 96.7397 124.192L95.9846 124.637ZM81.9217 51.3146C80.0932 54.1619 77.9093 56.7644 75.4226 59.0593C74.8999 59.5497 74.3578 60.0273 73.8156 60.5049C72.346 61.7052 71.0051 63.0549 69.8142 64.5321C67.1101 68.1463 66.1485 73.4191 67.0972 79.376C68.0783 85.5214 70.6729 91.2962 74.6159 96.1108C77.1623 99.0499 79.9445 101.776 82.9349 104.262C84.4645 105.604 86.0457 106.992 87.5365 108.431C89.7148 110.48 91.6625 112.761 93.345 115.234C94.1291 116.516 94.778 117.877 95.2811 119.293C95.6197 120.203 96.0097 121.093 96.4493 121.958C98.1079 120.067 98.6694 115.595 98.6178 111.716C98.4919 107.344 97.6007 103.028 95.9846 98.9634C94.7584 95.7365 93.2288 92.5676 91.7509 89.4892C89.4791 84.7649 87.1299 79.8794 85.7682 74.697C85.0612 71.7941 84.5097 68.8556 84.116 65.8939L81.9217 51.3146Z" fill="#B67879"/>
<path d="M97.2432 123.487L95.4232 123.171C95.975 120.469 95.975 117.683 95.4232 114.981C94.9129 112.982 94.1312 111.063 93.0998 109.276C91.0473 105.687 88.7598 102.237 86.2523 98.9498C83.8212 95.7568 81.5841 92.4206 79.5532 88.9592C74.7902 80.4466 70.563 71.0627 71.8731 60.0977L73.706 60.3171C72.4604 70.7594 76.5586 79.8206 81.1666 88.0686C83.1621 91.4642 85.3581 94.7378 87.7431 97.872C90.2798 101.221 92.5911 104.736 94.6616 108.392C95.7698 110.328 96.61 112.406 97.1593 114.568C97.7878 117.505 97.8164 120.539 97.2432 123.487Z" fill="#B67879"/>
<path d="M98.6695 110.515C96.2428 104.707 92.719 99.2983 89.3178 94.0642C88.4917 92.7734 87.6592 91.5214 86.846 90.2435C83.1028 84.3641 78.7464 76.5162 78.2947 67.9455C78.2052 65.4756 78.311 63.0026 78.6109 60.5494C78.9271 57.5161 79.3531 54.4505 79.9017 51.443L81.7216 51.7592C81.2053 54.728 80.7858 57.7484 80.4696 60.743C80.1816 63.0977 80.0801 65.4715 80.1663 67.8422C80.5922 75.9935 84.8066 83.5638 88.4337 89.2561C89.2404 90.5469 90.0665 91.7924 90.8861 93.0574C94.3389 98.356 97.9079 103.835 100.399 109.805L98.6695 110.515Z" fill="#B67879"/>
<path d="M157.541 189.149L157.264 188.336C156.845 186.949 156.581 185.521 156.477 184.076C156.372 182.7 156.13 181.338 155.754 180.01C154.819 177.302 153.59 174.705 152.088 172.265C151.049 170.516 149.9 168.78 148.79 167.102C146.511 163.829 144.501 160.375 142.782 156.776C140.128 150.785 139.112 144.198 139.839 137.686C140.561 131.174 143.137 125.895 147.093 122.842C148.732 121.652 150.491 120.636 152.34 119.809C152.985 119.505 153.63 119.195 154.231 118.873C157.843 116.992 161.13 114.545 163.97 111.625L165.867 109.689L163.498 129.625C163.1 132.518 162.856 135.431 162.769 138.351C162.717 143.514 163.673 148.773 164.596 153.84C165.241 157.234 165.854 160.745 166.196 164.243C166.716 168.821 166.43 173.453 165.351 177.932C164.395 181.591 162.227 187.897 158.4 188.942L157.541 189.149ZM163.382 114.723C160.865 117.005 158.067 118.957 155.057 120.531C154.411 120.867 153.766 121.177 153.121 121.499C151.385 122.268 149.735 123.216 148.196 124.326C144.64 127.089 142.317 131.929 141.652 137.937C140.968 144.124 141.942 150.38 144.472 156.066C146.151 159.574 148.113 162.939 150.339 166.128C151.456 167.825 152.611 169.581 153.676 171.368C155.245 173.92 156.531 176.636 157.509 179.468C157.929 180.914 158.197 182.4 158.309 183.902C158.399 184.87 158.539 185.833 158.729 186.787C160.833 185.399 162.563 181.23 163.537 177.48C164.578 173.204 164.858 168.778 164.363 164.405C164.028 160.984 163.395 157.506 162.782 154.15C161.84 148.986 160.846 143.662 160.923 138.299C161.012 135.315 161.26 132.337 161.665 129.38L163.382 114.723Z" fill="#B67879"/>
<path d="M159.052 188.374L157.38 187.587C158.619 185.125 159.345 182.438 159.516 179.687C159.555 177.624 159.312 175.566 158.794 173.569C157.763 169.573 156.469 165.649 154.921 161.823C153.422 158.1 152.148 154.289 151.107 150.413C148.383 139.389 148.9 129.115 152.649 119.912L154.36 120.609C150.759 129.457 150.268 139.325 152.901 149.974C153.928 153.777 155.18 157.516 156.651 161.171C158.23 165.07 159.55 169.07 160.601 173.143C161.159 175.305 161.42 177.533 161.375 179.765C161.191 182.762 160.4 185.691 159.052 188.374Z" fill="#B67879"/>
<path d="M163.873 176.248C163.066 170 161.104 163.85 159.2 157.899C158.742 156.46 158.277 155.014 157.832 153.569C155.78 146.908 153.65 138.189 155.483 129.799C156.048 127.396 156.803 125.042 157.742 122.758C158.852 119.918 160.078 117.072 161.375 114.31L163.072 115.097C161.782 117.821 160.581 120.628 159.491 123.429C158.573 125.622 157.829 127.884 157.264 130.193C155.528 138.163 157.587 146.579 159.574 153.027C160.005 154.468 160.461 155.905 160.943 157.338C162.879 163.366 164.86 169.6 165.686 176.015L163.873 176.248Z" fill="#B67879"/>
<path d="M62.444 123.404C59.9781 123.388 57.5175 123.172 55.0866 122.758C51.6144 122.184 48.1551 121.313 44.812 120.467C39.8103 119.176 34.6472 117.886 29.4648 117.615C26.5472 117.507 23.6259 117.554 20.7134 117.757L0.667725 118.796L2.74586 117.034C5.84496 114.396 8.50299 111.281 10.6196 107.805C10.9874 107.205 11.3359 106.591 11.6844 105.985C12.6318 104.192 13.763 102.503 15.0598 100.944C18.39 97.2011 23.8306 94.981 30.3748 94.697C36.9197 94.4247 43.4205 95.8852 49.22 98.9307C52.6966 100.886 56.0076 103.122 59.1202 105.617C60.7272 106.837 62.3859 108.095 64.0574 109.25C66.3892 110.908 68.8953 112.306 71.531 113.42C72.83 113.885 74.1728 114.218 75.5388 114.414C76.9723 114.612 78.3793 114.969 79.7338 115.478L80.5341 115.814L80.2501 116.634C78.9594 120.377 72.5055 122.119 68.801 122.829C66.7046 123.219 64.5763 123.411 62.444 123.404ZM55.3899 120.951C59.7064 121.739 64.1277 121.763 68.4525 121.022C72.2603 120.299 76.5392 118.854 78.0558 116.847C77.1194 116.581 76.1693 116.365 75.2097 116.201C73.7189 115.989 72.2545 115.621 70.8404 115.104C68.0894 113.949 65.473 112.497 63.0377 110.774C61.3274 109.592 59.6494 108.328 58.0295 107.095C54.9979 104.662 51.7732 102.48 48.3875 100.57C42.8832 97.6626 36.7034 96.2748 30.4845 96.5493C24.4437 96.8139 19.4613 98.8081 16.4667 102.177C15.2518 103.639 14.194 105.225 13.3108 106.908C12.958 107.536 12.5966 108.155 12.2266 108.766C10.4636 111.664 8.33815 114.325 5.9018 116.685L20.6424 115.924C23.6215 115.715 26.6097 115.667 29.5939 115.782C34.9506 116.079 40.204 117.408 45.2896 118.692C48.594 119.525 52.021 120.39 55.4157 120.951H55.3899Z" fill="#B67879"/>
<path d="M71.3763 119.016H70.9051C68.6787 118.91 66.4771 118.502 64.3609 117.802C60.3627 116.48 56.4561 114.895 52.6666 113.059C49.1204 111.335 45.4738 109.827 41.7466 108.541C33.2921 105.837 23.2628 103.539 12.9818 106.94L12.401 105.191C23.1854 101.616 33.5761 103.991 42.3146 106.779C46.1115 108.078 49.827 109.604 53.441 111.348C57.1532 113.149 60.98 114.704 64.8966 116.002C66.8552 116.655 68.8943 117.038 70.9568 117.137C73.7134 117.143 76.4432 116.597 78.9854 115.53L79.6307 117.247C77.0141 118.348 74.2142 118.948 71.3763 119.016Z" fill="#B67879"/>
<path d="M66.9101 123.088C60.5724 121.836 54.4929 119.435 48.6134 117.118C47.2065 116.563 45.7931 116.002 44.3797 115.466C38.0872 113.052 29.8198 110.439 21.7525 111.633C19.413 112.027 17.1082 112.605 14.8598 113.362C11.9814 114.266 9.10297 115.298 6.302 116.376L5.65662 114.659C8.49631 113.549 11.4134 112.517 14.3306 111.6C16.6704 110.811 19.0706 110.213 21.5073 109.813C30.007 108.522 38.5583 111.245 45.0703 113.743C46.4901 114.285 47.9057 114.838 49.3169 115.402C55.1254 117.693 61.121 120.061 67.2909 121.275L66.9101 123.088Z" fill="#B67879"/>
<path d="M42.805 85.6103H42.6888C35.3508 85.3973 27.7159 81.6864 20.9716 78.4078L18.5062 77.201C9.6322 72.9608 0.900142 67.8622 0.0675953 56.4002C-0.345451 50.6692 1.12603 44.4864 4.71437 36.9547C8.68348 28.6293 13.2464 20.1747 18.674 11.1393L25.3538 0L25.457 3.13014C25.883 15.9539 26.4767 28.4809 29.0066 40.7238C29.8053 44.6885 30.8244 48.6057 32.0593 52.4569C34.0951 58.7516 36.5997 64.8848 39.5522 70.8052C39.7007 71.0956 40.0427 71.6506 40.4816 72.3735C44.1151 78.3691 46.1352 82.4931 44.9477 84.5261C44.7269 84.8884 44.4093 85.1818 44.0308 85.3734C43.6522 85.565 43.2277 85.647 42.805 85.6103ZM23.7016 6.3248L20.2359 12.101C14.8405 21.0847 10.3034 29.4748 6.36655 37.7486C2.92019 44.9769 1.50035 50.8628 1.88758 56.2711C2.64913 66.7392 10.923 71.528 19.313 75.5359C20.1262 75.9231 20.9652 76.3361 21.8171 76.7492C28.3871 79.9438 35.8348 83.5644 42.7727 83.7645C43.005 83.7645 43.3019 83.7645 43.4181 83.5967C43.9925 82.6028 42.4952 79.15 38.9649 73.3351C38.4938 72.5477 38.1259 71.9475 37.9646 71.6313C34.9695 65.6307 32.4302 59.4131 30.3684 53.0313C29.1037 49.1188 28.0565 45.1393 27.2318 41.111C24.8246 29.7264 24.134 18.1483 23.7016 6.3248Z" fill="#B67879"/>
<path d="M32.9047 83.6034C1.3906 65.21 9.70316 27.2678 9.79351 26.8806L11.5941 27.3001C11.5102 27.6679 3.51392 64.3064 33.8341 82.0093L32.9047 83.6034Z" fill="#B67879"/>
<path d="M62.2699 174.015L64.0705 171.976C66.7668 168.926 68.9567 165.464 70.5566 161.721C70.8342 161.075 71.0923 160.43 71.3505 159.785C72.0359 157.875 72.9161 156.041 73.9772 154.312C76.7459 150.136 81.8186 147.167 88.2531 145.961C94.6911 144.754 101.334 145.275 107.505 147.471C111.226 148.912 114.822 150.656 118.257 152.685C120.019 153.666 121.839 154.673 123.659 155.583C126.202 156.894 128.882 157.922 131.649 158.649C132.999 158.929 134.375 159.067 135.753 159.062C137.203 159.058 138.649 159.214 140.065 159.527L140.897 159.746L140.736 160.591C139.981 164.464 133.856 167.129 130.281 168.336C125.897 169.752 121.299 170.39 116.695 170.221C113.178 170.143 109.628 169.769 106.195 169.414C101.07 168.872 95.7654 168.317 90.6087 168.768C87.7079 169.076 84.8254 169.537 81.9735 170.15L62.2699 174.015ZM95.0748 147.154C92.9093 147.155 90.7486 147.358 88.621 147.761C82.677 148.878 78.0302 151.562 75.5455 155.319C74.5494 156.949 73.7274 158.68 73.093 160.482C72.8284 161.127 72.5638 161.818 72.2798 162.476C70.9473 165.595 69.2232 168.531 67.149 171.214L81.6314 168.368C84.5511 167.738 87.5027 167.267 90.4732 166.955C95.817 166.49 101.206 167.058 106.414 167.6C109.809 167.955 113.32 168.323 116.74 168.401C121.127 168.57 125.509 167.967 129.687 166.619C133.353 165.329 137.38 163.328 138.6 161.121C137.635 161.005 136.666 160.938 135.695 160.921C134.19 160.92 132.689 160.765 131.216 160.456C128.309 159.692 125.496 158.61 122.826 157.229C120.968 156.3 119.128 155.293 117.353 154.299C114.004 152.32 110.498 150.617 106.872 149.207C103.086 147.854 99.0957 147.16 95.0748 147.154Z" fill="#B67879"/>
<path d="M129.68 164.372C128.166 164.356 126.656 164.224 125.162 163.979C121.012 163.239 116.915 162.224 112.9 160.939C109.145 159.75 105.322 158.787 101.451 158.054C92.1769 156.492 82.2896 155.699 72.8024 160.416L71.9763 158.764C81.9346 153.808 92.1769 154.621 101.761 156.228C105.703 156.976 109.597 157.959 113.423 159.171C117.354 160.428 121.364 161.424 125.427 162.152C127.458 162.52 129.529 162.609 131.584 162.417C134.324 162.04 136.958 161.111 139.329 159.687L140.239 161.294C137.67 162.835 134.816 163.841 131.849 164.25C131.129 164.332 130.405 164.373 129.68 164.372Z" fill="#B67879"/>
<path d="M67.4652 170.814L66.5616 169.207C69.2335 167.696 71.97 166.264 74.7064 164.953C76.9136 163.844 79.2055 162.912 81.5604 162.165C89.789 159.7 98.6437 161.165 105.44 162.708C106.92 163.043 108.393 163.389 109.861 163.747C115.934 165.192 122.22 166.69 128.512 167.019L128.415 168.858C121.961 168.522 115.585 167.006 109.435 165.541C107.97 165.192 106.498 164.844 105.033 164.508C98.4566 163.011 89.9052 161.597 82.0896 163.934C79.8289 164.654 77.6279 165.549 75.5067 166.612C72.809 167.909 70.1371 169.31 67.4652 170.814Z" fill="#B67879"/>
</g>
</svg>
