<svg width="90" height="266" viewBox="0 0 90 266" fill="none" xmlns="http://www.w3.org/2000/svg">
<path opacity="0.2" d="M87.3236 51.6341C87.4506 50.922 87.3778 50.1887 87.1129 49.5157C86.848 48.8426 86.4016 48.2562 85.8234 47.8217C85.2451 47.3871 84.5576 47.1215 83.8374 47.0543C83.1172 46.9871 82.3926 47.1211 81.744 47.4412C81.0953 47.7614 80.5483 48.2552 80.1635 48.8677C79.7788 49.4802 79.5714 50.1873 79.5646 50.9106C79.5578 51.6339 79.7517 52.3449 80.1249 52.9645C80.498 53.5842 81.0356 54.0881 81.6781 54.4204C81.1782 57.8954 80.2017 61.285 78.776 64.4933C77.7407 66.4816 76.5599 68.3908 75.2431 70.205C74.8216 70.8173 74.3999 71.4294 73.9835 72.0548C71.6297 75.616 69.6095 79.3868 67.9484 83.3192C69.6237 74.6736 71.6683 65.9827 75.2422 57.9628C77.7982 52.4923 80.7641 47.2228 84.1144 42.1993C84.3283 42.2812 84.5486 42.345 84.7731 42.3901C85.7117 42.5659 86.6823 42.4003 87.5093 41.923C88.3364 41.4457 88.9652 40.6882 89.2825 39.7876C89.5998 38.8869 89.5845 37.9026 89.2393 37.0123C88.894 36.122 88.2416 35.3846 87.4001 34.9333C86.5586 34.4821 85.5834 34.3468 84.6508 34.5519C83.7182 34.757 82.8897 35.2889 82.3151 36.0516C81.7405 36.8142 81.4576 37.7572 81.5177 38.7102C81.5778 39.6632 81.9769 40.5633 82.6427 41.2477C79.2401 46.353 76.2291 51.7086 73.6357 57.2688C68.9947 67.6706 66.9071 79.0728 64.8857 90.1C64.5372 91.9892 64.1977 93.8823 63.836 95.7766C61.4302 108.426 58.185 121.57 50.8441 132.152C54.036 121.244 56.1842 110.058 57.2594 98.7441C58.2241 88.1841 58.0688 77.5517 56.7962 67.0244C56.9327 66.908 57.0285 66.7511 57.0693 66.5764C57.9946 62.3775 58.6845 58.1302 59.1356 53.8544L59.1906 53.8785C60.7793 39.1341 68.3298 25.4115 75.2185 13.2222C75.5935 13.4331 76.0002 13.582 76.4227 13.6633C77.3172 13.819 78.238 13.6601 79.0286 13.2138C79.8192 12.7674 80.4309 12.0611 80.7597 11.2149C81.0885 10.3686 81.1142 9.43463 80.8324 8.57159C80.5505 7.70855 79.9786 6.96969 79.2137 6.48058C78.4488 5.99148 77.5381 5.78227 76.6364 5.88854C75.7348 5.9948 74.8978 6.40998 74.2676 7.0635C73.6374 7.71702 73.2529 8.5686 73.1794 9.47352C73.1059 10.3784 73.3479 11.2808 73.8645 12.0274C68.6373 21.2766 62.9928 31.4019 59.7765 42.2651C59.8562 30.5779 58.1844 18.9448 54.8166 7.75311C55.6975 7.42244 56.4287 6.78365 56.8747 5.95515C57.3207 5.12664 57.4514 4.16457 57.2424 3.24715C57.0334 2.32972 56.4988 1.51911 55.738 0.965569C54.9771 0.412025 54.0414 0.153081 53.1042 0.236623C52.1669 0.320165 51.2917 0.740544 50.6408 1.41994C49.9898 2.09934 49.6071 2.99168 49.5636 3.93161C49.5202 4.87154 49.8189 5.79536 50.4044 6.53192C50.99 7.26848 51.8226 7.76781 52.7481 7.93746L53.0763 7.96134C58.4205 25.5643 59.4731 44.1907 56.1464 62.2837C54.0578 48.2015 49.6327 34.5669 43.0534 21.9422C43.7081 21.3526 44.1433 20.5582 44.2876 19.689C44.432 18.8198 44.277 17.9273 43.848 17.1577C43.419 16.3881 42.7415 15.7869 41.9263 15.4526C41.1111 15.1183 40.2065 15.0706 39.3607 15.3174C38.5148 15.5641 37.7779 16.0907 37.2703 16.811C36.7628 17.5312 36.5148 18.4024 36.567 19.282C36.6192 20.1615 36.9685 20.9973 37.5575 21.6525C38.1466 22.3077 38.9407 22.7435 39.8098 22.8886C40.3789 22.9796 40.9611 22.9443 41.5151 22.7851C53.0157 44.5074 57.9796 71.2457 55.4764 98.5513C53.2224 123.597 44.8479 149.724 30.7171 176.251C28.7071 180.011 26.5786 183.816 24.5103 187.484C19.7299 195.657 15.3918 204.081 11.5148 212.719C14.0153 203.387 16.7163 194.122 19.3924 184.987C22.2623 175.162 25.154 165.238 27.7956 155.236C28.7845 155.222 29.7729 154.488 30.4811 153.073C39.0035 136.14 42.0138 117.335 44.6435 98.974C45.6011 98.9769 46.5266 98.6275 47.2432 97.9921C47.9598 97.3567 48.4173 96.4798 48.529 95.5287C48.6406 94.5775 48.3986 93.6186 47.8487 92.8346C47.2987 92.0505 46.4794 91.4961 45.547 91.2772C44.6147 91.0583 43.6345 91.1901 42.7931 91.6475C41.9517 92.1049 41.3081 92.8559 40.9847 93.7574C40.6614 94.6589 40.6811 95.6478 41.04 96.5357C41.3989 97.4235 42.0718 98.1482 42.9307 98.5718C40.3098 116.838 37.3396 135.552 28.9187 152.278C28.7689 152.584 28.5749 152.867 28.343 153.117C34.4012 129.731 38.8389 105.906 37.9374 81.78C38.7754 81.5234 39.5023 80.9914 40.0001 80.27C40.4979 79.5487 40.7375 78.6804 40.6802 77.8059C40.6228 76.9313 40.2718 76.1018 39.6841 75.4516C39.0963 74.8015 38.3062 74.369 37.4419 74.224C36.9257 74.1117 36.3921 74.1052 35.8733 74.2049C35.3545 74.3045 34.8612 74.5083 34.4233 74.8038C33.9855 75.0994 33.612 75.4806 33.3256 75.9245C33.0391 76.3684 32.8456 76.8657 32.7567 77.3864C32.6678 77.9072 32.6852 78.4405 32.8081 78.9543C32.931 79.4681 33.1567 79.9516 33.4717 80.3758C33.7867 80.7999 34.1843 81.1558 34.6407 81.422C35.097 81.6882 35.6025 81.8592 36.1267 81.9246L36.1817 81.9487C37.3962 114.992 28.4683 147.581 19.2465 179.223C17.7913 170.09 16.9294 160.874 16.6664 151.63L16.7306 151.658C17.3136 146.945 19.4818 142.502 21.549 138.189C22.3295 136.61 23.0968 135.035 23.7959 133.442C27.8548 124.171 29.6355 114.064 28.989 103.964C29.9171 103.716 30.7214 103.135 31.2487 102.332C31.7759 101.529 31.989 100.56 31.8475 99.6102C31.7059 98.6601 31.2196 97.7954 30.4812 97.1809C29.7428 96.5665 28.8041 96.2454 27.8441 96.2788C26.884 96.3122 25.9698 96.6979 25.276 97.3623C24.5821 98.0266 24.1572 98.9232 24.0821 99.8808C24.0071 100.838 24.2871 101.79 24.8689 102.555C25.4508 103.319 26.2936 103.842 27.2367 104.025C27.8746 113.861 26.1419 123.707 22.1843 132.735C21.4931 134.31 20.7339 135.866 19.9747 137.422C18.6915 139.973 17.5433 142.589 16.535 145.26C16.535 133.514 17.4921 121.786 19.3967 110.195C19.8418 107.463 20.3476 104.693 20.8483 101.91C30.3744 86.96 35.8373 69.7845 36.698 52.0785C37.6533 52.0147 38.5517 51.6018 39.2222 50.9183C39.8927 50.2349 40.2882 49.3287 40.3337 48.3723C40.3792 47.416 40.0713 46.4764 39.4687 45.7324C38.8661 44.9885 38.0109 44.4922 37.066 44.3381C36.121 44.184 35.1524 44.3828 34.3447 44.8967C33.5369 45.4107 32.9464 46.2038 32.6856 47.125C32.4249 48.0462 32.5121 49.0312 32.9306 49.8922C33.3492 50.7533 34.0699 51.4303 34.9554 51.7943C34.2106 67.6329 29.7199 83.069 21.852 96.8353C22.0615 95.8352 22.2377 94.886 22.4312 93.9226C26.0978 75.6126 29.8783 56.7193 25.7631 38.5983C26.4517 38.0353 26.9267 37.2534 27.1087 36.3827C27.2908 35.512 27.1689 34.6053 26.7635 33.8136C26.358 33.0219 25.6934 32.393 24.8806 32.0318C24.0677 31.6706 23.1557 31.5989 22.2964 31.8286C21.4371 32.0583 20.6824 32.5756 20.1582 33.2942C19.6341 34.0129 19.3721 34.8894 19.4158 35.7779C19.4595 36.6663 19.8063 37.5128 20.3985 38.1765C20.9907 38.8402 21.7924 39.2809 22.6701 39.4252C23.157 39.5046 23.6545 39.4934 24.1372 39.3919C28.0199 57.0723 24.2947 75.6404 20.6886 93.6384C20.1836 96.1578 19.6717 98.7179 19.1781 101.286C19.1058 101.451 19.0375 101.607 18.8919 101.739L19.075 101.82C18.5607 104.51 18.0607 107.217 17.6186 109.917C13.638 134.071 13.7515 158.722 17.9546 182.838C17.9831 182.917 18.0248 182.991 18.0776 183.056C17.9236 183.556 17.7948 184.024 17.6419 184.546C10.7958 207.937 3.72084 232.123 0.51022 256.486C0.17233 259.122 0.629212 262.785 2.42061 264.575C2.96418 265.131 3.66901 265.502 4.43501 265.634C4.84075 265.705 5.25523 265.71 5.66253 265.649C5.8744 265.597 6.05958 265.468 6.18195 265.288C6.30431 265.107 6.35526 264.887 6.32491 264.671C6.29455 264.455 6.18492 264.258 6.01752 264.118C5.85012 263.979 5.63683 263.906 5.41887 263.915C5.09948 263.966 4.77227 263.94 4.4653 263.838C4.15834 263.735 3.88071 263.56 3.65641 263.327C2.34146 262.018 1.93603 258.935 2.19962 256.692C3.28983 248.434 4.83647 240.256 6.64291 232.083C6.77293 232.031 6.88822 231.948 6.97885 231.842C7.06948 231.735 7.13266 231.608 7.1629 231.471C10.3498 216.095 18.2672 202.01 25.9207 188.376C27.9839 184.695 30.1258 180.884 32.1346 177.103C39.0839 164.214 44.8236 150.71 49.2799 136.762C50.1436 135.793 50.9536 134.778 51.7065 133.721L51.9151 133.419C59.3798 122.804 62.74 109.722 65.1864 97.0791C66.9871 88.4997 70.4009 80.3404 75.2462 73.0348C75.6545 72.4277 76.076 71.8155 76.4935 71.2124C77.8721 69.3332 79.1064 67.3523 80.1859 65.2867C81.6776 61.9788 82.6959 58.4773 83.2105 54.8853C84.1775 54.9514 85.1344 54.6551 85.8949 54.054C86.6553 53.4529 87.1646 52.5903 87.3236 51.6341Z" fill="#205156"/>
</svg>
