<svg width="24" height="25" viewBox="0 0 24 25" fill="none" xmlns="http://www.w3.org/2000/svg">
<g clip-path="url(#clip0_1293_4534)">
<path d="M4.94305 11.2695C4.94305 11.6578 5.25786 11.9726 5.64617 11.9726C6.03449 11.9726 6.3493 11.6578 6.3493 11.2695V11.2389C6.3493 10.1413 6.77807 9.11069 7.55671 8.33698C8.32907 7.56949 9.35188 7.14785 10.4442 7.14785L10.4589 7.1479L10.4667 7.14795C10.5365 7.14682 10.6072 7.13815 10.6723 7.1187L10.6725 7.11865C10.6727 7.11854 10.673 7.11846 10.6733 7.11841L10.6742 7.11809C10.6746 7.11799 10.675 7.11795 10.6752 7.1178C10.9633 7.03057 11.1732 6.76338 11.1741 6.44693C11.1753 6.05941 10.8627 5.74404 10.4752 5.7417H10.4727L10.4146 5.74132C8.17307 5.72716 6.34939 3.89196 6.34939 1.6504V1.62012C6.34939 1.2318 6.03458 0.916992 5.64627 0.916992C5.25796 0.916992 4.94314 1.2318 4.94314 1.62012C4.94314 3.87593 3.10794 5.71113 0.852128 5.71113H0.821472C0.43316 5.71113 0.118347 6.02595 0.118347 6.41426C0.118347 6.80257 0.43316 7.11738 0.821472 7.11738H0.851988C3.1078 7.11738 4.943 8.95263 4.943 11.2084L4.94305 11.2695ZM3.54003 6.41426C4.415 5.92127 5.13943 5.19961 5.63577 4.32654C5.87811 4.76018 6.18135 5.1634 6.54093 5.52523C6.90369 5.89034 7.30893 6.19826 7.74552 6.44449C7.3191 6.6851 6.92235 6.98477 6.56549 7.33943C6.20343 7.69919 5.89775 8.10016 5.65269 8.53198C5.15604 7.64566 4.42516 6.91303 3.54003 6.41426ZM14.1236 18.686L14.0624 18.6856C11.8209 18.6715 9.99725 16.8363 9.99725 14.5947V14.5644C9.99725 14.1761 9.68244 13.8613 9.29413 13.8613C8.90582 13.8613 8.591 14.1761 8.591 14.5644C8.591 16.8202 6.7558 18.6555 4.49999 18.6555H4.46947C4.08116 18.6555 3.76635 18.9703 3.76635 19.3586C3.76635 19.7469 4.08116 20.0617 4.46947 20.0617H4.49999C6.7558 20.0617 8.591 21.8969 8.591 24.1527V24.2139C8.591 24.6022 8.90582 24.917 9.29413 24.917C9.68244 24.917 9.99725 24.6022 9.99725 24.2139V24.1833C9.99725 23.0856 10.426 22.055 11.2047 21.2813C11.977 20.5139 12.9998 20.0922 14.092 20.0922L14.1096 20.0923L14.1141 20.0923V20.0923L14.1189 20.0923C14.5063 20.0923 14.8207 19.779 14.822 19.3916C14.8233 19.0042 14.511 18.6887 14.1236 18.686ZM10.2135 20.2838C9.85147 20.6435 9.54575 21.0445 9.30064 21.4763C8.80401 20.59 8.07315 19.8574 7.18804 19.3586C8.06302 18.8656 8.78745 18.1439 9.28377 17.2708C9.52611 17.7045 9.82935 18.1077 10.1889 18.4695C10.5517 18.8346 10.9569 19.1426 11.3935 19.3888C10.9671 19.6294 10.5704 19.9291 10.2135 20.2838ZM23.1846 10.8874L23.1234 10.887C20.8819 10.8728 19.0582 9.03762 19.0582 6.79605V6.76577C19.0582 6.37746 18.7434 6.06265 18.3551 6.06265C17.9668 6.06265 17.652 6.37746 17.652 6.76577C17.652 9.02159 15.8168 10.8568 13.561 10.8568H13.5305C13.1421 10.8568 12.8273 11.1716 12.8273 11.56C12.8273 11.9483 13.1421 12.2631 13.5305 12.2631H13.561C15.8168 12.2631 17.652 14.0983 17.652 16.3541V16.4152C17.652 16.8035 17.9668 17.1183 18.3551 17.1183C18.7434 17.1183 19.0582 16.8035 19.0582 16.4152V16.3846C19.0582 15.2869 19.487 14.2564 20.2656 13.4826C21.038 12.7152 22.0608 12.2936 23.153 12.2936L23.1705 12.2936L23.1751 12.2936H23.1799C23.5673 12.2936 23.8817 11.9803 23.883 11.5929C23.8843 11.2055 23.5721 10.8901 23.1846 10.8874ZM19.2745 12.4851C18.9125 12.8449 18.6067 13.2459 18.3616 13.6777C17.865 12.7914 17.1341 12.0587 16.249 11.56C17.124 11.067 17.8484 10.3453 18.3448 9.4722C18.5871 9.90588 18.8903 10.3091 19.2499 10.6708C19.6127 11.036 20.0179 11.3439 20.4545 11.5901C20.0281 11.8308 19.6314 12.1305 19.2745 12.4851Z" fill="white"/>
</g>
<defs>
<clipPath id="clip0_1293_4534">
<rect width="24" height="24" fill="white" transform="translate(0 0.916992)"/>
</clipPath>
</defs>
</svg>
