<svg width="109" height="30" viewBox="0 0 109 30" fill="none" xmlns="http://www.w3.org/2000/svg">
<circle cx="15.5" cy="15" r="15" fill="#B67879"/>
<path d="M10 14.5H66.5" stroke="#6E758D" stroke-width="2" stroke-linecap="round"/>
<path d="M19 7C18.3333 9.5 15.3 14.5 8.5 14.5" stroke="#6E758D" stroke-width="2" stroke-linecap="round"/>
<path d="M19 22.5C18.3333 20 15.3 14.5 8.5 14.5" stroke="#6E758D" stroke-width="2" stroke-linecap="round"/>
<path d="M75.88 8H77.58L75.16 22H73.52L75.88 8ZM76.52 9.6L76.8 8H79.54C80.3933 8 81.14 8.18 81.78 8.54C82.42 8.88667 82.9 9.38 83.22 10.02C83.5533 10.6467 83.6533 11.3733 83.52 12.2C83.3867 13.04 83.0667 13.78 82.56 14.42C82.0533 15.0467 81.42 15.5333 80.66 15.88C79.9133 16.2267 79.1 16.4 78.22 16.4H75.36L75.64 14.8H78.38C78.9533 14.7867 79.48 14.68 79.96 14.48C80.4533 14.28 80.8667 13.9867 81.2 13.6C81.5333 13.2133 81.7467 12.7467 81.84 12.2C81.9333 11.6533 81.8867 11.1867 81.7 10.8C81.5133 10.4133 81.22 10.12 80.82 9.92C80.42 9.70667 79.94 9.6 79.38 9.6H76.52ZM86.8139 12.8L85.2339 22H83.6339L85.2339 12.8H86.8139ZM89.2339 14.54C89.0606 14.4067 88.8872 14.3 88.7139 14.22C88.5406 14.14 88.3406 14.1 88.1139 14.1C87.7139 14.0867 87.3806 14.1933 87.1139 14.42C86.8606 14.6467 86.6606 14.9333 86.5139 15.28C86.3806 15.6267 86.2739 15.9933 86.1939 16.38H85.4539C85.5739 15.7533 85.7806 15.1533 86.0739 14.58C86.3806 14.0067 86.7539 13.5333 87.1939 13.16C87.6472 12.7867 88.1406 12.6 88.6739 12.6C88.9939 12.6 89.2806 12.6533 89.5339 12.76C89.8006 12.8667 90.0539 13.0333 90.2939 13.26L89.2339 14.54ZM93.8811 22.2C93.1211 22.2 92.4544 22.0333 91.8811 21.7C91.3078 21.3667 90.8611 20.8867 90.5411 20.26C90.2211 19.6333 90.0611 18.88 90.0611 18C90.0611 17.28 90.1878 16.6 90.4411 15.96C90.7078 15.3067 91.0678 14.7333 91.5211 14.24C91.9878 13.7333 92.5278 13.3333 93.1411 13.04C93.7678 12.7467 94.4478 12.6 95.1811 12.6C95.9544 12.6 96.6144 12.7533 97.1611 13.06C97.7211 13.3667 98.1544 13.82 98.4611 14.42C98.7678 15.0067 98.9211 15.74 98.9211 16.62C98.9211 16.82 98.8944 17.04 98.8411 17.28C98.8011 17.52 98.7544 17.6933 98.7011 17.8H91.0411V16.44H97.6411L97.0211 17.36C97.0878 17.2 97.1478 17.0333 97.2011 16.86C97.2544 16.6733 97.2811 16.4867 97.2811 16.3C97.2811 15.82 97.1944 15.4133 97.0211 15.08C96.8611 14.7333 96.6211 14.4667 96.3011 14.28C95.9811 14.0933 95.5744 14 95.0811 14C94.5744 14 94.1078 14.1067 93.6811 14.32C93.2678 14.52 92.9078 14.8 92.6011 15.16C92.2944 15.52 92.0544 15.94 91.8811 16.42C91.7211 16.8867 91.6411 17.38 91.6411 17.9C91.6411 18.4467 91.7278 18.9333 91.9011 19.36C92.0744 19.7867 92.3411 20.12 92.7011 20.36C93.0611 20.5867 93.5211 20.7 94.0811 20.7C94.7078 20.7 95.2744 20.5467 95.7811 20.24C96.3011 19.92 96.7278 19.52 97.0611 19.04L98.3211 19.86C97.8411 20.54 97.2278 21.1 96.4811 21.54C95.7344 21.98 94.8678 22.2 93.8811 22.2ZM99.9081 12.8H101.648L103.168 19.24L106.668 12.8H108.488L102.648 22.72L99.9081 12.8Z" fill="#6E758D"/>
</svg>
