<svg width="108" height="30" viewBox="0 0 108 30" fill="none" xmlns="http://www.w3.org/2000/svg">
<circle cx="15" cy="15" r="15" fill="#B67879"/>
<path d="M9.5 14.5H66" stroke="white" stroke-width="2" stroke-linecap="round"/>
<path d="M18.5 7C17.8333 9.5 14.8 14.5 8 14.5" stroke="white" stroke-width="2" stroke-linecap="round"/>
<path d="M18.5 22.5C17.8333 20 14.8 14.5 8 14.5" stroke="white" stroke-width="2" stroke-linecap="round"/>
<path d="M75.38 8H77.08L74.66 22H73.02L75.38 8ZM76.02 9.6L76.3 8H79.04C79.8933 8 80.64 8.18 81.28 8.54C81.92 8.88667 82.4 9.38 82.72 10.02C83.0533 10.6467 83.1533 11.3733 83.02 12.2C82.8867 13.04 82.5667 13.78 82.06 14.42C81.5533 15.0467 80.92 15.5333 80.16 15.88C79.4133 16.2267 78.6 16.4 77.72 16.4H74.86L75.14 14.8H77.88C78.4533 14.7867 78.98 14.68 79.46 14.48C79.9533 14.28 80.3667 13.9867 80.7 13.6C81.0333 13.2133 81.2467 12.7467 81.34 12.2C81.4333 11.6533 81.3867 11.1867 81.2 10.8C81.0133 10.4133 80.72 10.12 80.32 9.92C79.92 9.70667 79.44 9.6 78.88 9.6H76.02ZM86.3139 12.8L84.7339 22H83.1339L84.7339 12.8H86.3139ZM88.7339 14.54C88.5606 14.4067 88.3872 14.3 88.2139 14.22C88.0406 14.14 87.8406 14.1 87.6139 14.1C87.2139 14.0867 86.8806 14.1933 86.6139 14.42C86.3606 14.6467 86.1606 14.9333 86.0139 15.28C85.8806 15.6267 85.7739 15.9933 85.6939 16.38H84.9539C85.0739 15.7533 85.2806 15.1533 85.5739 14.58C85.8806 14.0067 86.2539 13.5333 86.6939 13.16C87.1472 12.7867 87.6406 12.6 88.1739 12.6C88.4939 12.6 88.7806 12.6533 89.0339 12.76C89.3006 12.8667 89.5539 13.0333 89.7939 13.26L88.7339 14.54ZM93.3811 22.2C92.6211 22.2 91.9544 22.0333 91.3811 21.7C90.8078 21.3667 90.3611 20.8867 90.0411 20.26C89.7211 19.6333 89.5611 18.88 89.5611 18C89.5611 17.28 89.6878 16.6 89.9411 15.96C90.2078 15.3067 90.5678 14.7333 91.0211 14.24C91.4878 13.7333 92.0278 13.3333 92.6411 13.04C93.2678 12.7467 93.9478 12.6 94.6811 12.6C95.4544 12.6 96.1144 12.7533 96.6611 13.06C97.2211 13.3667 97.6544 13.82 97.9611 14.42C98.2678 15.0067 98.4211 15.74 98.4211 16.62C98.4211 16.82 98.3944 17.04 98.3411 17.28C98.3011 17.52 98.2544 17.6933 98.2011 17.8H90.5411V16.44H97.1411L96.5211 17.36C96.5878 17.2 96.6478 17.0333 96.7011 16.86C96.7544 16.6733 96.7811 16.4867 96.7811 16.3C96.7811 15.82 96.6944 15.4133 96.5211 15.08C96.3611 14.7333 96.1211 14.4667 95.8011 14.28C95.4811 14.0933 95.0744 14 94.5811 14C94.0744 14 93.6078 14.1067 93.1811 14.32C92.7678 14.52 92.4078 14.8 92.1011 15.16C91.7944 15.52 91.5544 15.94 91.3811 16.42C91.2211 16.8867 91.1411 17.38 91.1411 17.9C91.1411 18.4467 91.2278 18.9333 91.4011 19.36C91.5744 19.7867 91.8411 20.12 92.2011 20.36C92.5611 20.5867 93.0211 20.7 93.5811 20.7C94.2078 20.7 94.7744 20.5467 95.2811 20.24C95.8011 19.92 96.2278 19.52 96.5611 19.04L97.8211 19.86C97.3411 20.54 96.7278 21.1 95.9811 21.54C95.2344 21.98 94.3678 22.2 93.3811 22.2ZM99.4081 12.8H101.148L102.668 19.24L106.168 12.8H107.988L102.148 22.72L99.4081 12.8Z" fill="white"/>
</svg>
