<svg width="60" height="60" viewBox="0 0 60 60" fill="none" xmlns="http://www.w3.org/2000/svg">
<g opacity="0.2">
<path opacity="0.2" d="M25.3125 33.7531H9.375C8.87772 33.7531 8.40081 33.5556 8.04918 33.2039C7.69754 32.8523 7.5 32.3753 7.5 31.878L7.5 16.8766C7.5 16.3793 7.69754 15.9024 8.04918 15.5507C8.40081 15.199 8.87772 15.0015 9.375 15.0015L23.4375 15.0015C23.9348 15.0015 24.4117 15.199 24.7633 15.5507C25.115 15.9024 25.3125 16.3793 25.3125 16.8766L25.3125 33.7531Z" fill="#3E4767"/>
<path opacity="0.2" d="M52.5 33.7531H36.5625C36.0652 33.7531 35.5883 33.5556 35.2367 33.2039C34.885 32.8523 34.6875 32.3753 34.6875 31.878L34.6875 16.8766C34.6875 16.3793 34.885 15.9024 35.2367 15.5507C35.5883 15.199 36.0652 15.0015 36.5625 15.0015L50.625 15.0015C51.1223 15.0015 51.5992 15.199 51.9508 15.5507C52.3025 15.9024 52.5 16.3793 52.5 16.8766L52.5 33.7531Z" fill="#3E4767"/>
<path d="M25.3125 33.7531H9.375C8.87772 33.7531 8.40081 33.5556 8.04918 33.2039C7.69754 32.8523 7.5 32.3753 7.5 31.878L7.5 16.8766C7.5 16.3793 7.69754 15.9024 8.04918 15.5507C8.40081 15.199 8.87772 15.0015 9.375 15.0015L23.4375 15.0015C23.9348 15.0015 24.4117 15.199 24.7633 15.5507C25.115 15.9024 25.3125 16.3793 25.3125 16.8766L25.3125 37.5035C25.3125 39.9901 24.3248 42.3749 22.5666 44.1332C20.8085 45.8915 18.4239 46.8793 15.9375 46.8793" stroke="#3E4767" stroke-width="3.78989" stroke-linecap="round" stroke-linejoin="round"/>
<path d="M52.5 33.7531H36.5625C36.0652 33.7531 35.5883 33.5556 35.2367 33.2039C34.885 32.8523 34.6875 32.3753 34.6875 31.878L34.6875 16.8766C34.6875 16.3793 34.885 15.9024 35.2367 15.5507C35.5883 15.199 36.0652 15.0015 36.5625 15.0015L50.625 15.0015C51.1223 15.0015 51.5992 15.199 51.9508 15.5507C52.3025 15.9024 52.5 16.3793 52.5 16.8766L52.5 37.5035C52.5 39.9901 51.5123 42.3749 49.7541 44.1332C47.996 45.8915 45.6114 46.8793 43.125 46.8793" stroke="#3E4767" stroke-width="3.78989" stroke-linecap="round" stroke-linejoin="round"/>
</g>
</svg>
