<svg width="30" height="30" viewBox="0 0 30 30" fill="none" xmlns="http://www.w3.org/2000/svg">
<path d="M26.9125 25.5875L22.1113 20.7862C23.7163 18.8825 24.6875 16.4288 24.6875 13.75C24.6875 7.71875 19.7812 2.8125 13.75 2.8125C7.71875 2.8125 2.8125 7.71875 2.8125 13.75C2.8125 19.7812 7.71875 24.6875 13.75 24.6875C16.4288 24.6875 18.8825 23.7162 20.7863 22.1112L25.5875 26.9125C25.77 27.095 26.01 27.1875 26.25 27.1875C26.49 27.1875 26.73 27.0962 26.9125 26.9125C27.2788 26.5475 27.2788 25.9538 26.9125 25.5875ZM4.6875 13.75C4.6875 8.7525 8.7525 4.6875 13.75 4.6875C18.7475 4.6875 22.8125 8.7525 22.8125 13.75C22.8125 18.7475 18.7475 22.8125 13.75 22.8125C8.7525 22.8125 4.6875 18.7475 4.6875 13.75Z" fill="#B67879"/>
</svg>
