<svg width="79" height="83" viewBox="0 0 79 83" fill="none" xmlns="http://www.w3.org/2000/svg">
<path fill-rule="evenodd" clip-rule="evenodd" d="M30.5301 5.9878C36.6005 5.71566 38.0883 16.5968 43.2679 19.8934C47.4886 22.5798 54.2967 20.4571 58.2051 23.602C64.8814 35.0359 70.9743 29.645 72.4043 35.9235C73.814 42.113 68.0752 45.5359 64.8814 52.9153C62.5457 58.3122 62.0524 64.5701 58.1348 68.8943C53.9811 73.4789 48.4763 77.7437 42.3438 77.7917C36.2633 77.8393 31.3269 72.9153 26.4622 69.1423C22.5872 66.1369 20.7063 59.1715 17.3858 55.5359C13.7941 51.6034 8.17134 51.7704 6.08741 46.8344C3.81017 41.4405 10.1039 37.5896 11.8858 32.0357C13.6894 26.414 11.6099 20.2098 15.8985 16.2549C20.3666 12.1344 24.4999 6.25814 30.5301 5.9878Z" fill="#D2DCDD"/>
<g clip-path="url(#clip0_984_860)">
<path d="M72.6063 43.7497C72.592 43.7494 72.5777 43.748 72.5636 43.7455C72.2936 43.6928 71.293 42.7283 70.9622 42.4035C70.4465 42.5205 69.6121 42.6927 69.1723 42.6927C69.024 42.6927 68.8623 42.6764 68.7894 42.5553C68.7487 42.4875 68.7484 42.4056 68.7884 42.3301C68.8039 42.306 69.2019 41.7472 69.7115 41.0766C68.9725 40.2114 68.9316 39.9377 69.0014 39.7731C69.0214 39.7261 69.0867 39.6157 69.2626 39.6064L69.3219 39.6051C69.6656 39.6051 70.2969 39.7333 70.7026 39.8248C71.6017 38.7476 71.896 38.5964 72.0782 38.5964C72.1954 38.5964 72.2888 38.6648 72.328 38.7796C72.418 39.0414 72.5403 39.7437 72.6306 40.351C74.0663 40.8166 74.127 41.039 74.1563 41.1473C74.1674 41.1876 74.168 41.23 74.1581 41.2706C74.1482 41.3112 74.1281 41.3486 74.0996 41.3792C74.0548 41.4291 73.922 41.5764 72.8247 41.9118C72.9743 43.4502 72.8389 43.6004 72.7728 43.6735C72.7521 43.6973 72.7265 43.7163 72.6978 43.7295C72.6691 43.7426 72.6379 43.7495 72.6063 43.7497ZM71.3603 42.3099C71.9285 42.8601 72.339 43.2077 72.5328 43.345C72.5523 43.1909 72.5644 42.8309 72.4877 42.0117C72.1308 42.1145 71.7436 42.2169 71.3603 42.3099ZM69.9436 41.3415C69.6919 41.6742 69.4436 42.0095 69.1989 42.3473C69.4826 42.3423 70.008 42.2589 70.6727 42.1143C70.4235 41.8626 70.1804 41.6049 69.9436 41.3415ZM70.157 41.0623C70.4516 41.3921 70.7561 41.7129 71.07 42.0244C71.5338 41.9157 71.9948 41.7951 72.4524 41.6627C72.414 41.3125 72.3699 40.963 72.3203 40.6142C71.829 40.4623 71.3328 40.3271 70.8324 40.2088C70.6028 40.4898 70.3777 40.7743 70.157 41.0623ZM72.6851 40.7325C72.7238 41.0152 72.7585 41.2957 72.7883 41.5618C73.3463 41.3889 73.6396 41.2671 73.7684 41.1974C73.6649 41.123 73.3909 40.9698 72.6851 40.7325ZM69.3376 39.9503C69.3733 40.0484 69.4973 40.2872 69.926 40.7962C70.1003 40.5701 70.2771 40.346 70.4564 40.1238C69.9527 40.0153 69.5544 39.9531 69.3376 39.9503ZM71.0789 39.9131C71.4776 40.0107 71.8844 40.1215 72.2642 40.2361C72.1767 39.6683 72.0866 39.1919 72.0239 38.9651C71.9216 39.0241 71.663 39.2262 71.0789 39.9131ZM4.70657 58.6465C4.58054 58.6465 4.48717 58.5574 4.47908 58.4299C4.4798 58.4014 4.52591 57.7169 4.60843 56.8786C3.52532 56.5293 3.34668 56.3176 3.32008 56.1408C3.31228 56.0902 3.31025 55.962 3.45522 55.8618C3.72376 55.6768 4.37256 55.4381 4.79589 55.293C5.03755 53.6262 5.24813 53.4858 5.46045 53.4858C5.50294 53.4858 5.56725 53.497 5.63273 53.5508C5.84634 53.7267 6.31853 54.2607 6.71382 54.7303C7.15565 54.6234 7.71268 54.5079 8.05854 54.5079C8.25944 54.5079 8.3807 54.5459 8.45181 54.6316C8.49936 54.6885 8.51757 54.761 8.50398 54.836C8.49184 54.9019 8.45586 55.097 7.6975 55.9577C8.65386 57.2196 8.60039 57.4067 8.57134 57.5088C8.55139 57.5779 8.50225 57.6316 8.4362 57.6564C8.39573 57.6715 8.34587 57.6783 8.27476 57.6783C7.98093 57.6783 7.22228 57.5485 6.36868 57.3531C5.04897 58.6464 4.79184 58.6465 4.70657 58.6465ZM4.94476 56.9827C4.90462 57.3981 4.86901 57.8139 4.83795 58.2301C5.02266 58.1106 5.38052 57.8266 5.97064 57.2587C5.62651 57.175 5.28445 57.0829 4.94476 56.9827ZM6.65875 57.0645C7.32533 57.2112 7.91574 57.3135 8.19989 57.3307C8.13557 57.1891 7.95693 56.8759 7.46249 56.2196C7.21245 56.4942 6.93654 56.7844 6.65875 57.0645ZM4.98017 56.6331C5.36101 56.748 5.79937 56.8646 6.26187 56.9737C6.59997 56.638 6.92933 56.2936 7.2496 55.9409C7.03336 55.6629 6.81268 55.3883 6.58765 55.1174C6.11243 55.2385 5.59486 55.3905 5.10822 55.5518C5.05981 55.9115 5.01712 56.272 4.98017 56.6331ZM3.69919 56.1152C3.78114 56.18 4.01166 56.3184 4.64413 56.5273C4.67622 56.2229 4.70946 55.9383 4.74357 55.6766C4.25722 55.8484 3.8826 56.0057 3.69919 56.1152ZM6.96039 55.0267C7.13726 55.242 7.31139 55.4594 7.48273 55.679C7.86718 55.2394 8.0529 54.9819 8.12604 54.8552C8.10347 54.8537 8.08086 54.8529 8.05825 54.853C7.83365 54.853 7.44948 54.914 6.96039 55.0267ZM5.47157 53.8689C5.41333 53.9759 5.29973 54.2852 5.16315 55.171C5.55285 55.0452 5.94583 54.9298 6.34165 54.8248C5.96992 54.3878 5.644 54.0296 5.47157 53.8689ZM12.1345 71.9655C11.5069 71.9655 6.18657 67.6396 5.6875 66.9805C5.63186 66.9072 5.57896 66.8191 5.60657 66.7211C5.61061 66.7075 5.61596 66.6948 5.62247 66.6828C5.63026 66.6676 5.63987 66.6535 5.65108 66.6407C5.65412 66.6375 5.65715 66.6343 5.66091 66.6309C5.6759 66.616 5.69349 66.604 5.7128 66.5955C6.41074 66.2065 11.7025 65.4255 13.3228 65.4255C13.7133 65.4255 14.0959 65.4477 14.1083 65.7131C14.1349 66.2839 12.979 67.3022 12.7471 67.5005C12.7292 67.5163 12.7081 67.528 12.6853 67.5349C12.6625 67.5419 12.6384 67.5439 12.6147 67.5408C12.5669 67.5351 8.37188 67.04 6.57868 66.927C7.77338 67.3401 10.2456 68.0792 11.9132 68.5594C11.9742 68.5768 12.0207 68.6266 12.0339 68.6887C12.6968 71.7551 12.3362 71.9015 12.2179 71.9498C12.191 71.9592 12.1629 71.9645 12.1345 71.9655ZM6.40004 67.2245C7.71571 68.4343 11.383 71.29 12.0719 71.5958C12.1417 71.2565 11.9557 69.9836 11.7181 68.8623C8.69159 67.99 7.16909 67.506 6.40004 67.2245ZM6.93987 66.6063C8.7374 66.7413 12.0178 67.1234 12.5796 67.1893C13.0592 66.7702 13.6769 66.1214 13.7554 65.8003C13.6947 65.787 13.5697 65.7708 13.3227 65.7708C11.9221 65.7706 8.63941 66.2603 6.93987 66.6063Z" fill="#241726"/>
<path d="M13.2297 70.2852C12.8496 70.2853 12.1897 69.9811 11.974 69.8765C11.9329 69.8564 11.9014 69.8209 11.8865 69.7777C11.8715 69.7345 11.8742 69.6871 11.8941 69.6459C11.9142 69.6048 11.9498 69.5733 11.993 69.5583C12.0363 69.5434 12.0837 69.5461 12.1249 69.566C12.5782 69.7858 13.048 69.9513 13.2283 69.9441C13.2219 69.6813 12.8495 68.4926 12.4845 67.491C12.4688 67.448 12.4709 67.4005 12.4902 67.359C12.5095 67.3175 12.5445 67.2853 12.5875 67.2696C12.6305 67.2539 12.678 67.256 12.7195 67.2753C12.761 67.2946 12.7932 67.3296 12.8088 67.3726C13.2119 68.4783 13.6655 69.8528 13.5389 70.1217C13.5169 70.1683 13.4711 70.2306 13.3764 70.264C13.3349 70.2788 13.2854 70.2852 13.2297 70.2852ZM37.2735 17.6823C37.0528 17.6823 36.9527 17.6557 36.8906 17.5807C36.8091 17.4823 36.5607 17.1825 38.5963 14.7955C38.6377 14.7469 38.7018 14.7262 38.7641 14.7387C40.2614 15.0624 42.9241 15.6163 44.2373 15.8261C43.0201 15.2702 40.3944 14.2053 38.6282 13.5091C38.606 13.5004 38.5859 13.4872 38.5691 13.4703C38.5524 13.4533 38.5393 13.4331 38.5308 13.4109C38.4202 13.1264 37.8844 11.6821 38.178 11.1922C38.203 11.1502 38.2643 11.0801 38.3941 11.0801C39.0637 11.0801 44.7686 15.2107 45.1685 15.9644L45.1706 15.9678C45.1786 15.982 45.1846 15.9975 45.1885 16.0134V16.0136C45.1912 16.0251 45.1925 16.0368 45.1928 16.0481V16.0511C45.1931 16.0526 45.1931 16.0542 45.1931 16.0556C45.1941 16.0718 45.1931 16.0884 45.1893 16.1051C45.1607 16.2343 45.1172 16.4298 41.6642 17.0665C40.003 17.3732 38.0011 17.6823 37.2735 17.6823ZM37.1875 17.335C37.2098 17.3363 37.2381 17.3372 37.2735 17.3372C38.4584 17.3372 42.5946 16.5905 44.2334 16.174C42.6994 15.9334 39.4283 15.2345 38.7924 15.0978C38.0547 15.9705 37.2904 16.9999 37.1875 17.335ZM38.8258 13.2162C40.7126 13.9605 42.8385 14.8183 44.0895 15.3856C42.5318 14.0884 39.1173 11.5837 38.4487 11.4325C38.363 11.7502 38.601 12.6181 38.8258 13.2162Z" fill="#241726"/>
<path d="M38.0937 15.87L38.0866 15.8698C37.8123 15.8586 36.899 15.8018 36.6678 15.5475C36.6004 15.4732 36.5896 15.3965 36.5923 15.3453C36.6078 15.0486 37.6582 14.0526 38.5369 13.2696C38.571 13.2391 38.6159 13.2234 38.6616 13.226C38.7073 13.2287 38.7501 13.2493 38.7805 13.2835C38.811 13.3176 38.8267 13.3625 38.8241 13.4082C38.8215 13.4539 38.8008 13.4967 38.7667 13.5271C37.9827 14.2259 37.1069 15.0811 36.9542 15.3387C37.0995 15.4209 37.6023 15.5046 38.1008 15.5253C38.1962 15.5292 38.27 15.6095 38.2663 15.7048C38.2643 15.7492 38.2453 15.7912 38.2131 15.822C38.181 15.8528 38.1382 15.87 38.0937 15.87Z" fill="#241726"/>
<path d="M25.5666 27.2304C25.5666 27.2304 26.9106 22.8136 26.0811 23.0495L24.2563 23.5684C24.2563 23.5684 23.5258 20.3692 23.2884 20.7952C23.0509 21.2213 22.4314 24.0872 22.8331 24.8696C23.2349 25.6519 24.7873 25.1208 24.7873 25.1208C24.7873 25.1208 25.6488 27.8346 25.5666 27.2304ZM29.9157 27.0361C29.9157 27.0361 35.0071 23.1171 33.8766 22.7143L31.3895 21.8281C31.3895 21.8281 33.1466 17.6127 32.5332 17.9038C31.9198 18.1948 28.9024 20.9417 28.7256 22.1528C28.5489 23.3639 30.7371 24.0163 30.7371 24.0163C30.7371 24.0163 29.5206 27.7872 29.9157 27.0361ZM60.0548 68.0046C60.0548 68.0046 62.633 73.8897 63.2961 72.8894L64.755 70.6887C64.755 70.6887 68.4235 73.4088 68.2886 72.7434C68.1538 72.078 66.214 68.4881 65.081 68.025C63.948 67.5619 62.7882 69.5287 62.7882 69.5287C62.7882 69.5287 59.421 67.4404 60.0548 68.0046Z" fill="#F3C200"/>
<path d="M11.6211 27.12C11.6211 27.12 11.2806 24.5352 13.7687 25.3715C16.2568 26.2079 15.4459 28.5744 14.4975 27.7646C13.549 26.9548 15.3287 24.208 17.2326 25.431C19.1366 26.654 18.7108 29.0274 17.3603 29.2026C16.0098 29.3777 18.1779 26.4393 19.879 28.254C21.5801 30.0687 17.8658 33.3773 16.3468 32.161C14.8278 30.9446 16.0166 28.9811 16.3809 30.1777C16.7453 31.3743 15.7626 32.5477 13.0684 32.5013C10.3742 32.4549 11.6006 28.3099 12.5423 29.5165C13.4841 30.723 11.9207 32.0848 10.0201 30.6633C8.11966 29.242 10.2876 26.3036 11.6211 27.12Z" fill="white"/>
<path d="M13.222 32.6752L13.0654 32.6739C12.1824 32.6587 11.5607 32.2063 11.342 31.4267C10.8773 31.3679 10.3872 31.1534 9.91676 30.8016C9.17228 30.2447 8.91993 29.3994 9.22489 28.4822C9.53766 27.5427 10.3697 26.8068 11.1198 26.8068C11.2277 26.8068 11.3324 26.8212 11.4329 26.8498C11.4296 26.4901 11.4848 25.8777 11.8497 25.4619C12.2572 24.9974 12.9282 24.9073 13.8236 25.2079C14.169 25.324 14.4714 25.4747 14.725 25.657C15.153 25.2053 15.6993 24.9495 16.2452 24.9495C16.6146 24.9495 16.9781 25.0627 17.326 25.286C18.1487 25.8145 18.648 26.6274 18.6892 27.4882C19.1721 27.5021 19.6144 27.7198 20.0049 28.1363C20.5343 28.7011 20.632 29.4602 20.2795 30.2738C19.7437 31.5108 18.2804 32.5959 17.1481 32.5959C16.7936 32.5961 16.4876 32.4951 16.2388 32.2959C16.1229 32.2034 16.0155 32.1006 15.918 31.9888C15.3232 32.4381 14.3968 32.6752 13.222 32.6752ZM11.7075 31.44C11.8616 31.8756 12.2265 32.3141 13.0713 32.3287L13.2219 32.33C14.5763 32.33 15.316 32.0123 15.7133 31.7106C15.3338 31.0967 15.3628 30.4258 15.5741 30.0101C15.6958 29.7702 15.873 29.6325 16.0598 29.6325C16.1848 29.6325 16.4146 29.6967 16.5457 30.1274C16.7284 30.7267 16.5928 31.3127 16.1753 31.7582C16.2598 31.856 16.3532 31.9457 16.4543 32.0262C16.6404 32.1749 16.8736 32.2507 17.1479 32.2505C18.1417 32.2505 19.4834 31.2427 19.963 30.1363C20.171 29.6558 20.3036 28.9595 19.7527 28.3719C19.4285 28.0259 19.0679 27.8448 18.6807 27.8331C18.5995 28.6594 18.0822 29.2829 17.3822 29.3736C16.9246 29.4317 16.7739 29.1941 16.7652 28.9734C16.7453 28.4865 17.4473 27.6682 18.3448 27.5129C18.3121 26.7608 17.87 26.0452 17.1393 25.5762C16.4208 25.1143 15.5971 25.2513 14.9918 25.877C15.5796 26.4365 15.6891 27.1246 15.525 27.5839C15.4108 27.9042 15.1654 28.1032 14.8853 28.1032C14.7175 28.1032 14.5447 28.0314 14.3852 27.8956C13.8619 27.4486 14.031 26.5758 14.5039 25.9228C14.2822 25.7671 14.017 25.6369 13.7136 25.5349C12.9617 25.2818 12.4238 25.3311 12.1097 25.6882C11.679 26.1782 11.7909 27.0883 11.7923 27.0974C11.8007 27.1633 11.7708 27.2283 11.7149 27.2646C11.6876 27.2824 11.6559 27.2921 11.6234 27.2925C11.5908 27.2929 11.5589 27.284 11.5312 27.2669C11.4075 27.1908 11.2649 27.1508 11.1197 27.1515C10.5195 27.1515 9.81617 27.7972 9.55225 28.5908C9.43157 28.9536 9.24556 29.8685 10.1234 30.525C10.5069 30.8119 10.8996 30.9964 11.272 31.0664C11.1956 30.3968 11.4004 29.7445 11.6704 29.4092C11.821 29.2224 11.9966 29.1237 12.1782 29.1237C12.3043 29.1237 12.4933 29.1734 12.6783 29.4102C13.0129 29.8389 13.0888 30.3222 12.8866 30.7363C12.6874 31.1453 12.2413 31.4088 11.7075 31.44ZM16.0599 29.9778C16.0283 29.9778 15.9518 30.0289 15.882 30.1667C15.7274 30.4708 15.7021 30.9867 15.9716 31.4689C16.2685 31.1207 16.3555 30.687 16.2156 30.2281C16.1601 30.0456 16.0906 29.9778 16.0599 29.9778ZM12.1782 29.469C12.1058 29.469 12.0206 29.5247 11.9389 29.6258C11.7091 29.9114 11.5403 30.5218 11.6241 31.0979C12.0616 31.0908 12.4248 30.8957 12.5764 30.5851C12.7186 30.2941 12.6564 29.9432 12.4059 29.6227C12.3515 29.5526 12.2676 29.469 12.1782 29.469ZM18.3293 27.8675C17.6058 28.028 17.0992 28.6925 17.1101 28.9595C17.1114 28.9926 17.1131 29.0376 17.2506 29.0376C17.2776 29.0376 17.3065 29.0356 17.3379 29.0315C17.8559 28.9643 18.2441 28.4976 18.3293 27.8675ZM14.7703 26.1428C14.3625 26.7111 14.2844 27.3558 14.6095 27.6333C14.8555 27.8427 15.0934 27.7661 15.2004 27.468C15.3243 27.1204 15.2319 26.592 14.7703 26.1428Z" fill="#241726"/>
<path d="M48.6271 70.7447C48.6271 70.7447 48.2866 68.1599 50.7747 68.9962C53.2628 69.8326 52.452 72.1991 51.5036 71.3893C50.5551 70.5795 52.3348 67.8327 54.2387 69.0557C56.1426 70.2787 55.7168 72.6521 54.3663 72.8273C53.0158 73.0024 55.184 70.064 56.8851 71.8787C58.5862 73.6934 54.8719 77.002 53.3529 75.7857C51.8339 74.5691 53.0226 72.6058 53.387 73.8024C53.7514 74.999 52.7687 76.1724 50.0745 76.126C47.3803 76.0796 48.6066 71.9346 49.5484 73.1412C50.4902 74.3477 48.9268 75.7095 47.0262 74.288C45.1256 72.8667 47.2937 69.9282 48.6271 70.7447Z" fill="white"/>
<path d="M50.2274 76.2999L50.0713 76.2986C49.1884 76.2832 48.5666 75.8308 48.3479 75.0512C47.8832 74.9924 47.3931 74.7779 46.9227 74.4261C46.1782 73.8693 45.9259 73.0239 46.2308 72.1067C46.5436 71.1673 47.3757 70.4313 48.1258 70.4313C48.2336 70.4313 48.3384 70.4458 48.4388 70.4744C48.4355 70.1146 48.4907 69.5024 48.8557 69.0864C49.2631 68.6218 49.9344 68.5317 50.8295 68.8325C51.1747 68.9486 51.4773 69.0993 51.731 69.2816C52.1589 68.8299 52.7052 68.5741 53.2511 68.5741C53.6206 68.5741 53.9842 68.6872 54.3319 68.9105C55.1546 69.4391 55.654 70.2519 55.6952 71.1129C56.178 71.1265 56.6203 71.3443 57.0108 71.7608C57.5402 72.3258 57.6379 73.0849 57.2854 73.8985C56.7497 75.1355 55.2863 76.2205 54.154 76.2205C53.7995 76.2207 53.4935 76.1196 53.2448 75.9205C53.1287 75.828 53.0213 75.7252 52.9239 75.6133C52.3293 76.063 51.4024 76.2999 50.2274 76.2999ZM48.7136 75.0647C48.8676 75.5003 49.2326 75.9391 50.0774 75.9536L50.2274 75.9549C51.5825 75.9549 52.3222 75.637 52.7196 75.3353C52.34 74.7214 52.3694 74.0505 52.5804 73.6348C52.7024 73.3949 52.8793 73.2572 53.066 73.2572C53.1913 73.2572 53.4208 73.3215 53.5519 73.7521C53.7346 74.3513 53.599 74.9371 53.1812 75.3829C53.266 75.4805 53.3595 75.5702 53.4606 75.6509C53.6466 75.7996 53.8798 75.8754 54.1542 75.8752C55.148 75.8752 56.4897 74.8675 56.9692 73.7612C57.1772 73.2804 57.3099 72.5841 56.7589 71.9966C56.4347 71.6506 56.0741 71.4695 55.6869 71.4578C55.6057 72.2841 55.0884 72.9076 54.3885 72.9983C54.3447 73.0041 54.3007 73.0071 54.2566 73.0073C53.9109 73.0073 53.7791 72.796 53.771 72.5981C53.7515 72.1113 54.4531 71.2929 55.3509 71.1376C55.3182 70.3855 54.8761 69.6699 54.1453 69.2009C53.4272 68.7387 52.6032 68.8759 51.9979 69.5017C52.5857 70.0612 52.6948 70.7493 52.5311 71.2086C52.4169 71.5289 52.1715 71.7279 51.8914 71.728C51.7231 71.728 51.5507 71.6562 51.3916 71.5205C50.8678 71.0735 51.0371 70.2006 51.5098 69.5476C51.2881 69.3918 51.0229 69.2615 50.7195 69.1596C49.968 68.9065 49.4299 68.9558 49.1157 69.3131C48.685 69.8029 48.7968 70.713 48.7981 70.7221C48.8065 70.788 48.7766 70.853 48.7207 70.8893C48.6934 70.907 48.6617 70.9167 48.6291 70.9171C48.5966 70.9175 48.5647 70.9087 48.537 70.8916C48.4133 70.8155 48.2707 70.7755 48.1255 70.7762C47.5252 70.7762 46.822 71.4219 46.558 72.2155C46.4374 72.5783 46.2513 73.4932 47.1292 74.1497C47.5128 74.4366 47.9054 74.6211 48.2778 74.6911C48.2014 74.0215 48.4062 73.3692 48.6761 73.034C48.8267 72.8471 49.0024 72.7484 49.1843 72.7484C49.3101 72.7484 49.4991 72.7982 49.6841 73.0349C50.0187 73.4636 50.0946 73.9469 49.8927 74.361C49.6935 74.7698 49.2473 75.0335 48.7136 75.0647ZM53.066 73.6023C53.0343 73.6023 52.9579 73.6538 52.8881 73.7912C52.7337 74.0953 52.7081 74.6111 52.9777 75.0934C53.2746 74.7451 53.3616 74.3114 53.2216 73.8526C53.1664 73.6702 53.0966 73.6023 53.066 73.6023ZM49.1846 73.0936C49.1118 73.0936 49.0265 73.1494 48.945 73.2507C48.7152 73.5361 48.5464 74.1465 48.6302 74.7226C49.0677 74.7155 49.4313 74.5205 49.5825 74.2098C49.7247 73.9188 49.6624 73.5679 49.4119 73.2473C49.3576 73.1773 49.2736 73.0936 49.1846 73.0936ZM55.3354 71.4922C54.6119 71.6529 54.1053 72.3173 54.1157 72.5844C54.117 72.6172 54.119 72.6623 54.2566 72.6623C54.2832 72.6623 54.3126 72.6603 54.3439 72.6562C54.8619 72.589 55.2501 72.1222 55.3354 71.4922ZM51.7762 69.7673C51.3685 70.3356 51.2906 70.9804 51.6155 71.258C51.8612 71.4679 52.0994 71.3909 52.2059 71.0927C52.3303 70.7452 52.238 70.2167 51.7762 69.7673ZM4.18697 49.658H4.18192C3.52401 49.6552 2.99127 49.1177 2.99401 48.4595C2.99676 47.8044 3.53181 47.2716 4.18697 47.2716C4.34461 47.2713 4.50074 47.3024 4.64624 47.363C4.79175 47.4237 4.92374 47.5127 5.03451 47.6249C5.14513 47.7358 5.23264 47.8677 5.29199 48.0127C5.35133 48.1577 5.38132 48.3131 5.38022 48.4698C5.37733 49.1249 4.8417 49.658 4.18697 49.658ZM4.19073 47.6168C3.7213 47.6168 3.34118 47.9956 3.33915 48.461C3.33842 48.6858 3.42688 48.9018 3.58514 49.0615C3.74339 49.2212 3.95852 49.3116 4.18336 49.313L4.18712 49.4855V49.313C4.65251 49.313 5.03306 48.9342 5.03537 48.4685C5.03619 48.3571 5.01486 48.2466 4.97263 48.1435C4.9304 48.0404 4.86811 47.9468 4.78938 47.868C4.71117 47.7886 4.61799 47.7255 4.51523 47.6824C4.41247 47.6392 4.30217 47.6169 4.19073 47.6168ZM73.0214 35.5364H73.0164C72.3585 35.5337 71.8257 34.9961 71.8285 34.338C71.8312 33.6828 72.3663 33.15 73.0214 33.15C73.1791 33.1498 73.3352 33.1808 73.4807 33.2415C73.6262 33.3021 73.7582 33.3911 73.8689 33.5033C73.9796 33.6143 74.0671 33.7461 74.1264 33.8911C74.1858 34.0362 74.2158 34.1915 74.2147 34.3482C74.2118 35.0032 73.6763 35.5364 73.0214 35.5364ZM73.0252 33.4952C72.5557 33.4952 72.1756 33.874 72.1736 34.3394C72.1729 34.5642 72.2613 34.7802 72.4196 34.9399C72.5778 35.0996 72.793 35.1901 73.0178 35.1914L73.0216 35.364V35.1914C73.487 35.1914 73.8675 34.8126 73.8698 34.3469C73.8706 34.2355 73.8493 34.1251 73.8071 34.022C73.7648 33.9189 73.7026 33.8252 73.6238 33.7464C73.5456 33.667 73.4525 33.6038 73.3497 33.5607C73.2469 33.5176 73.1366 33.4953 73.0252 33.4952ZM73.1636 69.5786H73.1586C72.5007 69.5758 71.9679 69.0383 71.9707 68.3801C71.9734 67.725 72.5085 67.1922 73.1636 67.1922C73.3213 67.1919 73.4774 67.223 73.6229 67.2836C73.7684 67.3443 73.9004 67.4333 74.0112 67.5454C74.1218 67.6564 74.2093 67.7883 74.2687 67.9333C74.328 68.0783 74.358 68.2337 74.3569 68.3904C74.3539 69.0454 73.8184 69.5786 73.1636 69.5786ZM73.1673 67.5374C72.6978 67.5374 72.3177 67.9162 72.3157 68.3816C72.3149 68.6064 72.4034 68.8224 72.5617 68.9821C72.7199 69.1418 72.935 69.2322 73.1599 69.2336L73.1636 69.4061V69.2336C73.629 69.2336 74.0096 68.8548 74.0119 68.3891C74.0127 68.2777 73.9914 68.1672 73.9492 68.0641C73.9069 67.961 73.8446 67.8674 73.7659 67.7886C73.6877 67.7091 73.5945 67.6461 73.4918 67.6029C73.389 67.5598 73.2787 67.5375 73.1673 67.5374ZM41.7076 25.6522H41.7066C41.6839 25.6521 41.6615 25.6475 41.6406 25.6387C41.6197 25.6299 41.6007 25.6171 41.5848 25.601C41.5689 25.5849 41.5563 25.5658 41.5477 25.5448C41.5392 25.5238 41.5348 25.5013 41.535 25.4786L41.5522 22.5747C41.5525 22.5291 41.5708 22.4855 41.6031 22.4534C41.6355 22.4212 41.6792 22.4032 41.7248 22.4031H41.7258C41.8212 22.4039 41.8979 22.4813 41.8973 22.5767L41.8801 25.4806C41.8798 25.5262 41.8615 25.5698 41.8292 25.602C41.7969 25.6341 41.7532 25.6522 41.7076 25.6522Z" fill="#241726"/>
<path d="M40.5369 25.0183C40.5001 25.0183 40.4643 25.0066 40.4347 24.9849C40.405 24.9632 40.3831 24.9325 40.3721 24.8975C40.3611 24.8624 40.3615 24.8247 40.3734 24.79C40.3853 24.7552 40.408 24.7251 40.4381 24.7041L42.8364 23.0322C42.8549 23.0192 42.8759 23.01 42.898 23.0051C42.9202 23.0003 42.9431 22.9998 42.9654 23.0038C42.9877 23.0077 43.009 23.0161 43.0281 23.0283C43.0472 23.0405 43.0637 23.0563 43.0767 23.0749C43.0897 23.0935 43.0989 23.1145 43.1037 23.1366C43.1086 23.1588 43.1091 23.1817 43.1051 23.204C43.1011 23.2263 43.0928 23.2476 43.0806 23.2667C43.0684 23.2858 43.0525 23.3023 43.0339 23.3153L40.6357 24.9872C40.6067 25.0075 40.5722 25.0183 40.5369 25.0183Z" fill="#241726"/>
<path d="M42.6424 25.1403C42.5966 25.1403 42.5511 25.1221 42.5171 25.0864L40.7039 23.1705C40.6746 23.1369 40.6594 23.0932 40.6615 23.0486C40.6636 23.0041 40.6829 22.9621 40.7153 22.9314C40.7478 22.9007 40.7908 22.8838 40.8354 22.8842C40.88 22.8845 40.9228 22.9021 40.9547 22.9333L42.7678 24.8492C42.7992 24.8825 42.8161 24.9269 42.8149 24.9726C42.8136 25.0183 42.7942 25.0617 42.7611 25.0932C42.729 25.1235 42.6865 25.1404 42.6424 25.1403Z" fill="#241726"/>
<path d="M40.2089 24.1695C40.164 24.1684 40.1213 24.1499 40.0898 24.1179C40.0584 24.0858 40.0406 24.0428 40.0404 23.9978C40.0402 23.9529 40.0575 23.9097 40.0886 23.8773C40.1198 23.845 40.1623 23.826 40.2072 23.8245L43.0003 23.7979H43.0013C43.0967 23.7979 43.1736 23.8741 43.1746 23.9687C43.1748 23.9914 43.1706 24.0139 43.1621 24.0349C43.1537 24.0559 43.1412 24.0751 43.1253 24.0913C43.1094 24.1075 43.0905 24.1203 43.0696 24.1292C43.0488 24.1381 43.0264 24.1427 43.0037 24.1429L40.2107 24.1695H40.2089ZM28.8456 70.4555H28.8446C28.8219 70.4554 28.7995 70.4508 28.7786 70.442C28.7577 70.4332 28.7388 70.4203 28.7229 70.4042C28.7069 70.3881 28.6943 70.369 28.6858 70.348C28.6772 70.327 28.6729 70.3046 28.673 70.2819L28.6902 67.378C28.6905 67.3324 28.7088 67.2888 28.7412 67.2567C28.7735 67.2245 28.8172 67.2065 28.8628 67.2064H28.8638C28.9592 67.2071 29.0359 67.2846 29.0354 67.38L29.0182 70.2839C29.0178 70.3295 28.9995 70.3731 28.9672 70.4052C28.9349 70.4373 28.8912 70.4554 28.8456 70.4555Z" fill="#241726"/>
<path d="M27.6749 69.8216C27.6381 69.8216 27.6023 69.8099 27.5727 69.7882C27.5431 69.7664 27.5211 69.7358 27.5101 69.7007C27.4991 69.6657 27.4996 69.628 27.5114 69.5932C27.5233 69.5585 27.546 69.5284 27.5762 69.5074L29.9744 67.8354C29.993 67.8225 30.0139 67.8133 30.0361 67.8084C30.0582 67.8035 30.0811 67.8031 30.1034 67.8071C30.1257 67.811 30.1471 67.8194 30.1662 67.8316C30.1853 67.8438 30.2018 67.8596 30.2147 67.8782C30.2277 67.8968 30.2369 67.9178 30.2418 67.9399C30.2466 67.9621 30.2471 67.9849 30.2431 68.0073C30.2392 68.0296 30.2308 68.0509 30.2186 68.07C30.2064 68.0891 30.1905 68.1056 30.172 68.1186L27.7737 69.7905C27.7448 69.8108 27.7102 69.8216 27.6749 69.8216Z" fill="#241726"/>
<path d="M29.7804 69.9436C29.7346 69.9436 29.6891 69.9254 29.6551 69.8897L27.842 67.9738C27.8126 67.9402 27.7974 67.8965 27.7995 67.8519C27.8017 67.8074 27.821 67.7653 27.8534 67.7347C27.8858 67.704 27.9288 67.6871 27.9734 67.6874C28.0181 67.6878 28.0608 67.7054 28.0927 67.7366L29.9059 69.6525C29.929 69.677 29.9445 69.7078 29.9504 69.741C29.9562 69.7742 29.9523 69.8084 29.9389 69.8393C29.9256 69.8703 29.9034 69.8966 29.8753 69.9152C29.8471 69.9337 29.8141 69.9436 29.7804 69.9436Z" fill="#241726"/>
<path d="M27.3469 68.9726C27.3012 68.9728 27.2572 68.9549 27.2247 68.9227C27.1921 68.8905 27.1737 68.8467 27.1735 68.8009C27.1733 68.7551 27.1912 68.7111 27.2234 68.6786C27.2556 68.6461 27.2994 68.6277 27.3452 68.6275L30.1383 68.6009H30.1393C30.1839 68.6023 30.2261 68.621 30.2573 68.653C30.2884 68.6849 30.306 68.7277 30.3063 68.7723C30.3066 68.8169 30.2896 68.8598 30.259 68.8922C30.2283 68.9246 30.1863 68.9439 30.1417 68.946L27.3487 68.9726H27.3469ZM9.01417 45.2676C8.88683 45.2676 8.76586 45.2676 8.42939 43.9287C7.29497 43.7101 7.19567 43.577 7.16229 43.5324C7.12991 43.4893 7.11618 43.4102 7.13092 43.3585C7.15145 43.2859 7.199 43.1174 8.49544 42.5948C8.96112 41.3809 9.11895 41.3809 9.22402 41.3809C9.27866 41.3809 9.35338 41.4199 9.38619 41.4638C9.46944 41.5757 9.54488 41.8662 9.65921 42.3314C9.6952 42.477 9.73841 42.6527 9.76342 42.7301C9.83149 42.7604 9.98151 42.8142 10.1058 42.8588C10.7727 43.0979 10.9447 43.1793 10.976 43.3385C10.9875 43.3982 10.9571 43.4852 10.912 43.5258C10.7769 43.647 10.1325 43.8865 9.79449 44.0067C9.24556 45.2559 9.12791 45.2618 9.02414 45.2673C9.02082 45.2675 9.01749 45.2676 9.01417 45.2676ZM7.60108 43.3836C7.82785 43.4488 8.24136 43.5428 8.60196 43.61C8.6683 43.6224 8.72163 43.6727 8.73782 43.7383C8.83018 44.1121 8.95086 44.538 9.03743 44.7808C9.16318 44.5546 9.35352 44.154 9.50817 43.8002C9.5274 43.7562 9.56382 43.7221 9.60891 43.7064C9.91691 43.5978 10.2651 43.4647 10.4817 43.3699C10.3301 43.3059 10.1232 43.2317 9.98903 43.1837C9.60891 43.0474 9.53708 43.0178 9.48823 42.9522C9.44545 42.8945 9.41885 42.7987 9.32404 42.4138C9.28834 42.2691 9.23371 42.047 9.18515 41.8806C9.07227 42.0964 8.91415 42.4634 8.79115 42.788C8.78263 42.8104 8.76958 42.8307 8.75281 42.8478C8.73605 42.8648 8.71594 42.8782 8.69374 42.8872C8.29353 43.0469 7.83927 43.2504 7.60108 43.3836ZM70.901 65.5132C70.7737 65.5132 70.653 65.5132 70.3167 64.1743C69.1819 63.9558 69.0825 63.8225 69.0491 63.7777C69.0167 63.7348 69.003 63.6557 69.0178 63.6041C69.0383 63.5314 69.0858 63.363 70.3823 62.8403C70.848 61.6264 71.0058 61.6264 71.1109 61.6264C71.1651 61.6264 71.2402 61.6654 71.273 61.709C71.3563 61.821 71.4317 62.1116 71.546 62.5768C71.582 62.7223 71.6252 62.8981 71.6501 62.9757C71.7182 63.0061 71.8685 63.06 71.9932 63.1046C72.6598 63.3435 72.8316 63.4248 72.863 63.584C72.8744 63.6437 72.8441 63.7307 72.799 63.7714C72.6636 63.8926 72.0191 64.132 71.6812 64.2522C71.1322 65.5014 71.0149 65.5073 70.9111 65.513C70.9081 65.5132 70.904 65.5132 70.901 65.5132ZM69.4879 63.6291C69.7147 63.6945 70.1282 63.7884 70.4892 63.8556C70.5556 63.868 70.6089 63.9183 70.6251 63.984C70.7174 64.3576 70.8377 64.7832 70.9247 65.0262C71.0504 64.7998 71.2408 64.3995 71.3951 64.0457C71.4144 64.0017 71.4508 63.9676 71.4959 63.9519C71.8043 63.8435 72.1524 63.7102 72.3691 63.6154C72.2175 63.5515 72.0109 63.4774 71.8772 63.4295C71.496 63.2928 71.4242 63.2633 71.3754 63.1976C71.3326 63.14 71.306 63.0442 71.2112 62.6593C71.1755 62.5147 71.1208 62.2925 71.0723 62.1263C70.9594 62.3419 70.8013 62.7088 70.6783 63.0335C70.6698 63.0559 70.6567 63.0762 70.6399 63.0933C70.6232 63.1103 70.6031 63.1238 70.5809 63.1327C70.1805 63.2924 69.7263 63.496 69.4879 63.6291Z" fill="#241726"/>
<path d="M18.9836 40.0731C18.9836 40.0731 19.4438 34.8967 19.9039 34.6666C20.3641 34.4365 23.9299 35.0117 23.9299 35.0117L23.6998 40.0731H18.9836Z" fill="white"/>
<path d="M23.6998 40.2455H18.9838C18.9598 40.2456 18.9361 40.2406 18.9142 40.2309C18.8923 40.2213 18.8726 40.2072 18.8564 40.1895C18.8403 40.1718 18.828 40.151 18.8203 40.1283C18.8126 40.1056 18.8098 40.0815 18.8119 40.0576C18.9868 38.0887 19.3515 34.7497 19.8267 34.512C19.9271 34.4618 20.0922 34.4396 20.3619 34.4396C21.4548 34.4396 23.8559 34.8248 23.9577 34.8411C23.9994 34.8479 24.0373 34.8698 24.0639 34.9027C24.0906 34.9355 24.1042 34.977 24.1022 35.0193L23.872 40.0808C23.8701 40.1251 23.8512 40.1671 23.8191 40.1978C23.787 40.2285 23.7443 40.2456 23.6998 40.2455ZM19.1725 39.9005H23.5351L23.7507 35.158C23.1967 35.0723 21.2727 34.7849 20.3618 34.7849C20.0618 34.7849 19.9883 34.8172 19.9809 34.8208C19.7475 35.0436 19.3889 37.5458 19.1725 39.9005Z" fill="#241726"/>
<path d="M25.7613 38.3911C25.7613 38.3911 28.5432 30.9383 30.3136 30.6517C32.0839 30.3651 51.305 31.2251 52.3167 31.7983C53.3283 32.3716 54.593 39.251 54.593 39.251C54.593 39.251 63.1918 39.8244 64.7093 41.2576C66.2267 42.6907 65.7208 64.1892 64.2034 64.7624C62.686 65.3356 14.8862 64.7624 14.3803 63.0425C13.8745 61.3225 13.8745 40.9708 16.4036 39.8242C18.9328 38.6777 25.7613 38.3911 25.7613 38.3911Z" fill="white"/>
<path d="M55.85 65.1499C47.9215 65.1499 37.7594 64.96 29.9608 64.6662C14.5066 64.0837 14.3021 63.3882 14.2148 63.0912C13.9486 62.1857 13.835 56.5254 14.0817 51.2106C14.3095 46.3068 14.8847 40.3236 16.3327 39.6673C18.7132 38.5881 24.7056 38.268 25.64 38.2239C26.0738 37.0759 28.5348 30.765 30.286 30.4815C30.5284 30.4422 31.0803 30.4224 31.9266 30.4224C36.8291 30.4224 51.4649 31.1173 52.4017 31.6483C53.4051 32.2169 54.5242 37.9461 54.7382 39.0883C55.8777 39.1698 63.3703 39.7558 64.8278 41.1323C66.2513 42.477 65.9572 58.4092 64.9852 63.2583C64.7172 64.5945 64.4595 64.8503 64.2647 64.924C63.77 65.1107 59.4158 65.1499 55.85 65.1499ZM31.9266 30.7674C30.8956 30.7674 30.4953 30.7971 30.3413 30.8221C28.9705 31.044 26.6872 36.4047 25.9232 38.4515C25.8989 38.5165 25.8379 38.5606 25.7685 38.5635C25.7007 38.5664 18.9448 38.862 16.4749 39.9817C14.1226 41.0482 13.9743 61.0494 14.5458 62.9938C15.3341 64.0775 39.9298 64.8049 55.8501 64.8049C61.5665 64.8049 63.882 64.6995 64.1429 64.601C64.1674 64.5917 64.3899 64.4733 64.647 63.1902C65.6422 58.2244 65.8022 42.527 64.5908 41.3829C63.1356 40.0084 54.667 39.429 54.5817 39.4232C54.5434 39.4206 54.507 39.4054 54.4783 39.3798C54.4496 39.3543 54.4302 39.3199 54.4233 39.2821C53.94 36.653 52.9179 32.337 52.2321 31.9483C51.4261 31.4917 37.071 30.7674 31.9266 30.7674Z" fill="#241726"/>
<path d="M56.3534 41.7362C56.3534 41.7362 61.0651 41.2831 61.2463 41.6456C61.4276 42.0081 61.3369 43.639 61.3369 43.639L56.3534 43.5484V41.7362Z" fill="white"/>
<path d="M61.3371 43.8115H61.334L56.3503 43.721C56.3051 43.7201 56.262 43.7016 56.2303 43.6693C56.1986 43.6371 56.1808 43.5936 56.1808 43.5484V41.7361C56.1808 41.6471 56.2481 41.5728 56.3369 41.5644C56.3612 41.5621 58.7657 41.3325 60.1973 41.3325C61.1096 41.3325 61.3242 41.4154 61.4008 41.5683C61.5926 41.9524 61.5248 43.3685 61.5094 43.6486C61.5069 43.6926 61.4877 43.734 61.4556 43.7643C61.4236 43.7946 61.3812 43.8115 61.3371 43.8115ZM56.5261 43.379L61.173 43.4634C61.1986 42.8642 61.199 42.0024 61.1032 41.7487C61.0496 41.7272 60.8552 41.6776 60.1973 41.6776C58.9925 41.6776 57.0814 41.8431 56.5259 41.8934V43.379H56.5261Z" fill="#241726"/>
<path d="M65.3415 44.6743L15.0726 44.0992C14.2675 44.9044 13.9223 59.0533 13.9223 59.0533C13.9223 59.0533 51.4227 60.5487 65.5716 60.4337C65.5716 60.4337 66.2617 46.9749 65.3415 44.6743Z" fill="#B3739B"/>
<path d="M40.0507 62.098C46.9586 62.098 52.5586 56.498 52.5586 49.5901C52.5586 42.6822 46.9586 37.0822 40.0507 37.0822C33.1428 37.0822 27.5428 42.6822 27.5428 49.5901C27.5428 56.498 33.1428 62.098 40.0507 62.098Z" fill="white"/>
<path d="M40.0508 62.2704C33.0585 62.2704 27.3702 56.5821 27.3702 49.5899C27.3702 42.5978 33.0585 36.9095 40.0508 36.9095C47.0427 36.9095 52.731 42.5978 52.731 49.5899C52.731 56.5821 47.0427 62.2704 40.0508 62.2704ZM40.0508 37.2546C33.249 37.2546 27.7154 42.7883 27.7154 49.5899C27.7154 56.3916 33.249 61.9252 40.0508 61.9252C46.8523 61.9252 52.386 56.3916 52.386 49.5899C52.386 42.7883 46.8523 37.2546 40.0508 37.2546Z" fill="#241726"/>
<path d="M40.0507 59.8584C45.6096 59.8584 50.116 55.3521 50.116 49.7931C50.116 44.2342 45.6096 39.7278 40.0507 39.7278C34.4918 39.7278 29.9854 44.2342 29.9854 49.7931C29.9854 55.3521 34.4918 59.8584 40.0507 59.8584Z" fill="#E17B8D"/>
<path d="M43.2487 51.2804C45.2295 51.2804 46.8353 49.6746 46.8353 47.6938C46.8353 45.713 45.2295 44.1073 43.2487 44.1073C41.2679 44.1073 39.6622 45.713 39.6622 47.6938C39.6622 49.6746 41.2679 51.2804 43.2487 51.2804Z" fill="white"/>
<path d="M43.2486 51.453C41.176 51.453 39.4896 49.7666 39.4896 47.6939C39.4896 45.6211 41.176 43.9349 43.2486 43.9349C45.3214 43.9349 47.0078 45.6211 47.0078 47.6939C47.008 49.7666 45.3216 51.453 43.2486 51.453ZM43.2486 44.28C41.366 44.28 39.8347 45.8116 39.8347 47.6939C39.8347 49.5764 41.366 51.108 43.2486 51.108C45.1311 51.108 46.6628 49.5764 46.6628 47.6939C46.6628 45.8115 45.1311 44.28 43.2486 44.28ZM43.6005 35.6443L43.5947 35.6441L36.4627 35.4142C36.4386 35.4135 36.4149 35.4077 36.3931 35.3973C36.3714 35.3868 36.3521 35.3719 36.3365 35.3535C36.3209 35.3351 36.3093 35.3136 36.3025 35.2905C36.2958 35.2673 36.2939 35.243 36.2972 35.2191L36.5274 33.4937C36.533 33.4522 36.5534 33.4141 36.5849 33.3866C36.6164 33.359 36.6568 33.3439 36.6987 33.3439C37.76 33.3439 43.0712 33.3499 43.425 33.4677C43.8145 33.5977 43.8291 34.6358 43.7728 35.4834C43.7698 35.5271 43.7503 35.568 43.7183 35.5978C43.6864 35.6277 43.6442 35.6443 43.6005 35.6443ZM36.6646 35.0754L43.4377 35.2938C43.4721 34.5651 43.4142 33.8836 43.3039 33.7889C43.0354 33.7193 39.2656 33.6901 36.8496 33.6888L36.6646 35.0754ZM32.5574 53.0142C32.4881 53.0142 32.4226 52.9723 32.3963 52.9036C31.1806 49.7432 32.0175 47.5063 32.9331 46.1864C33.9238 44.7589 35.185 44.0893 35.2382 44.0612C35.2788 44.04 35.3261 44.0357 35.3698 44.0494C35.4135 44.063 35.4499 44.0935 35.4712 44.1341C35.4924 44.1746 35.4967 44.2219 35.483 44.2656C35.4694 44.3093 35.4389 44.3458 35.3983 44.367C35.1972 44.4726 30.5016 47.0162 32.7184 52.7796C32.7285 52.8058 32.732 52.834 32.7287 52.8618C32.7254 52.8896 32.7154 52.9161 32.6996 52.9392C32.6837 52.9623 32.6625 52.9812 32.6378 52.9943C32.613 53.0073 32.5854 53.0142 32.5574 53.0142ZM35.8935 57.6154C35.8814 57.6154 35.8685 57.6141 35.8561 57.6113C34.7793 57.372 33.1655 54.7265 32.9848 54.4257C32.9731 54.4063 32.9654 54.3847 32.9621 54.3623C32.9587 54.3399 32.9598 54.3171 32.9653 54.2951C32.9708 54.2731 32.9806 54.2524 32.9941 54.2342C33.0076 54.216 33.0245 54.2006 33.0439 54.189C33.0634 54.1773 33.0849 54.1696 33.1073 54.1662C33.1297 54.1629 33.1526 54.164 33.1745 54.1695C33.1965 54.175 33.2172 54.1847 33.2354 54.1982C33.2536 54.2117 33.269 54.2286 33.2807 54.2481C33.7501 55.0303 35.1412 57.0988 35.9309 57.2743C35.9722 57.2837 36.0086 57.308 36.0332 57.3425C36.0578 57.377 36.0688 57.4194 36.0642 57.4615C36.0596 57.5036 36.0396 57.5426 36.0081 57.5709C35.9767 57.5993 35.9359 57.6151 35.8935 57.6154Z" fill="#241726"/>
<path d="M69.4886 14.271C69.4886 14.271 52.9307 11.2018 51.2299 13.1015C49.529 15.0012 47.2586 27.597 48.8295 29.2384C50.4004 30.8798 61.0671 30.0895 60.9347 31.7631C60.8023 33.4366 58.4576 34.2016 59.7134 34.7677C60.9691 35.3339 65.3162 34.7606 68.2431 33.5915C71.17 32.4224 76.0641 15.4579 69.4886 14.271Z" fill="#B3739B"/>
<path d="M60.2954 29.452C64.4082 29.452 67.7423 26.1179 67.7423 22.0052C67.7423 17.8924 64.4082 14.5583 60.2954 14.5583C56.1827 14.5583 52.8486 17.8924 52.8486 22.0052C52.8486 26.1179 56.1827 29.452 60.2954 29.452Z" fill="#F3C200"/>
<path d="M55.5467 21.5842C55.501 21.5842 55.4571 21.5661 55.4247 21.5337C55.3923 21.5013 55.3742 21.4574 55.3742 21.4117C55.3742 21.3659 55.3923 21.322 55.4247 21.2897C55.4571 21.2573 55.501 21.2391 55.5467 21.2391C55.5703 21.2391 57.7703 21.2385 58.4362 21.1955C58.2745 20.8351 57.4083 19.7955 56.6079 18.9392C56.5792 18.9053 56.5647 18.8618 56.5673 18.8175C56.5698 18.7732 56.5893 18.7317 56.6217 18.7014C56.6541 18.6711 56.6969 18.6544 56.7413 18.6549C56.7856 18.6553 56.8281 18.6727 56.8599 18.7036C58.248 20.1888 58.8981 21.0876 58.7916 21.3753C58.7599 21.4608 58.6838 21.5183 58.5874 21.529C58.0981 21.5835 55.6505 21.5842 55.5467 21.5842Z" fill="#241726"/>
<path d="M61.7525 23.4622C61.7525 23.4622 62.2921 26.8078 59.7559 26.592C56.8936 26.3485 58.7306 22.7606 58.7306 22.7606C58.7306 22.7606 59.8098 24.7034 61.7525 23.4622Z" fill="#E17B8D"/>
<path d="M60.4592 24.1431C60.3972 24.1431 60.3355 24.139 60.2739 24.1309C59.059 23.9721 58.3826 22.3016 58.3544 22.2308C58.3375 22.1882 58.3382 22.1407 58.3564 22.0987C58.3745 22.0566 58.4086 22.0235 58.4512 22.0067C58.4937 21.9898 58.5412 21.9905 58.5832 22.0086C58.6253 22.0268 58.6584 22.0609 58.6753 22.1034C58.6813 22.1189 59.3054 23.657 60.3194 23.789C60.8954 23.8621 61.5149 23.4655 62.1538 22.6041C62.1671 22.5853 62.184 22.5694 62.2035 22.5573C62.2231 22.5452 62.2448 22.5371 62.2675 22.5335C62.2902 22.5298 62.3134 22.5308 62.3357 22.5363C62.358 22.5418 62.379 22.5516 62.3975 22.5653C62.4159 22.579 62.4315 22.5963 62.4432 22.616C62.4548 22.6358 62.4625 22.6577 62.4656 22.6805C62.4687 22.7033 62.4672 22.7264 62.4613 22.7486C62.4553 22.7708 62.445 22.7916 62.4309 22.8098C61.7739 23.6954 61.1116 24.1431 60.4592 24.1431ZM64.7742 23.203C64.7405 23.203 64.7064 23.1932 64.6765 23.1727C64.6593 23.1608 62.9511 21.9868 62.6889 21.8294C62.6316 21.795 62.5828 21.7025 62.5894 21.636C62.6016 21.5172 62.6241 21.2959 65.5265 20.2776C65.5479 20.2699 65.5705 20.2666 65.5932 20.2678C65.6159 20.269 65.6381 20.2747 65.6586 20.2845C65.679 20.2943 65.6973 20.3081 65.7124 20.325C65.7276 20.342 65.7392 20.3618 65.7466 20.3832C65.7617 20.4264 65.7591 20.4738 65.7394 20.515C65.7196 20.5562 65.6842 20.5879 65.6411 20.603C64.5846 20.9738 63.4344 21.4246 63.0394 21.6443C63.5486 21.9787 64.8107 22.8462 64.872 22.8884C64.9022 22.9093 64.925 22.9393 64.9369 22.9741C64.9489 23.0088 64.9494 23.0465 64.9385 23.0816C64.9276 23.1167 64.9058 23.1474 64.8762 23.1692C64.8467 23.1911 64.8109 23.2029 64.7742 23.203Z" fill="#241726"/>
<path d="M59.864 25.8472C59.8383 25.8473 59.8129 25.8416 59.7896 25.8306C59.7664 25.8196 59.7459 25.8036 59.7297 25.7836C59.7135 25.7636 59.7019 25.7403 59.6959 25.7153C59.6898 25.6903 59.6895 25.6643 59.6948 25.6391C59.6968 25.6289 59.9132 24.6031 60.0739 23.9599C60.0792 23.9379 60.0889 23.9171 60.1023 23.8987C60.1158 23.8804 60.1327 23.865 60.1522 23.8533C60.1717 23.8416 60.1933 23.8339 60.2158 23.8306C60.2383 23.8274 60.2612 23.8287 60.2832 23.8344C60.3755 23.8575 60.4317 23.951 60.4089 24.0435C60.2498 24.6804 60.0344 25.6998 60.0324 25.7102C60.0243 25.7489 60.0031 25.7836 59.9725 25.8086C59.9418 25.8335 59.9035 25.8472 59.864 25.8472ZM25.8301 79.8774H25.8281C25.5906 79.8745 25.3535 79.8566 25.1183 79.8237C25.0958 79.8206 25.0742 79.8131 25.0547 79.8016C25.0352 79.7901 25.0181 79.7749 25.0044 79.7568C24.9908 79.7387 24.9808 79.7181 24.9751 79.6961C24.9695 79.6742 24.9681 79.6514 24.9713 79.6289C24.9781 79.5838 25.0023 79.5431 25.0387 79.5157C25.0751 79.4882 25.1209 79.4761 25.1661 79.4819C25.3865 79.5127 25.6107 79.5296 25.832 79.5321C25.8778 79.5323 25.9216 79.5508 25.9538 79.5833C25.986 79.6159 26.0039 79.6599 26.0037 79.7057C26.0034 79.7514 25.985 79.7952 25.9524 79.8275C25.9199 79.8597 25.8759 79.8776 25.8301 79.8774ZM26.5176 79.8393C26.4741 79.8387 26.4324 79.8215 26.4009 79.7914C26.3694 79.7613 26.3505 79.7204 26.3479 79.6769C26.3453 79.6335 26.3593 79.5906 26.3869 79.557C26.4146 79.5233 26.4539 79.5014 26.4971 79.4955C26.718 79.4686 26.9369 79.4275 27.1526 79.3725C27.1745 79.3667 27.1974 79.3654 27.2199 79.3685C27.2424 79.3717 27.2641 79.3793 27.2836 79.3909C27.3032 79.4025 27.3202 79.4178 27.3338 79.4361C27.3473 79.4543 27.3571 79.475 27.3626 79.4971C27.3682 79.519 27.3694 79.5419 27.3662 79.5643C27.363 79.5867 27.3554 79.6082 27.3439 79.6277C27.3323 79.6472 27.3171 79.6642 27.2989 79.6778C27.2808 79.6913 27.2602 79.7012 27.2383 79.7068C27.0082 79.7656 26.7747 79.8094 26.539 79.8382C26.5318 79.8391 26.5247 79.8393 26.5176 79.8393ZM24.4643 79.6978C24.4511 79.6978 24.438 79.6964 24.4245 79.6931C24.1945 79.639 23.9677 79.5721 23.7451 79.4929C23.702 79.4774 23.6669 79.4454 23.6474 79.4041C23.6278 79.3627 23.6255 79.3153 23.6409 79.2722C23.6564 79.2292 23.6883 79.194 23.7297 79.1745C23.7711 79.155 23.8185 79.1526 23.8616 79.168C24.0645 79.2408 24.2809 79.3044 24.5039 79.3573C24.5453 79.3668 24.5818 79.3912 24.6063 79.4259C24.6308 79.4606 24.6416 79.5031 24.6367 79.5453C24.6318 79.5875 24.6115 79.6264 24.5797 79.6546C24.5479 79.6827 24.5068 79.6981 24.4643 79.6978ZM27.8515 79.4991C27.7827 79.4991 27.7177 79.4578 27.6911 79.39C27.6827 79.3689 27.6786 79.3464 27.679 79.3238C27.6793 79.3011 27.6842 79.2787 27.6932 79.258C27.7022 79.2372 27.7152 79.2184 27.7315 79.2026C27.7479 79.1869 27.7671 79.1745 27.7882 79.1663C27.9958 79.0841 28.1983 78.9898 28.3948 78.8837C28.4148 78.8722 28.4369 78.8648 28.4598 78.8619C28.4827 78.8591 28.5059 78.8609 28.5281 78.8672C28.5503 78.8735 28.571 78.8842 28.589 78.8986C28.607 78.9131 28.622 78.931 28.6329 78.9513C28.6439 78.9716 28.6506 78.9939 28.6528 79.0169C28.655 79.0398 28.6525 79.063 28.6456 79.085C28.6387 79.107 28.6274 79.1274 28.6125 79.145C28.5975 79.1626 28.5792 79.177 28.5586 79.1874C28.3501 79.2999 28.1351 79.4 27.9148 79.4871C27.8947 79.4951 27.8732 79.4992 27.8515 79.4991ZM23.1707 79.2284C23.1437 79.2284 23.1165 79.2222 23.0908 79.2089C22.8785 79.0986 22.6754 78.9715 22.4835 78.8286C22.4469 78.8011 22.4227 78.7603 22.4162 78.715C22.4097 78.6697 22.4214 78.6237 22.4488 78.587C22.4764 78.5505 22.5172 78.5264 22.5625 78.5199C22.6077 78.5134 22.6537 78.5251 22.6904 78.5523C22.8673 78.6841 23.0546 78.8014 23.2505 78.9029C23.2847 78.9208 23.3119 78.9496 23.3278 78.9848C23.3437 79.02 23.3473 79.0594 23.3381 79.0969C23.3289 79.1344 23.3075 79.1677 23.2771 79.1916C23.2468 79.2154 23.2093 79.2284 23.1707 79.2284ZM34.299 78.87C34.1052 78.8701 33.9114 78.8611 33.7183 78.8429C33.6957 78.8408 33.6738 78.8343 33.6538 78.8237C33.6337 78.8131 33.616 78.7986 33.6015 78.7812C33.5871 78.7637 33.5762 78.7436 33.5695 78.7219C33.5629 78.7002 33.5605 78.6775 33.5627 78.6549C33.5718 78.5598 33.6634 78.4893 33.7507 78.4995C33.9279 78.5162 34.1123 78.5248 34.299 78.5248L34.4203 78.5237H34.4236C34.4694 78.5232 34.5135 78.541 34.5461 78.573C34.5788 78.6051 34.5974 78.6488 34.5979 78.6946C34.5983 78.7404 34.5805 78.7844 34.5485 78.8171C34.5164 78.8498 34.4727 78.8684 34.427 78.8688L34.299 78.87ZM29.0644 78.8464C29.0276 78.8465 28.9918 78.8348 28.9621 78.813C28.9325 78.7913 28.9106 78.7606 28.8996 78.7255C28.8886 78.6904 28.8891 78.6527 28.901 78.618C28.913 78.5832 28.9357 78.5531 28.966 78.5322C29.1497 78.4043 29.3265 78.2666 29.4954 78.1197C29.53 78.0897 29.575 78.0746 29.6207 78.0778C29.6664 78.081 29.7089 78.1022 29.7389 78.1368C29.769 78.1713 29.784 78.2164 29.7809 78.2621C29.7777 78.3077 29.7564 78.3503 29.7219 78.3803C29.5435 78.5354 29.3569 78.6807 29.1628 78.8158C29.1339 78.8357 29.0996 78.8464 29.0644 78.8464ZM35.1116 78.8213C35.0694 78.8211 35.0286 78.8056 34.9971 78.7775C34.9655 78.7494 34.9453 78.7107 34.9403 78.6688C34.9351 78.6233 34.9482 78.5776 34.9766 78.5418C35.005 78.5059 35.0465 78.4828 35.0919 78.4774C35.3156 78.4509 35.5381 78.4153 35.7588 78.3706C35.8035 78.362 35.8498 78.3714 35.8876 78.3968C35.9254 78.4222 35.9516 78.4614 35.9606 78.506C35.9696 78.5507 35.9605 78.597 35.9355 78.635C35.9105 78.673 35.8714 78.6996 35.8269 78.709C35.5968 78.7556 35.3649 78.7926 35.1317 78.8201C35.125 78.8209 35.1183 78.8213 35.1116 78.8213ZM33.0542 78.7347C33.0418 78.7347 33.0286 78.7334 33.0158 78.7304C32.7831 78.6772 32.5548 78.6066 32.3327 78.5192C32.3116 78.5109 32.2924 78.4985 32.2761 78.4828C32.2598 78.467 32.2468 78.4482 32.2378 78.4274C32.2288 78.4067 32.2239 78.3843 32.2236 78.3617C32.2232 78.339 32.2273 78.3165 32.2356 78.2955C32.2439 78.2744 32.2563 78.2552 32.272 78.2389C32.2878 78.2226 32.3065 78.2096 32.3273 78.2006C32.3481 78.1915 32.3704 78.1867 32.3931 78.1863C32.4157 78.1859 32.4382 78.19 32.4593 78.1983C32.6652 78.2792 32.8769 78.3446 33.0925 78.394C33.1337 78.4036 33.17 78.428 33.1944 78.4625C33.2188 78.4971 33.2297 78.5394 33.2249 78.5814C33.2202 78.6234 33.2002 78.6623 33.1687 78.6905C33.1373 78.7188 33.0965 78.7345 33.0542 78.7347ZM36.462 78.5485C36.4206 78.5483 36.3807 78.5332 36.3496 78.5061C36.3184 78.4789 36.298 78.4414 36.2921 78.4005C36.2862 78.3596 36.2951 78.3179 36.3173 78.2831C36.3395 78.2482 36.3735 78.2224 36.4131 78.2105C36.6268 78.1478 36.8368 78.0732 37.0422 77.9872C37.0631 77.9784 37.0855 77.9738 37.1081 77.9736C37.1308 77.9734 37.1532 77.9778 37.1742 77.9863C37.1952 77.9948 37.2143 78.0074 37.2304 78.0233C37.2465 78.0392 37.2593 78.0581 37.2682 78.0789C37.277 78.0998 37.2816 78.1222 37.2817 78.1448C37.2819 78.1675 37.2776 78.1899 37.2691 78.2109C37.2605 78.2319 37.248 78.251 37.2321 78.2671C37.2162 78.2832 37.1972 78.2961 37.1764 78.3049C36.9591 78.396 36.7369 78.475 36.5108 78.5413C36.495 78.5462 36.4785 78.5486 36.462 78.5485ZM22.0755 78.4023C22.0289 78.4023 21.9824 78.3836 21.9484 78.3465C21.7852 78.1689 21.6394 77.9762 21.5129 77.7708C21.4902 77.7319 21.4836 77.6856 21.4946 77.6418C21.5055 77.5981 21.5332 77.5604 21.5716 77.5368C21.61 77.5132 21.6562 77.5055 21.7001 77.5155C21.7441 77.5255 21.7824 77.5523 21.8069 77.5901C21.9211 77.7757 22.0542 77.9515 22.2025 78.1129C22.2251 78.1376 22.2401 78.1684 22.2455 78.2014C22.251 78.2344 22.2467 78.2683 22.2333 78.299C22.2198 78.3297 22.1977 78.3557 22.1697 78.3741C22.1417 78.3924 22.1089 78.4022 22.0755 78.4023ZM31.778 78.227C31.7476 78.227 31.717 78.219 31.6894 78.2024C31.4833 78.0788 31.2883 77.9376 31.1066 77.7803C31.0748 77.7496 31.0559 77.7078 31.0539 77.6635C31.052 77.6193 31.0671 77.576 31.0962 77.5425C31.1252 77.5091 31.166 77.4881 31.2101 77.4839C31.2542 77.4796 31.2982 77.4925 31.3331 77.5198C31.4979 77.6628 31.6775 77.7929 31.8666 77.9065C31.899 77.9259 31.9241 77.9554 31.9382 77.9904C31.9522 78.0254 31.9544 78.0641 31.9443 78.1005C31.9342 78.1369 31.9125 78.1689 31.8825 78.1918C31.8524 78.2146 31.8157 78.227 31.778 78.227ZM37.722 78.0097C37.6842 78.0097 37.6474 77.9973 37.6174 77.9744C37.5873 77.9515 37.5656 77.9194 37.5556 77.8829C37.5455 77.8465 37.5477 77.8078 37.5618 77.7727C37.576 77.7377 37.6012 77.7082 37.6337 77.6889C37.8227 77.5765 38.0024 77.4492 38.1712 77.3082C38.1885 77.2936 38.2086 77.2825 38.2302 77.2757C38.2518 77.2689 38.2745 77.2664 38.2971 77.2683C38.3197 77.2703 38.3416 77.2768 38.3617 77.2873C38.3818 77.2978 38.3996 77.3121 38.4141 77.3296C38.4287 77.3469 38.4397 77.367 38.4466 77.3886C38.4534 77.4102 38.4559 77.4329 38.4539 77.4555C38.4519 77.4781 38.4455 77.5001 38.4351 77.5202C38.4246 77.5403 38.4103 77.5581 38.3929 77.5727C38.2099 77.7254 38.015 77.8634 37.8101 77.9853C37.7827 78.0021 37.7523 78.0097 37.722 78.0097ZM30.1047 77.9425C30.0627 77.9425 30.0205 77.9272 29.9875 77.8964C29.9709 77.881 29.9574 77.8625 29.9479 77.8419C29.9384 77.8213 29.9331 77.7991 29.9323 77.7764C29.9314 77.7537 29.9351 77.7311 29.943 77.7099C29.9509 77.6886 29.963 77.6692 29.9784 77.6526C30.1309 77.4886 30.2742 77.3164 30.4078 77.1368C30.4245 77.114 30.4466 77.0957 30.4721 77.0836C30.375 76.9477 30.2871 76.8061 30.2092 76.6605C30.1973 76.6405 30.1895 76.6182 30.1864 76.5951C30.1833 76.572 30.185 76.5485 30.1912 76.526C30.1974 76.5035 30.2082 76.4825 30.2227 76.4643C30.2373 76.4461 30.2554 76.431 30.276 76.42C30.2966 76.409 30.3192 76.4023 30.3424 76.4002C30.3657 76.3982 30.3891 76.4009 30.4112 76.4082C30.4334 76.4154 30.4539 76.4271 30.4714 76.4425C30.4889 76.4579 30.5031 76.4767 30.5132 76.4978C30.6172 76.6912 30.7387 76.8747 30.8761 77.046C30.8988 77.0743 30.912 77.109 30.9139 77.1452C30.9157 77.1814 30.9061 77.2173 30.8864 77.2477C30.8667 77.2782 30.8379 77.3016 30.8041 77.3148C30.7704 77.3279 30.7333 77.3301 30.6982 77.321C30.6944 77.3285 30.6899 77.3357 30.6848 77.3423C30.5439 77.5324 30.3924 77.7145 30.2312 77.8877C30.215 77.905 30.1954 77.9188 30.1736 77.9282C30.1519 77.9376 30.1285 77.9425 30.1047 77.9425ZM21.356 77.235C21.2866 77.235 21.2211 77.193 21.1948 77.124C21.1095 76.8998 21.0433 76.6688 20.997 76.4335C20.9894 76.3892 20.9994 76.3436 21.0248 76.3066C21.0503 76.2695 21.0892 76.2439 21.1333 76.2351C21.1774 76.2263 21.2232 76.235 21.2609 76.2595C21.2986 76.2839 21.3253 76.3221 21.3353 76.366C21.3779 76.5823 21.4387 76.7947 21.517 77.0009C21.527 77.027 21.5306 77.0552 21.5273 77.083C21.524 77.1107 21.514 77.1373 21.4982 77.1604C21.4823 77.1834 21.4611 77.2023 21.4363 77.2153C21.4115 77.2283 21.384 77.2351 21.356 77.235ZM38.7678 77.1288C38.7349 77.1289 38.7027 77.1195 38.6749 77.1018C38.6472 77.0841 38.625 77.0588 38.6112 77.029C38.5973 76.9992 38.5923 76.966 38.5967 76.9333C38.6011 76.9007 38.6147 76.8701 38.636 76.8449C38.7779 76.6765 38.906 76.497 39.0191 76.3082C39.0429 76.2691 39.0811 76.241 39.1255 76.2299C39.1698 76.2189 39.2167 76.2258 39.256 76.2492C39.3376 76.2983 39.3641 76.4044 39.315 76.4861C39.1921 76.6907 39.0531 76.8852 38.8995 77.0678C38.8833 77.087 38.8631 77.1023 38.8404 77.1129C38.8177 77.1234 38.7929 77.1289 38.7678 77.1288ZM30.9227 76.8335C30.8925 76.8337 30.8628 76.8259 30.8366 76.8109C30.8104 76.796 30.7885 76.7744 30.7733 76.7483C30.7581 76.7223 30.75 76.6927 30.7498 76.6625C30.7496 76.6323 30.7574 76.6026 30.7723 76.5764C30.8814 76.3843 30.9749 76.1837 31.052 75.9766C31.0678 75.9337 31.1 75.8987 31.1415 75.8795C31.183 75.8602 31.2304 75.8582 31.2734 75.8738C31.3627 75.9066 31.4089 76.0058 31.3762 76.0953C31.2928 76.3199 31.1913 76.5374 31.0728 76.7457C31.0578 76.7723 31.036 76.7945 31.0096 76.8099C30.9832 76.8253 30.9532 76.8335 30.9227 76.8335ZM30.098 76.1148C30.0235 76.1148 29.9547 76.0662 29.9325 75.9915C29.858 75.7407 29.8179 75.4968 29.8135 75.2662C29.8131 75.2436 29.8171 75.221 29.8254 75.1999C29.8336 75.1788 29.846 75.1596 29.8617 75.1432C29.8774 75.1269 29.8962 75.1138 29.917 75.1047C29.9377 75.0957 29.9601 75.0908 29.9828 75.0903C30.0055 75.0896 30.0281 75.0935 30.0494 75.1016C30.0706 75.1098 30.09 75.1221 30.1064 75.1379C30.1228 75.1537 30.1358 75.1726 30.1448 75.1935C30.1538 75.2144 30.1585 75.2368 30.1587 75.2596C30.1624 75.459 30.1977 75.6722 30.2634 75.8932C30.271 75.919 30.2725 75.9461 30.2678 75.9725C30.2631 75.999 30.2522 76.0239 30.2362 76.0454C30.2201 76.0669 30.1992 76.0844 30.1753 76.0964C30.1513 76.1085 30.1248 76.1147 30.098 76.1148ZM39.4795 75.9558C39.4509 75.9558 39.4228 75.9487 39.3977 75.9352C39.3725 75.9217 39.3511 75.9021 39.3354 75.8783C39.3197 75.8544 39.3101 75.8271 39.3075 75.7986C39.305 75.7702 39.3095 75.7415 39.3208 75.7153C39.4086 75.5091 39.4856 75.2985 39.5516 75.0844C39.5802 74.9934 39.6759 74.942 39.768 74.9712C39.859 74.9996 39.9095 75.0964 39.8811 75.1873C39.8115 75.4126 39.7304 75.6342 39.6382 75.8513C39.6248 75.8823 39.6027 75.9087 39.5745 75.9273C39.5463 75.9458 39.5132 75.9558 39.4795 75.9558ZM21.083 75.8877C20.9909 75.8877 20.9147 75.8154 20.9107 75.7229C20.9066 75.6378 20.9046 75.5525 20.9046 75.4673C20.9046 75.4469 20.9046 75.4264 20.9049 75.406C20.6886 75.4758 20.4681 75.5317 20.2447 75.5732C20.153 75.5885 20.061 75.5293 20.0435 75.4352C20.0393 75.4129 20.0396 75.39 20.0442 75.3679C20.0489 75.3457 20.0579 75.3246 20.0707 75.3059C20.0835 75.2872 20.0999 75.2712 20.1189 75.2589C20.1379 75.2465 20.1591 75.238 20.1814 75.2339C20.4 75.1933 20.6156 75.1381 20.8267 75.0685C20.8578 75.0584 20.8907 75.0574 20.9191 75.064C20.9204 75.0465 20.9218 75.0288 20.9234 75.0113C20.9315 74.916 21.0165 74.8441 21.1097 74.8537C21.1553 74.8576 21.1974 74.8793 21.2269 74.9142C21.2565 74.9491 21.2709 74.9943 21.2671 75.0399C21.2552 75.1804 21.2492 75.3232 21.2496 75.467C21.2496 75.5472 21.2516 75.6273 21.255 75.7075C21.2593 75.8027 21.1856 75.8834 21.0905 75.8876L21.083 75.8877ZM19.084 75.6754C18.9994 75.6754 18.9157 75.6741 18.8339 75.6716C18.7882 75.6703 18.7448 75.6508 18.7134 75.6175C18.682 75.5842 18.6651 75.5398 18.6664 75.494C18.6691 75.3988 18.7524 75.3316 18.844 75.3265C18.9273 75.329 19.0126 75.3303 19.0984 75.3303C19.2419 75.3303 19.3815 75.3258 19.5173 75.3167C19.6116 75.3155 19.6945 75.3823 19.701 75.4774C19.704 75.5231 19.6887 75.568 19.6586 75.6025C19.6285 75.6369 19.5859 75.658 19.5402 75.6611C19.3922 75.6708 19.2396 75.678 19.084 75.6754ZM18.1517 75.6209C18.1446 75.6209 18.1376 75.6206 18.1305 75.6196C17.8956 75.5914 17.6625 75.5494 17.4325 75.4937C17.4105 75.4884 17.3898 75.4787 17.3715 75.4653C17.3532 75.4519 17.3378 75.435 17.326 75.4156C17.3143 75.3962 17.3065 75.3747 17.3031 75.3523C17.2997 75.3299 17.3008 75.307 17.3062 75.285C17.3288 75.1927 17.4218 75.1356 17.5148 75.1584C17.7213 75.2091 17.9424 75.249 18.1722 75.2772C18.2166 75.2816 18.2575 75.3029 18.2864 75.3368C18.3153 75.3707 18.33 75.4145 18.3273 75.4589C18.3247 75.5034 18.3049 75.5451 18.2722 75.5753C18.2394 75.6055 18.1963 75.6219 18.1517 75.6209ZM31.3739 75.5385C31.3499 75.5386 31.3261 75.5336 31.3042 75.524C31.2822 75.5144 31.2624 75.5002 31.2462 75.4825C31.23 75.4648 31.2177 75.444 31.21 75.4212C31.2023 75.3985 31.1994 75.3744 31.2016 75.3505C31.2059 75.3035 31.208 75.2574 31.208 75.213C31.208 75.0392 31.1759 74.8931 31.1123 74.7789C31.0901 74.7388 31.0847 74.6916 31.0973 74.6476C31.1099 74.6036 31.1394 74.5664 31.1795 74.5442C31.2195 74.5219 31.2667 74.5165 31.3108 74.5291C31.3548 74.5417 31.392 74.5713 31.4142 74.6114C31.5063 74.7776 31.5531 74.9801 31.5531 75.213C31.5531 75.2677 31.5504 75.3238 31.5453 75.3816C31.5415 75.4244 31.5218 75.4643 31.4901 75.4933C31.4583 75.5224 31.4169 75.5385 31.3739 75.5385ZM16.8189 75.2865C16.7969 75.2865 16.7743 75.2823 16.7531 75.2733C16.53 75.182 16.3162 75.0696 16.1144 74.9377C16.0955 74.9252 16.0792 74.9091 16.0665 74.8904C16.0538 74.8716 16.045 74.8505 16.0404 74.8283C16.0359 74.8061 16.0358 74.7832 16.0401 74.7609C16.0444 74.7387 16.053 74.7175 16.0655 74.6986C16.078 74.6797 16.0941 74.6634 16.1128 74.6507C16.1316 74.638 16.1527 74.6291 16.1749 74.6246C16.1971 74.6201 16.22 74.6199 16.2423 74.6242C16.2645 74.6285 16.2857 74.6372 16.3046 74.6497C16.4879 74.7694 16.6821 74.8715 16.8846 74.9546C16.9217 74.9697 16.9523 74.9972 16.9713 75.0325C16.9903 75.0677 16.9964 75.1084 16.9887 75.1477C16.9809 75.1869 16.9597 75.2223 16.9287 75.2476C16.8977 75.2729 16.8589 75.2867 16.8189 75.2865ZM21.5164 75.1386C21.4777 75.1386 21.4402 75.1256 21.4097 75.1017C21.3793 75.0778 21.3578 75.0444 21.3487 75.0068C21.3395 74.9692 21.3433 74.9296 21.3594 74.8944C21.3754 74.8592 21.4028 74.8304 21.4372 74.8127C21.6327 74.7124 21.8188 74.5946 21.9932 74.4609C22.0295 74.4329 22.0753 74.4205 22.1207 74.4264C22.1661 74.4322 22.2073 74.4559 22.2353 74.4921C22.2633 74.5284 22.2757 74.5742 22.2698 74.6196C22.264 74.665 22.2403 74.7062 22.2041 74.7342C22.0132 74.8807 21.8095 75.0096 21.5955 75.1194C21.5711 75.1321 21.5439 75.1387 21.5164 75.1386ZM30.1273 74.7683C30.0969 74.7684 30.067 74.7604 30.0407 74.7452C30.0144 74.73 29.9925 74.7081 29.9774 74.6817C29.9623 74.6553 29.9544 74.6254 29.9546 74.595C29.9547 74.5646 29.9629 74.5348 29.9783 74.5086C30.141 74.2305 30.4174 74.1004 30.7382 74.153C30.8323 74.1684 30.8963 74.257 30.8807 74.3511C30.873 74.396 30.848 74.4362 30.811 74.4629C30.774 74.4895 30.728 74.5006 30.6829 74.4937C30.5042 74.4645 30.3688 74.5249 30.2762 74.6831C30.2439 74.7378 30.1863 74.7683 30.1273 74.7683ZM39.8967 74.6419C39.8707 74.6419 39.8451 74.636 39.8216 74.6246C39.7982 74.6133 39.7777 74.5968 39.7616 74.5764C39.7454 74.556 39.7341 74.5323 39.7284 74.5069C39.7228 74.4815 39.723 74.4551 39.7289 74.4298C39.7811 74.2077 39.8277 73.984 39.8709 73.7609C39.8752 73.7387 39.8838 73.7175 39.8964 73.6986C39.9089 73.6797 39.925 73.6634 39.9438 73.6507C39.9625 73.6381 39.9837 73.6292 40.0059 73.6247C40.0281 73.6201 40.051 73.62 40.0732 73.6244C40.0955 73.6287 40.1166 73.6373 40.1356 73.6498C40.1545 73.6623 40.1707 73.6785 40.1834 73.6972C40.1961 73.716 40.205 73.7371 40.2095 73.7593C40.214 73.7816 40.2141 73.8044 40.2098 73.8267C40.1659 74.0551 40.1174 74.2827 40.0645 74.5092C40.046 74.5884 39.9749 74.6419 39.8967 74.6419ZM15.6805 74.527C15.6573 74.527 15.6343 74.5223 15.613 74.5132C15.5916 74.5041 15.5723 74.4908 15.5562 74.4741C15.3875 74.2985 15.2398 74.1038 15.1161 73.8941C15.1046 73.8745 15.097 73.8529 15.0938 73.8305C15.0907 73.808 15.0919 73.7852 15.0976 73.7632C15.1032 73.7413 15.1132 73.7206 15.1268 73.7025C15.1404 73.6844 15.1575 73.6691 15.177 73.6576C15.1965 73.6461 15.2181 73.6385 15.2406 73.6353C15.263 73.6321 15.2859 73.6334 15.3078 73.6391C15.3298 73.6447 15.3504 73.6546 15.3685 73.6682C15.3866 73.6819 15.4019 73.6989 15.4134 73.7184C15.5234 73.9052 15.6548 74.0785 15.805 74.2347C15.8285 74.2591 15.8444 74.2899 15.8505 74.3232C15.8567 74.3565 15.8529 74.3909 15.8396 74.4221C15.8263 74.4533 15.8042 74.4798 15.7759 74.4985C15.7476 74.5171 15.7144 74.527 15.6805 74.527ZM21.1948 74.515C21.1692 74.515 21.1439 74.5093 21.1208 74.4983C21.0976 74.4873 21.0772 74.4713 21.061 74.4515C21.0448 74.4317 21.0332 74.4085 21.027 74.3836C21.0209 74.3587 21.0203 74.3328 21.0254 74.3077C21.0732 74.0752 21.1353 73.8458 21.2112 73.6209C21.2259 73.5775 21.2572 73.5418 21.2982 73.5215C21.3393 73.5013 21.3867 73.4981 21.4301 73.5128C21.4734 73.5275 21.5091 73.5589 21.5294 73.5999C21.5497 73.641 21.5528 73.6884 21.5381 73.7317C21.4666 73.943 21.4084 74.1585 21.3638 74.3771C21.3558 74.416 21.3346 74.4509 21.3038 74.476C21.273 74.5011 21.2345 74.5149 21.1948 74.515ZM22.5968 74.2943C22.564 74.2943 22.5318 74.2851 22.5041 74.2675C22.4764 74.25 22.4543 74.2249 22.4404 74.1952C22.4265 74.1655 22.4213 74.1324 22.4255 74.0999C22.4297 74.0674 22.4431 74.0367 22.4641 74.0116C22.6107 73.8351 22.723 73.6533 22.7984 73.4709C22.8158 73.4286 22.8494 73.395 22.8916 73.3774C22.9338 73.3598 22.9813 73.3598 23.0236 73.3772C23.0659 73.3946 23.0995 73.4282 23.117 73.4704C23.1346 73.5126 23.1347 73.5601 23.1172 73.6024C23.0289 73.8172 22.8986 74.029 22.7298 74.2321C22.6956 74.273 22.6464 74.2943 22.5968 74.2943ZM14.9801 73.3515C14.908 73.3515 14.8407 73.3058 14.8164 73.2335C14.7409 73.005 14.6861 72.7701 14.6526 72.5317C14.6462 72.4864 14.658 72.4403 14.6855 72.4037C14.713 72.3671 14.7539 72.3429 14.7992 72.3364C14.8444 72.3303 14.8902 72.3423 14.9267 72.3697C14.9632 72.3971 14.9875 72.4377 14.9943 72.4828C15.0249 72.7007 15.075 72.9154 15.1439 73.1243C15.1525 73.1502 15.1548 73.1778 15.1506 73.2049C15.1465 73.2319 15.136 73.2575 15.12 73.2797C15.104 73.3019 15.083 73.3199 15.0587 73.3324C15.0344 73.3449 15.0075 73.3514 14.9801 73.3515ZM40.1673 73.2866C40.142 73.2866 40.1169 73.2811 40.094 73.2704C40.071 73.2597 40.0507 73.2441 40.0344 73.2246C40.0182 73.2052 40.0064 73.1824 40 73.1579C39.9936 73.1333 39.9926 73.1077 39.9972 73.0828C40.0397 72.8523 40.0825 72.6243 40.129 72.4003C40.1386 72.3557 40.1653 72.3166 40.2035 72.2915C40.2417 72.2664 40.2882 72.2574 40.3329 72.2663C40.4263 72.2857 40.4863 72.377 40.4668 72.4704C40.421 72.6948 40.3777 72.9197 40.337 73.1451C40.3297 73.1848 40.3087 73.2206 40.2777 73.2465C40.2467 73.2723 40.2077 73.2865 40.1673 73.2866ZM21.6427 73.2133C21.6131 73.2133 21.5839 73.2057 21.5581 73.1911C21.5323 73.1766 21.5106 73.1556 21.4952 73.1303C21.4799 73.1049 21.4713 73.076 21.4703 73.0464C21.4693 73.0168 21.476 72.9874 21.4897 72.9611C21.6215 72.7083 21.7678 72.4982 21.9126 72.3533C21.9452 72.3224 21.9886 72.3054 22.0336 72.306C22.0786 72.3065 22.1216 72.3247 22.1534 72.3565C22.1852 72.3883 22.2034 72.4313 22.2039 72.4763C22.2045 72.5212 22.1875 72.5647 22.1565 72.5973C22.0363 72.7179 21.9113 72.8988 21.7956 73.1205C21.7811 73.1485 21.7592 73.172 21.7322 73.1884C21.7052 73.2047 21.6743 73.2134 21.6427 73.2133ZM23.0588 73.0355C23.0181 73.0354 22.9787 73.0209 22.9476 72.9945C22.9165 72.9681 22.8958 72.9316 22.889 72.8914C22.8577 72.7043 22.7562 72.5732 22.5874 72.5015C22.5452 72.4836 22.5119 72.4497 22.4948 72.4073C22.4776 72.3648 22.478 72.3173 22.4959 72.2752C22.5138 72.233 22.5477 72.1997 22.5901 72.1825C22.6326 72.1654 22.6801 72.1658 22.7222 72.1837C22.9986 72.3009 23.1788 72.5321 23.2294 72.8345C23.2335 72.8592 23.2322 72.8846 23.2256 72.9088C23.2189 72.933 23.207 72.9555 23.1908 72.9746C23.1746 72.9937 23.1543 73.0091 23.1315 73.0196C23.1088 73.0302 23.084 73.0356 23.0588 73.0355ZM14.7797 71.9909H14.7776C14.7319 71.9903 14.6882 71.9716 14.6562 71.9388C14.6242 71.906 14.6066 71.8619 14.6071 71.8161C14.6122 71.3924 14.6714 71.1079 14.6739 71.0961C14.6835 71.0514 14.7103 71.0124 14.7485 70.9874C14.7868 70.9624 14.8334 70.9536 14.8781 70.9628C14.9715 70.9823 15.0311 71.0738 15.0115 71.167C15.0108 71.1698 14.9569 71.433 14.9522 71.8205C14.9517 71.8659 14.9333 71.9092 14.901 71.9411C14.8687 71.973 14.8251 71.9909 14.7797 71.9909ZM40.4565 71.9361C40.43 71.9361 40.4039 71.93 40.3801 71.9182C40.3564 71.9065 40.3356 71.8894 40.3195 71.8684C40.3035 71.8473 40.2924 71.8228 40.2873 71.7968C40.2822 71.7708 40.2832 71.744 40.2902 71.7184C40.3511 71.49 40.4247 71.2651 40.5106 71.0448C40.5274 71.0022 40.5604 70.9681 40.6023 70.9499C40.6443 70.9316 40.6918 70.9309 40.7343 70.9476C40.7768 70.9644 40.811 70.9974 40.8292 71.0394C40.8474 71.0813 40.8482 71.1288 40.8314 71.1714C40.7502 71.3798 40.6807 71.5926 40.6232 71.8088C40.6132 71.8453 40.5914 71.8775 40.5613 71.9006C40.5312 71.9236 40.4944 71.936 40.4565 71.9361ZM40.9738 70.6629C40.9432 70.6628 40.9131 70.6546 40.8867 70.6391C40.8603 70.6236 40.8385 70.6013 40.8235 70.5746C40.8085 70.5479 40.8009 70.5177 40.8014 70.487C40.8019 70.4564 40.8106 70.4265 40.8265 70.4003C40.9523 70.1926 41.1021 70.0003 41.2727 69.8275C41.2887 69.8115 41.3076 69.7987 41.3285 69.79C41.3494 69.7812 41.3719 69.7767 41.3945 69.7766C41.4172 69.7766 41.4396 69.781 41.4606 69.7896C41.4815 69.7982 41.5006 69.8108 41.5166 69.8268C41.5327 69.8428 41.5455 69.8617 41.5542 69.8827C41.5629 69.9036 41.5675 69.926 41.5675 69.9486C41.5676 69.9713 41.5632 69.9937 41.5546 70.0147C41.546 70.0356 41.5333 70.0547 41.5174 70.0708C41.3658 70.2245 41.2328 70.3954 41.1211 70.5801C41.1057 70.6054 41.0841 70.6263 41.0583 70.6408C41.0325 70.6553 41.0034 70.6629 40.9738 70.6629ZM41.9343 69.7013C41.8965 69.7014 41.8598 69.689 41.8297 69.6661C41.7997 69.6432 41.7779 69.611 41.7679 69.5746C41.7579 69.5381 41.7601 69.4994 41.7742 69.4643C41.7883 69.4293 41.8136 69.3998 41.846 69.3805C42.0538 69.258 42.2741 69.1582 42.5032 69.0829C42.5465 69.0692 42.5934 69.073 42.6338 69.0936C42.6742 69.1142 42.7049 69.1499 42.7192 69.1929C42.7336 69.2359 42.7304 69.2829 42.7105 69.3236C42.6905 69.3643 42.6553 69.3956 42.6125 69.4105C42.4069 69.478 42.2091 69.5673 42.0227 69.6771C41.996 69.6931 41.9654 69.7015 41.9343 69.7013ZM4.12655 38.6387C4.02047 38.6387 3.91901 38.6322 3.82217 38.6195C3.77681 38.6136 3.73564 38.5899 3.7077 38.5537C3.67976 38.5174 3.66734 38.4716 3.67316 38.4262C3.68559 38.3318 3.7726 38.2671 3.86654 38.2772C4.05862 38.3025 4.27499 38.2985 4.50552 38.2639C4.55073 38.2575 4.59665 38.2692 4.63335 38.2964C4.67005 38.3235 4.69458 38.3641 4.70164 38.4092C4.70501 38.4316 4.70393 38.4544 4.69846 38.4764C4.693 38.4984 4.68325 38.5191 4.66979 38.5373C4.65633 38.5555 4.63941 38.5709 4.62 38.5825C4.6006 38.5942 4.57908 38.6019 4.55668 38.6053C4.41432 38.627 4.27056 38.6381 4.12655 38.6387ZM5.20129 38.4423C5.12917 38.4423 5.06182 38.3966 5.03754 38.3245C5.02311 38.281 5.0265 38.2337 5.04695 38.1927C5.06741 38.1518 5.10326 38.1206 5.14666 38.1061C5.3583 38.0343 5.56578 37.9509 5.76814 37.8561C5.80963 37.837 5.85698 37.8352 5.89983 37.8509C5.94267 37.8667 5.97754 37.8988 5.99679 37.9402C6.01605 37.9816 6.01813 38.0289 6.00258 38.0718C5.98704 38.1148 5.95513 38.1498 5.91383 38.1692C5.69958 38.2694 5.47994 38.3576 5.25592 38.4335C5.23831 38.4393 5.21986 38.4423 5.20129 38.4423ZM3.19577 38.4045C3.16614 38.4045 3.13608 38.397 3.10877 38.381C2.89674 38.2571 2.7087 38.0877 2.55001 37.8779C2.53556 37.8599 2.52486 37.8392 2.51855 37.817C2.51225 37.7948 2.51046 37.7715 2.51329 37.7486C2.51612 37.7257 2.52351 37.7036 2.53504 37.6836C2.54656 37.6636 2.56198 37.6462 2.58038 37.6322C2.59877 37.6183 2.61978 37.6082 2.64215 37.6025C2.66452 37.5969 2.6878 37.5957 2.71061 37.5992C2.73342 37.6027 2.7553 37.6107 2.77496 37.6228C2.79462 37.6349 2.81165 37.6508 2.82505 37.6696C2.95643 37.8432 3.1105 37.9824 3.28264 38.0831C3.31551 38.1021 3.34119 38.1314 3.35568 38.1665C3.37016 38.2016 3.37264 38.2406 3.36274 38.2772C3.35283 38.3139 3.33109 38.3462 3.3009 38.3693C3.2707 38.3923 3.23375 38.4047 3.19577 38.4045ZM6.45394 37.8689C6.41577 37.869 6.37864 37.8565 6.34837 37.8332C6.31811 37.8099 6.29641 37.7773 6.28669 37.7404C6.27697 37.7035 6.27978 37.6644 6.29466 37.6292C6.30955 37.5941 6.33568 37.5649 6.36896 37.5462C6.56629 37.4345 6.76038 37.3172 6.95098 37.1944C6.97006 37.1821 6.99136 37.1737 7.01368 37.1697C7.03599 37.1657 7.05888 37.1661 7.08104 37.1709C7.1032 37.1757 7.12419 37.1849 7.14282 37.1978C7.16145 37.2107 7.17734 37.2272 7.18961 37.2463C7.20187 37.2653 7.21025 37.2866 7.21428 37.309C7.21831 37.3313 7.2179 37.3542 7.21308 37.3763C7.20826 37.3985 7.19913 37.4195 7.1862 37.4381C7.17327 37.4567 7.15679 37.4726 7.13772 37.4849C6.94159 37.6112 6.74191 37.7319 6.53893 37.8468C6.51296 37.8613 6.4837 37.8689 6.45394 37.8689ZM2.35764 37.3425C2.28884 37.3425 2.2238 37.301 2.19692 37.233C2.1154 37.025 2.04834 36.7922 1.99804 36.5408C1.98905 36.4959 1.99826 36.4493 2.02363 36.4113C2.049 36.3732 2.08846 36.3467 2.13332 36.3377C2.17819 36.3288 2.22479 36.338 2.26287 36.3633C2.30096 36.3887 2.3274 36.4282 2.33639 36.473C2.38293 36.7046 2.44392 36.9178 2.51836 37.1069C2.52858 37.1331 2.53227 37.1614 2.5291 37.1893C2.52593 37.2172 2.516 37.2439 2.50017 37.2671C2.48433 37.2904 2.46307 37.3094 2.43824 37.3225C2.4134 37.3356 2.38573 37.3425 2.35764 37.3425ZM7.61583 37.1253C7.57934 37.1252 7.5438 37.1136 7.51433 37.0921C7.48486 37.0706 7.46295 37.0403 7.45177 37.0055C7.44058 36.9708 7.44068 36.9334 7.45206 36.8987C7.46343 36.8641 7.4855 36.8339 7.51509 36.8125C7.70717 36.6748 7.86052 36.5277 7.97109 36.3749C7.998 36.3378 8.03855 36.3129 8.08381 36.3057C8.12907 36.2985 8.17534 36.3095 8.21245 36.3364C8.28934 36.3924 8.30654 36.5002 8.2509 36.5774C8.11851 36.7601 7.93842 36.9334 7.71671 37.0928C7.68736 37.114 7.65205 37.1254 7.61583 37.1253ZM8.36811 36.0166C8.34356 36.0166 8.31927 36.0114 8.29689 36.0013C8.2745 35.9912 8.25452 35.9765 8.23829 35.9581C8.22205 35.9396 8.20993 35.918 8.20273 35.8945C8.19554 35.871 8.19343 35.8463 8.19656 35.8219C8.20335 35.7697 8.20667 35.717 8.20667 35.6635C8.20667 35.5226 8.1834 35.3707 8.13788 35.2119C8.12667 35.1683 8.13288 35.1222 8.15518 35.0832C8.17747 35.0442 8.2141 35.0154 8.25728 35.003C8.30046 34.9906 8.34678 34.9955 8.38639 35.0167C8.42601 35.0378 8.4558 35.0736 8.46943 35.1165C8.52406 35.3062 8.55167 35.4904 8.55167 35.6634C8.55167 35.7316 8.54762 35.7992 8.53881 35.8663C8.53341 35.9078 8.51312 35.9459 8.48173 35.9735C8.45033 36.0012 8.40995 36.0165 8.36811 36.0166ZM2.07551 35.9946C2.03201 35.9946 1.99014 35.9781 1.95828 35.9485C1.92641 35.9189 1.90691 35.8783 1.90366 35.8349C1.89136 35.6682 1.88539 35.501 1.88574 35.3338C1.88574 35.2565 1.88704 35.1867 1.88878 35.1267C1.89152 35.0313 1.97174 34.9614 2.06641 34.9591C2.16151 34.962 2.23666 35.0413 2.23392 35.1365C2.22705 35.361 2.23178 35.5856 2.24808 35.8095C2.24981 35.8332 2.24663 35.857 2.23874 35.8794C2.23084 35.9018 2.21841 35.9223 2.20221 35.9397C2.18601 35.9571 2.16639 35.971 2.14459 35.9804C2.12279 35.9899 2.09927 35.9947 2.07551 35.9946ZM8.03613 34.7024C7.97484 34.7024 7.91544 34.6696 7.88408 34.6118C7.78869 34.435 7.67277 34.2487 7.52954 34.0424C7.50459 34.0048 7.49539 33.9588 7.50391 33.9145C7.51244 33.8701 7.53801 33.8308 7.57515 33.8051C7.61229 33.7794 7.65803 33.7692 7.70257 33.7768C7.74711 33.7844 7.7869 33.8091 7.8134 33.8457C7.96372 34.0628 8.08642 34.2598 8.18817 34.4481C8.20229 34.4744 8.20936 34.5039 8.20867 34.5338C8.20798 34.5636 8.19957 34.5928 8.18425 34.6184C8.16893 34.644 8.14723 34.6652 8.12127 34.6799C8.09531 34.6946 8.06597 34.7024 8.03613 34.7024ZM7.25898 33.5627C7.20811 33.5627 7.15752 33.5402 7.12356 33.4968C6.98176 33.3176 6.83716 33.1406 6.68982 32.9658C6.67524 32.9485 6.66422 32.9284 6.65739 32.9068C6.65057 32.8852 6.64806 32.8625 6.65002 32.8399C6.65198 32.8173 6.65837 32.7954 6.66881 32.7753C6.67926 32.7552 6.69357 32.7373 6.71092 32.7227C6.72827 32.7082 6.74831 32.6971 6.76992 32.6903C6.79153 32.6835 6.81427 32.681 6.83684 32.6829C6.85941 32.6849 6.88138 32.6913 6.90149 32.7017C6.92159 32.7122 6.93944 32.7265 6.95402 32.7438C7.10382 32.9213 7.25068 33.1012 7.39455 33.2835C7.4145 33.309 7.4269 33.3395 7.43034 33.3717C7.43377 33.4039 7.4281 33.4364 7.41397 33.4655C7.39984 33.4946 7.37782 33.5191 7.35042 33.5363C7.32301 33.5535 7.29133 33.5627 7.25898 33.5627ZM6.373 32.502C6.32488 32.502 6.2766 32.4818 6.24264 32.4423L5.78968 31.9204C5.76124 31.8856 5.74749 31.8411 5.75133 31.7964C5.75518 31.7516 5.77632 31.7101 5.81027 31.6807C5.84422 31.6512 5.88831 31.6362 5.93317 31.6387C5.97803 31.6412 6.02014 31.6612 6.05056 31.6942L6.50352 32.2164C6.52519 32.2414 6.53922 32.2722 6.54392 32.3049C6.54863 32.3377 6.54382 32.3711 6.53007 32.4012C6.51631 32.4313 6.49419 32.4568 6.46635 32.4747C6.4385 32.4926 6.4061 32.5021 6.373 32.502ZM5.46983 31.4559C5.42098 31.4559 5.37241 31.4352 5.33845 31.3951C5.18836 31.2186 5.04015 31.0406 4.89387 30.861C4.87958 30.8434 4.86889 30.8232 4.86241 30.8015C4.85593 30.7798 4.85379 30.757 4.85612 30.7345C4.85844 30.712 4.86517 30.6901 4.87594 30.6702C4.88671 30.6503 4.9013 30.6326 4.91888 30.6184C4.93645 30.6041 4.95667 30.5934 4.97838 30.5869C5.00008 30.5804 5.02285 30.5783 5.04539 30.5806C5.06792 30.5829 5.08978 30.5897 5.10971 30.6004C5.12964 30.6112 5.14725 30.6258 5.16154 30.6434C5.30644 30.8209 5.45305 30.997 5.60135 31.1716C5.62268 31.1967 5.63637 31.2274 5.64082 31.26C5.64527 31.2927 5.64028 31.3259 5.62645 31.3558C5.61262 31.3857 5.59052 31.411 5.56277 31.4287C5.53502 31.4465 5.50277 31.4559 5.46983 31.4559ZM4.59903 30.3829C4.54714 30.3829 4.49583 30.3595 4.46187 30.315C4.32069 30.1303 4.18326 29.9427 4.04966 29.7525C4.03551 29.734 4.02524 29.7128 4.01948 29.6903C4.01371 29.6677 4.01257 29.6442 4.01612 29.6212C4.01966 29.5982 4.02783 29.5762 4.04012 29.5564C4.05242 29.5366 4.06858 29.5196 4.08765 29.5062C4.10671 29.4928 4.12828 29.4835 4.15106 29.4787C4.17384 29.4739 4.19735 29.4737 4.22019 29.4783C4.24303 29.4828 4.26471 29.4919 4.28394 29.505C4.30317 29.5181 4.31954 29.535 4.33208 29.5546C4.46216 29.7403 4.59758 29.924 4.73619 30.1056C4.74993 30.1236 4.75999 30.1441 4.76579 30.166C4.77159 30.1879 4.77301 30.2108 4.76998 30.2332C4.76694 30.2557 4.75951 30.2773 4.74811 30.2969C4.73671 30.3165 4.72156 30.3336 4.70352 30.3474C4.67365 30.3706 4.63686 30.3831 4.59903 30.3829ZM3.80945 29.2505C3.78011 29.2506 3.75124 29.2431 3.72559 29.2289C3.69994 29.2146 3.67836 29.1941 3.6629 29.1691C3.53907 28.9704 3.42208 28.7675 3.31212 28.5608C3.29066 28.5204 3.28612 28.4731 3.29951 28.4294C3.3129 28.3856 3.34312 28.349 3.38352 28.3275C3.42392 28.3061 3.4712 28.3015 3.51494 28.3149C3.55869 28.3283 3.59533 28.3585 3.61679 28.3989C3.72314 28.5987 3.83633 28.7948 3.95615 28.9867C3.97248 29.0129 3.9815 29.0429 3.98228 29.0737C3.98306 29.1045 3.97557 29.135 3.9606 29.1619C3.94562 29.1888 3.9237 29.2112 3.89712 29.2268C3.87054 29.2424 3.84027 29.2506 3.80945 29.2505ZM3.16701 28.0299C3.09995 28.0299 3.03592 27.9903 3.00788 27.9244C2.91583 27.707 2.8354 27.4847 2.76695 27.2587C2.75376 27.2149 2.75851 27.1677 2.78016 27.1274C2.8018 27.0871 2.83856 27.0571 2.88236 27.0439C2.92615 27.0307 2.97339 27.0354 3.01368 27.0571C3.05397 27.0787 3.08402 27.1155 3.0972 27.1593C3.16229 27.3735 3.23866 27.5842 3.326 27.7903C3.33714 27.8165 3.3416 27.8451 3.33898 27.8735C3.33636 27.9019 3.32674 27.9292 3.31099 27.9529C3.29523 27.9767 3.27383 27.9961 3.2487 28.0096C3.22358 28.023 3.19551 28.03 3.16701 28.0299ZM2.77548 26.7108C2.69252 26.7108 2.61938 26.6508 2.60565 26.5663C2.56689 26.3312 2.54525 26.0937 2.5409 25.8555C2.54021 25.8097 2.55771 25.7656 2.58955 25.7327C2.6214 25.6999 2.66498 25.681 2.71073 25.6803C2.73349 25.6795 2.75619 25.6833 2.77745 25.6915C2.79871 25.6997 2.8181 25.7121 2.83446 25.7279C2.85082 25.7438 2.8638 25.7628 2.87264 25.7838C2.88148 25.8048 2.88599 25.8273 2.8859 25.8501C2.88922 26.0659 2.90946 26.2881 2.94588 26.5103C2.94995 26.5351 2.94859 26.5603 2.9419 26.5845C2.93521 26.6086 2.92334 26.631 2.90712 26.6501C2.89091 26.6691 2.87073 26.6845 2.848 26.6949C2.82526 26.7054 2.80051 26.7109 2.77548 26.7108ZM2.75654 25.3368C2.73182 25.3368 2.70739 25.3315 2.68489 25.3212C2.66239 25.311 2.64234 25.296 2.62611 25.2774C2.60988 25.2588 2.59783 25.2369 2.59079 25.2132C2.58374 25.1895 2.58186 25.1645 2.58527 25.14C2.61837 24.9063 2.67055 24.6713 2.74036 24.4409C2.76796 24.3499 2.86335 24.2983 2.95571 24.326C3.04676 24.3538 3.09821 24.4502 3.07061 24.5414C3.00614 24.753 2.95816 24.9693 2.92709 25.1883C2.92131 25.2295 2.90087 25.2671 2.86954 25.2944C2.83821 25.3217 2.79808 25.3367 2.75654 25.3368ZM3.15227 24.0201C3.1233 24.0201 3.09479 24.0128 3.06938 23.9989C3.04397 23.985 3.02247 23.9649 3.00686 23.9405C2.99125 23.9161 2.98204 23.8881 2.98007 23.8592C2.9781 23.8303 2.98344 23.8014 2.9956 23.7751C3.09575 23.5601 3.20884 23.3514 3.33423 23.1501C3.3585 23.1114 3.39708 23.0838 3.44158 23.0734C3.48609 23.063 3.5329 23.0706 3.57184 23.0945C3.65278 23.1446 3.67764 23.2512 3.62749 23.3321C3.50952 23.5214 3.40319 23.7178 3.30909 23.9201C3.29517 23.9499 3.27302 23.9752 3.24525 23.9929C3.21747 24.0106 3.18522 24.02 3.15227 24.0201ZM3.87146 22.8449C3.83955 22.845 3.80824 22.8362 3.78102 22.8195C3.75381 22.8029 3.73176 22.779 3.71733 22.7505C3.70289 22.7221 3.69665 22.6902 3.69929 22.6584C3.70193 22.6266 3.71335 22.5961 3.73227 22.5704C3.86953 22.3827 4.01101 22.1981 4.15662 22.0167C4.18571 21.9825 4.22704 21.9609 4.27179 21.9566C4.31655 21.9524 4.3612 21.9657 4.39625 21.9939C4.4313 22.022 4.45397 22.0628 4.45945 22.1074C4.46493 22.152 4.45278 22.197 4.42559 22.2328C4.28335 22.4102 4.14504 22.5908 4.01079 22.7744C3.9947 22.7962 3.97372 22.814 3.94952 22.8262C3.92532 22.8385 3.89858 22.8449 3.87146 22.8449ZM15.0385 22.2623C15.0074 22.2623 14.9762 22.2603 14.9454 22.2564C14.8508 22.2442 14.784 22.1576 14.7961 22.0631C14.8083 21.9686 14.8959 21.9033 14.9892 21.914C15.1466 21.9354 15.3033 21.8641 15.4728 21.711C15.5068 21.6804 15.5516 21.6645 15.5973 21.6668C15.643 21.6691 15.6859 21.6895 15.7165 21.7235C15.7472 21.7574 15.7631 21.8022 15.7608 21.8479C15.7584 21.8936 15.7381 21.9365 15.7041 21.9672C15.4873 22.163 15.2633 22.2623 15.0385 22.2623ZM14.4259 21.8661C14.3699 21.8661 14.315 21.8388 14.2819 21.7887C14.1589 21.6024 14.0618 21.3714 13.9934 21.1023C13.9878 21.0803 13.9866 21.0575 13.9899 21.0351C13.9931 21.0126 14.0007 20.9911 14.0123 20.9716C14.0239 20.9522 14.0392 20.9352 14.0574 20.9216C14.0755 20.9081 14.0962 20.8983 14.1181 20.8927C14.1401 20.887 14.163 20.8857 14.1854 20.8889C14.2079 20.8921 14.2295 20.8997 14.249 20.9113C14.2685 20.9229 14.2855 20.9383 14.299 20.9565C14.3125 20.9747 14.3223 20.9954 14.3277 21.0174C14.3857 21.2457 14.4696 21.4465 14.5697 21.5986C14.5868 21.6246 14.5967 21.6547 14.5981 21.6859C14.5995 21.717 14.5925 21.7479 14.5777 21.7753C14.563 21.8028 14.5411 21.8257 14.5143 21.8417C14.4876 21.8577 14.457 21.8661 14.4259 21.8661ZM4.73518 21.7694C4.70191 21.7695 4.66933 21.76 4.64137 21.7419C4.61341 21.7239 4.59127 21.6982 4.57762 21.6678C4.56397 21.6375 4.5594 21.6039 4.56445 21.571C4.56951 21.5381 4.58398 21.5074 4.60611 21.4825C4.76037 21.3077 4.91952 21.1373 5.08335 20.9715C5.09909 20.9546 5.11804 20.9411 5.13908 20.9318C5.16012 20.9224 5.18283 20.9173 5.20586 20.9169C5.2289 20.9164 5.25179 20.9206 5.27319 20.9291C5.29458 20.9376 5.31405 20.9504 5.33044 20.9666C5.34684 20.9828 5.35982 21.0021 5.36862 21.0234C5.37742 21.0447 5.38187 21.0675 5.3817 21.0905C5.38153 21.1136 5.37675 21.1363 5.36763 21.1575C5.35851 21.1786 5.34525 21.1978 5.32862 21.2137C5.16944 21.3753 5.0146 21.5411 4.86424 21.7109C4.84816 21.7293 4.82832 21.7441 4.80605 21.7542C4.78379 21.7643 4.75962 21.7695 4.73518 21.7694ZM15.8051 21.3928C15.7641 21.3927 15.7245 21.378 15.6933 21.3514C15.6621 21.3247 15.6414 21.2879 15.6349 21.2474C15.6086 21.0816 15.5237 20.8884 15.3896 20.6885C15.3663 20.6505 15.3585 20.605 15.368 20.5614C15.3775 20.5178 15.4034 20.4796 15.4404 20.4547C15.4774 20.4299 15.5226 20.4203 15.5665 20.428C15.6104 20.4356 15.6497 20.46 15.676 20.496C15.8402 20.7405 15.9413 20.9751 15.976 21.193C15.9799 21.2177 15.9785 21.243 15.9717 21.2671C15.9649 21.2911 15.953 21.3134 15.9367 21.3324C15.9205 21.3514 15.9003 21.3667 15.8776 21.3771C15.8548 21.3875 15.8301 21.3929 15.8051 21.3928ZM5.70541 20.7888C5.67052 20.7888 5.63645 20.7782 5.6077 20.7584C5.57895 20.7387 5.55686 20.7106 5.54435 20.6781C5.53185 20.6455 5.52951 20.6099 5.53764 20.576C5.54578 20.542 5.56401 20.5114 5.58993 20.488C5.76375 20.3316 5.94268 20.1809 6.12643 20.0362C6.14421 20.0222 6.16458 20.0118 6.18638 20.0057C6.20817 19.9996 6.23096 19.9978 6.25344 20.0005C6.27592 20.0032 6.29764 20.0103 6.31737 20.0214C6.33709 20.0325 6.35443 20.0474 6.36838 20.0653C6.38241 20.0831 6.39279 20.1035 6.39892 20.1253C6.40506 20.1471 6.40683 20.17 6.40413 20.1925C6.40143 20.215 6.39432 20.2368 6.3832 20.2565C6.37208 20.2763 6.35717 20.2937 6.33933 20.3076C6.16178 20.4475 5.98892 20.5932 5.82104 20.7446C5.78924 20.773 5.74808 20.7887 5.70541 20.7888ZM14.0615 20.5503C14.0173 20.5503 13.9748 20.5334 13.9427 20.503C13.9107 20.4725 13.8915 20.431 13.8892 20.3868C13.8774 20.148 13.884 19.9085 13.909 19.6707C13.9188 19.576 14.0051 19.5094 14.0983 19.5169C14.1438 19.5217 14.1856 19.5444 14.2144 19.5799C14.2432 19.6155 14.2567 19.661 14.252 19.7065C14.229 19.9264 14.2228 20.1478 14.2335 20.3686C14.2347 20.3913 14.2314 20.4139 14.2239 20.4353C14.2163 20.4567 14.2047 20.4763 14.1895 20.4932C14.1743 20.5101 14.156 20.5238 14.1356 20.5335C14.1151 20.5433 14.0929 20.549 14.0703 20.5502L14.0615 20.5503ZM15.0866 20.2396C15.0431 20.2396 15.0001 20.2234 14.9664 20.1909C14.8067 20.0368 14.6362 19.8943 14.4562 19.7645C14.4369 19.7516 14.4203 19.735 14.4076 19.7156C14.3948 19.6961 14.3861 19.6743 14.382 19.6515C14.3778 19.6286 14.3784 19.6052 14.3835 19.5825C14.3887 19.5598 14.3984 19.5385 14.412 19.5196C14.4256 19.5008 14.4429 19.4849 14.4628 19.473C14.4827 19.461 14.5048 19.4531 14.5279 19.4499C14.5509 19.4467 14.5743 19.4482 14.5967 19.4542C14.6192 19.4602 14.6401 19.4708 14.6584 19.4851C14.8519 19.6246 15.0353 19.7776 15.207 19.9431C15.2318 19.967 15.2488 19.9978 15.2559 20.0315C15.2631 20.0651 15.2599 20.1002 15.247 20.132C15.234 20.1639 15.2119 20.1912 15.1833 20.2103C15.1547 20.2295 15.1211 20.2397 15.0866 20.2396ZM6.78983 19.9378C6.75283 19.9379 6.71678 19.9261 6.68701 19.9041C6.65724 19.8821 6.63533 19.8511 6.62452 19.8157C6.61371 19.7803 6.61458 19.7424 6.62699 19.7075C6.63939 19.6727 6.66269 19.6427 6.69343 19.6221C6.88796 19.4909 7.08762 19.3674 7.29193 19.252C7.31167 19.2409 7.33341 19.2338 7.35589 19.2311C7.37838 19.2284 7.40118 19.2301 7.42299 19.2362C7.44479 19.2423 7.46519 19.2527 7.483 19.2667C7.50081 19.2807 7.51569 19.298 7.5268 19.3177C7.5379 19.3375 7.54501 19.3592 7.54771 19.3817C7.55042 19.4042 7.54866 19.427 7.54256 19.4488C7.53645 19.4706 7.52611 19.491 7.51212 19.5088C7.49813 19.5266 7.48077 19.5415 7.46104 19.5526C7.26479 19.6636 7.07299 19.7822 6.88609 19.9083C6.85769 19.9276 6.82415 19.9379 6.78983 19.9378ZM13.9742 19.428C13.9459 19.428 13.9172 19.4211 13.8907 19.4065C13.6947 19.2981 13.493 19.2007 13.2864 19.1145C13.2443 19.0968 13.2109 19.063 13.1936 19.0207C13.1763 18.9784 13.1764 18.931 13.194 18.8888C13.2027 18.8679 13.2155 18.8489 13.2316 18.8329C13.2477 18.8169 13.2667 18.8043 13.2877 18.7957C13.3087 18.787 13.3311 18.7827 13.3538 18.7827C13.3764 18.7828 13.3989 18.7874 13.4198 18.7961C13.6371 18.887 13.8493 18.9896 14.0554 19.1036C14.0424 19.0837 14.0336 19.0614 14.0297 19.038C14.0257 19.0146 14.0267 18.9907 14.0324 18.9677C14.0896 18.737 14.1616 18.5103 14.2481 18.289C14.2648 18.2463 14.2977 18.2121 14.3396 18.1937C14.3816 18.1753 14.4291 18.1744 14.4717 18.1911C14.5144 18.2077 14.5487 18.2407 14.567 18.2826C14.5854 18.3246 14.5863 18.3721 14.5697 18.4147C14.4886 18.6221 14.4211 18.8345 14.3675 19.0507C14.3613 19.0762 14.3493 19.1 14.3325 19.1203C14.3157 19.1405 14.2944 19.1566 14.2704 19.1673C14.2463 19.178 14.2202 19.183 14.1939 19.182C14.1676 19.181 14.1419 19.174 14.1187 19.1615C14.1357 19.1875 14.1454 19.2177 14.1466 19.2487C14.1479 19.2797 14.1408 19.3106 14.1259 19.3379C14.1111 19.3652 14.0892 19.388 14.0625 19.4039C14.0358 19.4197 14.0053 19.4281 13.9742 19.428ZM7.99103 19.2618C7.95168 19.2617 7.91354 19.2481 7.88294 19.2234C7.85234 19.1986 7.83111 19.1642 7.82277 19.1257C7.81442 19.0873 7.81946 19.0471 7.83705 19.0119C7.85464 18.9767 7.88372 18.9486 7.91949 18.9321C8.13365 18.8344 8.35228 18.7469 8.57465 18.6697C8.61751 18.6562 8.66393 18.66 8.70406 18.6802C8.74419 18.7004 8.77487 18.7354 8.7896 18.7778C8.80432 18.8203 8.80193 18.8668 8.78293 18.9075C8.76392 18.9482 8.72981 18.9799 8.68782 18.9959C8.4755 19.0695 8.26676 19.153 8.06229 19.2462C8.03995 19.2565 8.01564 19.2619 7.99103 19.2618ZM12.703 18.8966C12.6869 18.8966 12.6704 18.8944 12.6539 18.8895C12.4392 18.8257 12.2213 18.7732 12.0011 18.7324C11.9788 18.7283 11.9575 18.7198 11.9385 18.7075C11.9195 18.6951 11.9031 18.6792 11.8903 18.6605C11.8775 18.6418 11.8684 18.6208 11.8637 18.5987C11.859 18.5765 11.8587 18.5536 11.8629 18.5314C11.8669 18.509 11.8753 18.4877 11.8875 18.4686C11.8998 18.4496 11.9158 18.4331 11.9345 18.4203C11.9532 18.4074 11.9742 18.3984 11.9964 18.3937C12.0186 18.389 12.0415 18.3888 12.0638 18.393C12.2946 18.4358 12.5261 18.4915 12.7523 18.5585C12.7921 18.5703 12.8264 18.596 12.8488 18.631C12.8711 18.666 12.8802 18.7078 12.8742 18.7489C12.8682 18.79 12.8476 18.8275 12.8161 18.8547C12.7847 18.8818 12.7446 18.8967 12.703 18.8966ZM23.6115 18.8875C23.5765 18.8874 23.5424 18.8767 23.5136 18.8568C23.4848 18.8369 23.4627 18.8087 23.4503 18.776C23.438 18.7432 23.4358 18.7075 23.4442 18.6735C23.4526 18.6395 23.4711 18.6089 23.4974 18.5857C23.5884 18.5052 23.6857 18.3877 23.7866 18.2364C23.8166 18.1915 23.8429 18.1442 23.865 18.095C23.8837 18.0533 23.9182 18.0207 23.9609 18.0043C24.0036 17.988 24.0511 17.9893 24.0928 18.008C24.1346 18.0267 24.1672 18.0612 24.1835 18.1039C24.1998 18.1466 24.1985 18.194 24.1798 18.2358C24.15 18.3029 24.1144 18.3672 24.0733 18.428C23.9564 18.6038 23.839 18.744 23.7259 18.8441C23.6932 18.8732 23.6523 18.8875 23.6115 18.8875ZM23.0447 18.8537C22.9809 18.8537 22.9197 18.8181 22.8896 18.757C22.8152 18.6046 22.7774 18.399 22.7774 18.1453C22.7772 18.0978 22.7785 18.047 22.7815 17.9946C22.7868 17.8998 22.8736 17.831 22.9632 17.8318C22.9858 17.833 23.008 17.8386 23.0284 17.8484C23.0489 17.8582 23.0672 17.8719 23.0823 17.8888C23.0974 17.9057 23.1091 17.9254 23.1166 17.9468C23.124 17.9682 23.1272 17.9909 23.1259 18.0135C23.1236 18.0586 23.1222 18.1022 23.1226 18.1442C23.1226 18.3404 23.1499 18.5039 23.1998 18.6055C23.2125 18.6318 23.2184 18.6609 23.2169 18.6901C23.2153 18.7193 23.2064 18.7477 23.1909 18.7725C23.1754 18.7973 23.1538 18.8177 23.1283 18.8319C23.1027 18.8461 23.0739 18.8536 23.0447 18.8537ZM9.29282 18.8113C9.25072 18.8111 9.21016 18.7954 9.17877 18.7674C9.14737 18.7393 9.1273 18.7008 9.12233 18.659C9.11736 18.6172 9.12783 18.575 9.15178 18.5404C9.17572 18.5057 9.21149 18.4811 9.25236 18.4709C9.48186 18.4158 9.71404 18.3724 9.94798 18.341C9.99327 18.3353 10.039 18.3477 10.0752 18.3754C10.1115 18.4031 10.1354 18.444 10.1418 18.4892C10.1448 18.5116 10.1434 18.5344 10.1376 18.5563C10.1318 18.5782 10.1217 18.5988 10.108 18.6168C10.0943 18.6348 10.0771 18.6499 10.0575 18.6613C10.0379 18.6727 10.0163 18.6801 9.9938 18.6831C9.77164 18.7128 9.55117 18.7541 9.33329 18.8067C9.32003 18.8098 9.30645 18.8113 9.29282 18.8113ZM11.3486 18.6457C11.3439 18.6457 11.3395 18.6455 11.3348 18.6452C11.1114 18.6278 10.8873 18.6223 10.6634 18.6288C10.5533 18.6279 10.4888 18.5559 10.4862 18.461C10.485 18.4152 10.502 18.3709 10.5334 18.3376C10.5649 18.3044 10.6083 18.285 10.654 18.2838C10.8901 18.2775 11.1263 18.2834 11.3618 18.3013C11.3844 18.303 11.4064 18.3092 11.4265 18.3195C11.4467 18.3297 11.4647 18.3439 11.4794 18.3611C11.4941 18.3783 11.5053 18.3982 11.5123 18.4198C11.5193 18.4413 11.522 18.464 11.5202 18.4866C11.5169 18.5298 11.4974 18.5702 11.4656 18.5997C11.4338 18.6292 11.392 18.6456 11.3486 18.6457ZM14.7012 17.8996C14.6712 17.8996 14.6417 17.8918 14.6157 17.8769C14.5897 17.862 14.568 17.8406 14.5527 17.8148C14.5375 17.789 14.5292 17.7596 14.5288 17.7296C14.5283 17.6996 14.5357 17.6701 14.5501 17.6438C14.6645 17.4359 14.7918 17.2354 14.9313 17.0434C14.9872 16.9659 15.095 16.9493 15.1722 17.0054C15.2494 17.0615 15.2663 17.1691 15.2102 17.2463C15.0793 17.4268 14.9597 17.6151 14.8519 17.8103C14.8371 17.8373 14.8153 17.8599 14.7888 17.8756C14.7623 17.8913 14.732 17.8996 14.7012 17.8996ZM24.1118 17.663C24.0265 17.663 23.9523 17.5999 23.9409 17.513C23.9159 17.3224 23.8489 17.123 23.7415 16.9206C23.72 16.8802 23.7155 16.8329 23.7289 16.7891C23.7422 16.7454 23.7725 16.7087 23.8129 16.6873C23.8533 16.6658 23.9005 16.6613 23.9443 16.6747C23.988 16.6881 24.0247 16.7183 24.0461 16.7587C24.1732 16.9977 24.2527 17.2364 24.2835 17.4677C24.2867 17.4922 24.2846 17.517 24.2775 17.5405C24.2703 17.5641 24.2582 17.5859 24.2419 17.6043C24.2257 17.6228 24.2056 17.6376 24.1832 17.6478C24.1607 17.6579 24.1364 17.6631 24.1118 17.663ZM23.0596 17.4951C23.0335 17.4951 23.0077 17.4892 22.9843 17.4778C22.9608 17.4664 22.9402 17.4498 22.924 17.4293C22.9079 17.4088 22.8966 17.3849 22.891 17.3595C22.8854 17.334 22.8857 17.3075 22.8918 17.2822C22.948 17.0518 23.018 16.8249 23.1013 16.6029C23.1347 16.5136 23.2347 16.4685 23.3235 16.5016C23.4128 16.5348 23.4583 16.6342 23.4249 16.7234C23.3462 16.9322 23.2803 17.1457 23.2275 17.3625C23.2184 17.4003 23.1969 17.4338 23.1665 17.4579C23.136 17.4819 23.0984 17.495 23.0596 17.4951ZM15.51 16.7854C15.4763 16.7855 15.4433 16.7758 15.4151 16.7573C15.3869 16.7389 15.3648 16.7126 15.3514 16.6817C15.338 16.6508 15.3339 16.6167 15.3397 16.5835C15.3455 16.5503 15.3609 16.5196 15.384 16.4951C15.5458 16.3221 15.7178 16.1589 15.8989 16.0062C15.9162 15.9913 15.9362 15.9799 15.9579 15.9727C15.9796 15.9655 16.0025 15.9627 16.0253 15.9645C16.0481 15.9663 16.0703 15.9725 16.0906 15.983C16.111 15.9934 16.129 16.0077 16.1438 16.0252C16.1585 16.0426 16.1696 16.0629 16.1765 16.0847C16.1833 16.1064 16.1858 16.1294 16.1837 16.1521C16.1816 16.1749 16.175 16.197 16.1643 16.2172C16.1536 16.2374 16.139 16.2552 16.1213 16.2697C15.9508 16.4138 15.7887 16.5677 15.636 16.7306C15.6199 16.7479 15.6004 16.7617 15.5787 16.7712C15.557 16.7806 15.5336 16.7854 15.51 16.7854ZM23.5004 16.4476C23.4526 16.4476 23.4047 16.4276 23.3703 16.3887C23.2249 16.2233 23.0654 16.0708 22.8938 15.9328C22.8582 15.9041 22.8354 15.8624 22.8304 15.8169C22.8255 15.7714 22.8388 15.7258 22.8675 15.6902C22.8962 15.6546 22.9379 15.6318 22.9834 15.627C23.0289 15.6221 23.0745 15.6354 23.1102 15.6641C23.2103 15.7446 23.3066 15.8296 23.3989 15.9188C23.4982 15.72 23.6055 15.5253 23.7204 15.335C23.7449 15.2978 23.7829 15.2714 23.8264 15.2615C23.8699 15.2517 23.9156 15.259 23.9538 15.2821C23.992 15.3051 24.0197 15.3421 24.0313 15.3852C24.0428 15.4283 24.0372 15.4742 24.0156 15.5133C23.8993 15.706 23.7912 15.9037 23.6918 16.1057C23.6791 16.1312 23.6603 16.1533 23.6371 16.1699C23.6639 16.2046 23.6764 16.2483 23.6721 16.2919C23.6677 16.3356 23.6469 16.3759 23.6139 16.4047C23.5812 16.4336 23.5409 16.4476 23.5004 16.4476ZM33.1327 15.9739C33.0666 15.9739 33.0036 15.9356 32.975 15.8714C32.974 15.8691 32.8659 15.6266 32.6643 15.2699C32.6526 15.2501 32.6449 15.2282 32.6418 15.2054C32.6387 15.1827 32.6401 15.1595 32.6461 15.1373C32.652 15.1151 32.6623 15.0944 32.6764 15.0762C32.6905 15.0581 32.708 15.0429 32.7281 15.0316C32.7481 15.0204 32.7701 15.0132 32.7929 15.0106C32.8158 15.0079 32.8389 15.0099 32.8609 15.0163C32.883 15.0227 32.9036 15.0334 32.9214 15.0479C32.9392 15.0623 32.954 15.0802 32.9649 15.1005C33.1752 15.4729 33.2857 15.7211 33.2904 15.7313C33.302 15.7576 33.3068 15.7864 33.3045 15.815C33.3022 15.8436 33.2928 15.8712 33.2772 15.8953C33.2615 15.9194 33.2401 15.9392 33.2149 15.9529C33.1897 15.9666 33.1614 15.9738 33.1327 15.9739ZM16.5607 15.896C16.5237 15.8961 16.4877 15.8842 16.4579 15.8623C16.4281 15.8403 16.4062 15.8093 16.3954 15.7739C16.3846 15.7385 16.3855 15.7006 16.3979 15.6657C16.4103 15.6309 16.4336 15.6009 16.4643 15.5803C16.5444 15.5264 16.6256 15.4743 16.708 15.4241C16.829 15.3499 16.9504 15.281 17.0719 15.2168C17.092 15.2053 17.1142 15.1979 17.1373 15.1951C17.1603 15.1923 17.1836 15.1942 17.2059 15.2007C17.2281 15.2071 17.2489 15.2179 17.2669 15.2326C17.2848 15.2472 17.2997 15.2653 17.3105 15.2858C17.3213 15.3063 17.3279 15.3288 17.3299 15.3519C17.3318 15.375 17.3291 15.3982 17.3219 15.4202C17.3147 15.4423 17.3031 15.4626 17.2878 15.48C17.2726 15.4975 17.2539 15.5117 17.2331 15.5218C17.1182 15.5826 17.0028 15.6481 16.8884 15.7185C16.8089 15.7669 16.732 15.8162 16.6571 15.8665C16.6287 15.8857 16.5951 15.896 16.5607 15.896ZM22.4345 15.5792C22.4044 15.5792 22.3745 15.5716 22.3469 15.5555C22.1552 15.4429 21.9562 15.3434 21.7511 15.2577C21.7102 15.2392 21.6781 15.2055 21.6616 15.1638C21.6451 15.122 21.6456 15.0754 21.6629 15.034C21.6802 14.9926 21.7129 14.9595 21.7542 14.9418C21.7955 14.9241 21.842 14.9232 21.884 14.9393C22.1037 15.031 22.3169 15.1375 22.5222 15.258C22.5548 15.2773 22.5801 15.3067 22.5943 15.3417C22.6086 15.3768 22.6109 15.4156 22.6009 15.4521C22.5909 15.4886 22.5692 15.5208 22.5392 15.5437C22.5091 15.5667 22.4723 15.5791 22.4345 15.5792ZM17.7793 15.2535C17.7105 15.2535 17.6454 15.212 17.6185 15.1441C17.6019 15.1015 17.6028 15.054 17.6211 15.0121C17.6395 14.9701 17.6737 14.9371 17.7163 14.9204C17.9368 14.8336 18.1623 14.7601 18.3916 14.7003C18.4847 14.6757 18.5784 14.7318 18.6022 14.824C18.6261 14.9162 18.5706 15.0103 18.4785 15.0343C18.2625 15.0906 18.05 15.1598 17.8423 15.2415C17.8222 15.2494 17.8008 15.2535 17.7793 15.2535ZM21.1646 15.0474C21.1494 15.0474 21.1342 15.0454 21.1195 15.0415C20.9047 14.9834 20.6863 14.9394 20.4657 14.9098C20.4432 14.9068 20.4216 14.8994 20.402 14.888C20.3824 14.8767 20.3652 14.8615 20.3514 14.8435C20.3236 14.8072 20.3114 14.7612 20.3175 14.7159C20.3236 14.6705 20.3475 14.6294 20.3838 14.6016C20.4202 14.5738 20.4661 14.5617 20.5115 14.5677C20.7463 14.5992 20.9812 14.6464 21.2097 14.7081C21.3018 14.7331 21.356 14.8277 21.331 14.9197C21.3212 14.9563 21.2996 14.9887 21.2695 15.0118C21.2394 15.0349 21.2026 15.0475 21.1646 15.0474ZM24.2485 15.0213C24.2168 15.0212 24.1857 15.0124 24.1586 14.9959C24.1316 14.9793 24.1096 14.9556 24.0951 14.9274C24.0807 14.8992 24.0742 14.8675 24.0765 14.8359C24.0789 14.8043 24.0898 14.7739 24.1083 14.7481C24.2451 14.5577 24.3891 14.3727 24.54 14.1932C24.5694 14.1583 24.6116 14.1364 24.6571 14.1324C24.7026 14.1284 24.7479 14.1427 24.783 14.172C24.8561 14.2331 24.8655 14.342 24.8042 14.415C24.659 14.5877 24.5204 14.766 24.3887 14.9493C24.3727 14.9716 24.3517 14.9897 24.3273 15.0023C24.3029 15.0148 24.2759 15.0213 24.2485 15.0213ZM19.1118 14.9087C19.0684 14.908 19.0268 14.8909 18.9953 14.8609C18.9639 14.8309 18.9449 14.7902 18.9422 14.7468C18.9395 14.7034 18.9532 14.6606 18.9807 14.6269C19.0081 14.5932 19.0473 14.5711 19.0903 14.565C19.3224 14.5353 19.556 14.5203 19.79 14.5202C19.8854 14.5202 19.9679 14.5975 19.9679 14.6927C19.9679 14.7881 19.8958 14.8655 19.8004 14.8655L19.7822 14.8652C19.5655 14.8656 19.349 14.8798 19.1341 14.9075C19.1267 14.9082 19.1193 14.9086 19.1118 14.9087ZM32.4557 14.7665C32.3995 14.7665 32.3446 14.739 32.3112 14.6883C32.1873 14.4986 32.0571 14.3133 31.9206 14.1325C31.9069 14.1145 31.8969 14.0939 31.8911 14.072C31.8854 14.0501 31.884 14.0272 31.8871 14.0048C31.8902 13.9823 31.8977 13.9607 31.9092 13.9412C31.9207 13.9216 31.9359 13.9045 31.954 13.8909C31.9905 13.8634 32.0365 13.8514 32.0817 13.8577C32.127 13.8639 32.168 13.8879 32.1957 13.9243C32.3373 14.1112 32.4723 14.3031 32.6004 14.4995C32.6173 14.5256 32.627 14.5557 32.6282 14.5868C32.6295 14.6179 32.6223 14.6487 32.6075 14.676C32.5927 14.7034 32.5707 14.7262 32.544 14.7421C32.5173 14.758 32.4868 14.7664 32.4557 14.7665ZM25.1345 13.9645C25.1006 13.9644 25.0675 13.9545 25.0392 13.9358C25.011 13.917 24.9889 13.8904 24.9756 13.8592C24.9624 13.828 24.9587 13.7936 24.9648 13.7603C24.971 13.727 24.9869 13.6963 25.0105 13.6719C25.1734 13.5039 25.3418 13.3413 25.5156 13.1846C25.5324 13.1694 25.5521 13.1577 25.5735 13.1501C25.5948 13.1426 25.6175 13.1393 25.6401 13.1405C25.6627 13.1417 25.6849 13.1473 25.7054 13.1571C25.7258 13.1669 25.7441 13.1806 25.7593 13.1974C25.8233 13.2682 25.8175 13.3772 25.7468 13.4411C25.5787 13.5924 25.4158 13.7494 25.2585 13.9118C25.2424 13.9286 25.2232 13.9418 25.2019 13.9509C25.1805 13.9599 25.1576 13.9645 25.1345 13.9645ZM31.6189 13.6674C31.5717 13.6674 31.5245 13.6481 31.4905 13.6102C31.3409 13.4429 31.183 13.2831 31.0173 13.1317C30.9835 13.1008 30.9634 13.0578 30.9612 13.0121C30.9591 12.9664 30.9751 12.9217 31.0059 12.8878C31.0368 12.8541 31.0798 12.8339 31.1256 12.8318C31.1713 12.8297 31.216 12.8458 31.2499 12.8766C31.424 13.0359 31.59 13.2038 31.7473 13.3797C31.7696 13.4045 31.7842 13.4352 31.7893 13.4682C31.7945 13.5011 31.79 13.5348 31.7764 13.5652C31.7628 13.5957 31.7407 13.6215 31.7128 13.6397C31.6848 13.6578 31.6522 13.6674 31.6189 13.6674ZM26.158 13.0403C26.1221 13.0404 26.087 13.0293 26.0577 13.0085C26.0283 12.9876 26.0063 12.9582 25.9945 12.9242C25.9828 12.8902 25.982 12.8534 25.9922 12.8189C26.0024 12.7844 26.0231 12.754 26.0515 12.7319L26.1244 12.6748C26.2865 12.5482 26.4554 12.4304 26.6302 12.3219C26.6691 12.2978 26.716 12.2902 26.7606 12.3007C26.8051 12.3112 26.8436 12.339 26.8677 12.3779C26.8917 12.4169 26.8993 12.4637 26.8888 12.5083C26.8783 12.5528 26.8505 12.5913 26.8116 12.6154C26.6475 12.7173 26.489 12.8279 26.3368 12.9468L26.2647 13.0036C26.2342 13.0274 26.1967 13.0403 26.158 13.0403ZM30.596 12.7437C30.5616 12.7437 30.5269 12.7336 30.4969 12.7124C30.3164 12.585 30.1261 12.4723 29.9277 12.3752C29.8865 12.3553 29.8549 12.3198 29.8398 12.2765C29.8248 12.2333 29.8276 12.1859 29.8475 12.1447C29.8674 12.1035 29.9029 12.0719 29.9461 12.0568C29.9894 12.0418 30.0368 12.0445 30.078 12.0644C30.2931 12.1696 30.4994 12.2919 30.695 12.43C30.7136 12.4429 30.7295 12.4595 30.7417 12.4786C30.7539 12.4977 30.7621 12.5191 30.766 12.5414C30.77 12.5637 30.7694 12.5866 30.7644 12.6088C30.7595 12.6309 30.7502 12.6518 30.7371 12.6703C30.7035 12.7182 30.6504 12.7437 30.596 12.7437ZM27.3331 12.3236C27.2933 12.3235 27.2547 12.3097 27.224 12.2844C27.1932 12.2592 27.1721 12.2241 27.1642 12.1851C27.1564 12.1461 27.1623 12.1056 27.1809 12.0704C27.1994 12.0352 27.2296 12.0075 27.2663 11.992C27.4886 11.898 27.7197 11.8261 27.9561 11.7774C28.001 11.7685 28.0475 11.7777 28.0856 11.8029C28.1237 11.8281 28.1503 11.8674 28.1596 11.9121C28.1642 11.9343 28.1643 11.9572 28.1599 11.9794C28.1556 12.0017 28.1469 12.0229 28.1344 12.0417C28.1219 12.0606 28.1057 12.0769 28.0869 12.0895C28.0681 12.1022 28.047 12.111 28.0248 12.1155C27.8106 12.1598 27.6012 12.2251 27.3997 12.3103C27.378 12.3194 27.3553 12.3236 27.3331 12.3236ZM29.3572 12.1535C29.3428 12.1535 29.3284 12.1517 29.3145 12.1481C29.1043 12.0938 28.8887 12.0634 28.6717 12.0577C28.626 12.0565 28.5825 12.0372 28.551 12.004C28.5194 11.9708 28.5024 11.9265 28.5035 11.8807C28.5058 11.7855 28.5908 11.7124 28.6804 11.7125C28.9207 11.7187 29.1627 11.7528 29.3999 11.8138C29.4403 11.8245 29.4754 11.8496 29.4988 11.8842C29.5222 11.9189 29.5322 11.9608 29.527 12.0023C29.5217 12.0438 29.5017 12.0819 29.4705 12.1097C29.4393 12.1375 29.399 12.1531 29.3572 12.1535ZM10.1899 16.319C10.1801 16.319 10.1704 16.3181 10.1603 16.3166C10.0148 16.2911 6.58633 15.6773 5.70469 14.1464C5.46607 13.7322 5.43109 13.2886 5.60092 12.8279C5.90993 11.9884 6.47981 11.8121 6.90343 11.8121C7.35509 11.8121 7.78262 12.0048 8.08165 12.1831C8.24541 11.2874 8.88438 10.1942 9.82773 10.1942C9.96954 10.1949 10.1103 10.2185 10.2446 10.2642C11.7078 10.752 10.4997 15.6342 10.3572 16.1894C10.3476 16.2265 10.326 16.2593 10.2957 16.2828C10.2654 16.3063 10.2282 16.319 10.1899 16.319ZM6.90343 12.1571C6.44715 12.1571 6.11747 12.4229 5.92438 12.9471C5.78997 13.3122 5.81584 13.6481 6.00358 13.9739C6.70485 15.1921 9.38316 15.8077 10.0625 15.946C10.5544 13.9595 10.9866 10.8754 10.1353 10.5914C10.0362 10.5576 9.93229 10.5401 9.82759 10.5394C9.05117 10.5394 8.48966 11.592 8.39832 12.3972C8.61598 12.5648 9.15191 13.0189 9.0451 13.3534C9.02559 13.4142 8.95448 13.5556 8.71586 13.5556C8.69056 13.5556 8.66368 13.5541 8.63362 13.5508C8.24338 13.5073 8.02529 13.1415 8.04089 12.5651C7.65225 12.3049 7.24178 12.1571 6.90343 12.1571ZM8.40454 12.8516C8.43792 13.0418 8.51915 13.1909 8.67206 13.2078C8.6809 13.2089 8.68977 13.2096 8.69866 13.2101C8.66296 13.1327 8.56453 13.001 8.40454 12.8516ZM70.2736 57.2519C70.1883 57.2519 70.1149 57.189 70.1028 57.1036C70.0822 56.9592 69.6141 53.5519 70.7686 52.2219C71.076 51.8681 71.4699 51.6886 71.9398 51.6886L72.0139 51.69C72.5557 51.7113 72.9558 51.9004 73.2032 52.2522C73.5547 52.7522 73.49 53.4208 73.393 53.8502C73.5358 53.8308 73.6797 53.8212 73.8237 53.8214C74.5237 53.8214 75.1566 54.0385 75.5175 54.4023C75.7648 54.6513 75.8885 54.9589 75.8859 55.316C75.8735 56.8584 70.8563 57.2157 70.2844 57.2514C70.2808 57.2517 70.2772 57.2518 70.2736 57.2519ZM71.9398 52.0337C71.569 52.0337 71.2714 52.1694 71.0292 52.4482C70.1088 53.5085 70.3475 56.2124 70.4249 56.8963C72.4661 56.7512 75.5337 56.2108 75.5408 55.3134C75.5428 55.0515 75.4524 54.8268 75.2725 54.6452C74.9752 54.3455 74.4336 54.1665 73.8237 54.1665C73.6436 54.1659 73.4639 54.1832 73.2872 54.2181C73.1949 54.4771 72.9276 55.1283 72.5758 55.1284C72.502 55.1284 72.3238 55.0962 72.2623 54.7981C72.1831 54.4131 72.4638 54.093 73.0172 53.9297C73.1878 53.3294 73.1534 52.7815 72.9208 52.4508C72.7389 52.1917 72.4291 52.0516 72.0005 52.0347L71.9398 52.0337ZM72.8571 54.3637C72.6863 54.4543 72.5693 54.5777 72.6 54.7285C72.6027 54.7406 72.6053 54.751 72.6078 54.76C72.6646 54.7068 72.7613 54.5698 72.8571 54.3637Z" fill="#241726"/>
</g>
<defs>
<clipPath id="clip0_984_860">
<rect width="74" height="74" fill="white" transform="translate(1.88574 8.03577)"/>
</clipPath>
</defs>
</svg>
