<svg width="79" height="83" viewBox="0 0 79 83" fill="none" xmlns="http://www.w3.org/2000/svg">
<path fill-rule="evenodd" clip-rule="evenodd" d="M30.5301 5.9878C36.6005 5.71566 38.0883 16.5968 43.2679 19.8934C47.4886 22.5798 54.2967 20.4571 58.2051 23.602C64.8814 35.0359 70.9743 29.645 72.4043 35.9235C73.814 42.113 68.0752 45.5359 64.8814 52.9153C62.5457 58.3122 62.0524 64.5701 58.1348 68.8943C53.9811 73.4789 48.4763 77.7437 42.3438 77.7917C36.2633 77.8393 31.3269 72.9153 26.4622 69.1423C22.5872 66.1369 20.7063 59.1715 17.3858 55.5359C13.7941 51.6034 8.17134 51.7704 6.08741 46.8344C3.81017 41.4405 10.1039 37.5896 11.8858 32.0357C13.6894 26.414 11.6099 20.2098 15.8985 16.2549C20.3666 12.1344 24.4999 6.25814 30.5301 5.9878Z" fill="#D2DCDD"/>
<g clip-path="url(#clip0_1160_1351)">
<path d="M19.7212 72.8514C19.7212 72.8514 2.79604 74.4947 10.8703 78.4526C14.288 80.128 48.9913 85.8643 68.9823 77.9677C73.8944 76.0273 59.6885 72.5334 59.6885 72.5334" fill="#A8D5CB"/>
<path d="M71.1668 60.1487C71.1668 60.1487 62.7619 61.7512 58.1348 59.9138C53.5076 58.0764 53.5444 73.3137 59.1589 75.0756C64.7734 76.8374 74.51 71.6054 73.5674 70.9241C72.6247 70.2427 66.8141 67.2631 66.9793 66.7367C67.1447 66.2103 72.4912 62.6843 71.1668 60.1487Z" fill="#F6D76E"/>
<path d="M56.9291 72.8848C56.8929 72.8848 56.8574 72.8739 56.8275 72.8534C56.7976 72.833 56.7746 72.8039 56.7615 72.7701C56.7485 72.7363 56.746 72.6993 56.7544 72.664C56.7628 72.6288 56.7817 72.5969 56.8086 72.5726C59.0426 70.542 63.0081 70.1775 63.1759 70.1629C63.2716 70.1515 63.3616 70.2273 63.37 70.3261C63.3784 70.425 63.3055 70.5118 63.2067 70.5204C63.1668 70.5238 59.1935 70.8898 57.0496 72.8381C57.0168 72.8682 56.9737 72.8849 56.9291 72.8848Z" fill="#241726"/>
<path d="M11.393 42.6484C11.393 42.6484 18.2396 47.7802 23.2036 48.1621C28.1675 48.544 21.441 62.2163 15.6233 61.3328C9.80551 60.4493 3.35711 51.4719 4.50309 51.2739C5.64908 51.0758 12.178 50.9516 12.2608 50.4061C12.3436 49.8608 9.0895 44.3446 11.393 42.6484Z" fill="#F6D76E"/>
<path d="M16.7733 54.8592C14.7395 54.8592 13.1962 54.1207 13.1638 54.1048C13.1212 54.0837 13.0887 54.0465 13.0735 54.0015C13.0582 53.9565 13.0614 53.9072 13.0825 53.8646C13.1036 53.822 13.1407 53.7896 13.1857 53.7743C13.2307 53.7591 13.2798 53.7622 13.3225 53.783C13.5853 53.9121 19.801 56.872 23.5734 50.0884C23.6214 50.0012 23.7308 49.9706 23.8174 50.0189C23.9039 50.0671 23.9352 50.1763 23.8867 50.263C21.8253 53.9701 19.0042 54.8592 16.7733 54.8592Z" fill="#241726"/>
<path d="M27.2665 28.2412C27.2665 28.2412 26.747 39.2674 27.5714 39.5383C28.3958 39.809 48.4667 39.7331 48.8691 39.6165C49.2715 39.4999 49.8067 28.8768 48.7035 28.4149C47.6004 27.9531 27.2665 28.2412 27.2665 28.2412Z" fill="#EB7E95"/>
<path d="M23.293 37.2205C23.293 37.2205 22.5335 52.7378 23.718 53.1179C24.9025 53.498 53.7493 53.3676 54.3277 53.2029C54.9062 53.0382 55.6878 38.0884 54.1029 37.4399C52.5179 36.7913 23.293 37.2205 23.293 37.2205Z" fill="#F6CBC0"/>
<path d="M14.5598 37.5246C14.4228 37.5246 14.2927 37.5246 13.92 36.0373C12.6556 35.7945 12.5466 35.6485 12.5102 35.5997C12.477 35.555 12.4625 35.4712 12.4777 35.4174C12.5001 35.3382 12.552 35.1547 13.9927 34.5741C14.5092 33.2274 14.6866 33.2274 14.7934 33.2274C14.8498 33.2274 14.9297 33.2688 14.9634 33.3142C15.0548 33.4369 15.1382 33.7585 15.2651 34.274C15.3057 34.4397 15.3552 34.6401 15.3829 34.7241C15.4569 34.7578 15.6282 34.8192 15.7698 34.8701C16.495 35.13 16.696 35.2245 16.7294 35.394C16.7412 35.4562 16.709 35.5485 16.662 35.5907C16.5124 35.725 15.792 35.9919 15.4183 36.1248C14.809 37.5115 14.6772 37.5185 14.5707 37.5243C14.5672 37.5246 14.563 37.5246 14.5598 37.5246ZM12.9581 35.4449C13.2059 35.5193 13.6835 35.6285 14.0995 35.7059C14.1686 35.7189 14.2239 35.7711 14.2407 35.8395C14.3465 36.2692 14.486 36.7591 14.5834 37.0252C14.7231 36.7778 14.943 36.317 15.1206 35.91C15.1405 35.8645 15.1784 35.8291 15.2254 35.8126C15.5814 35.6873 15.984 35.5328 16.2231 35.4264C16.0521 35.3527 15.8057 35.2644 15.6487 35.208C15.2286 35.0573 15.1494 35.0249 15.0972 34.9545C15.0512 34.8929 15.0197 34.7796 14.9167 34.3598C14.8749 34.1901 14.8097 33.9256 14.7533 33.738C14.6265 33.9743 14.4425 34.3992 14.3002 34.7751C14.2914 34.7984 14.2778 34.8195 14.2604 34.8373C14.2429 34.855 14.222 34.8689 14.1989 34.8782C13.7389 35.0617 13.2164 35.2969 12.9581 35.4449ZM68.0102 55.7822C67.8732 55.7822 67.7431 55.7822 67.3704 54.2949C66.106 54.0521 65.9971 53.9062 65.9606 53.8573C65.9274 53.8127 65.9129 53.7288 65.9281 53.675C65.9505 53.5958 66.0024 53.4123 67.4431 52.8317C67.9596 51.485 68.137 51.485 68.2438 51.485C68.3002 51.485 68.3801 51.5264 68.4138 51.5718C68.5052 51.6945 68.5886 52.0161 68.7155 52.5317C68.7562 52.6973 68.8056 52.8978 68.8333 52.9817C68.9073 53.0154 69.0786 53.0768 69.2202 53.1277C69.9454 53.3876 70.1464 53.4821 70.1798 53.6516C70.1916 53.7138 70.1594 53.8061 70.1126 53.8484C69.9633 53.9823 69.2425 54.2496 68.8689 54.3824C68.2595 55.7695 68.1274 55.7762 68.0208 55.7819C68.0176 55.7822 68.0134 55.7822 68.0102 55.7822ZM66.4084 53.7027C66.6561 53.7771 67.1338 53.8864 67.5497 53.9637C67.6188 53.9767 67.6742 54.0289 67.691 54.0972C67.7972 54.5269 67.9362 55.0169 68.0336 55.283C68.1734 55.0355 68.3932 54.5748 68.5709 54.1678C68.5908 54.1222 68.6287 54.0868 68.6756 54.0704C69.0316 53.945 69.4343 53.7905 69.6733 53.6842C69.5024 53.6105 69.2559 53.5221 69.099 53.4658C68.6788 53.315 68.5996 53.2827 68.5475 53.2123C68.5015 53.1507 68.47 53.0374 68.3669 52.6175C68.3252 52.448 68.26 52.1833 68.2036 51.9957C68.0767 52.2321 67.8927 52.657 67.7505 53.0329C67.7417 53.0561 67.7281 53.0773 67.7106 53.095C67.6932 53.1128 67.6723 53.1267 67.6492 53.136C67.1893 53.3194 66.6667 53.5545 66.4084 53.7027ZM53.8191 18.0423C53.6821 18.0423 53.552 18.0423 53.1793 16.5551C51.9149 16.3123 51.806 16.1663 51.7695 16.1175C51.7363 16.0728 51.7218 15.9888 51.737 15.9352C51.7594 15.856 51.8116 15.672 53.2523 15.0919C53.7684 13.7451 53.9391 13.7451 54.0527 13.7451C54.1095 13.7451 54.189 13.7866 54.223 13.8323C54.3144 13.9547 54.3978 14.277 54.5247 14.793C54.5653 14.9582 54.6145 15.1581 54.6421 15.242C54.7164 15.2757 54.8874 15.3371 55.029 15.3879C55.7544 15.6479 55.9552 15.7423 55.9885 15.9118C56.0008 15.9738 55.9686 16.0663 55.9216 16.1085C55.7716 16.2428 55.0511 16.5099 54.6777 16.6427C54.0683 18.0295 53.9365 18.0364 53.83 18.0422L53.8191 18.0423ZM52.217 15.9627C52.4652 16.0371 52.9427 16.1462 53.3587 16.2237C53.4277 16.2367 53.4831 16.2889 53.4999 16.3572C53.6057 16.7869 53.7451 17.2769 53.8426 17.543C53.9823 17.2955 54.2021 16.8348 54.3798 16.4278C54.3997 16.3822 54.4376 16.3468 54.4846 16.3303C54.8405 16.205 55.2432 16.0505 55.4825 15.9442C55.3111 15.8704 55.0648 15.7821 54.9079 15.7256C54.4877 15.5752 54.4085 15.5427 54.3564 15.4723C54.3104 15.4106 54.2793 15.2975 54.1763 14.8787C54.1345 14.7087 54.0693 14.4438 54.013 14.2557C53.8861 14.4921 53.7021 14.917 53.5598 15.2929C53.551 15.3161 53.5374 15.3373 53.52 15.355C53.5025 15.3728 53.4816 15.3867 53.4585 15.396C52.9981 15.5794 52.4753 15.8145 52.217 15.9627ZM21.257 29.9767H21.251C20.5148 29.9735 19.9188 29.372 19.9218 28.6359C19.9245 27.9031 20.5232 27.3069 21.2562 27.3069C21.9984 27.3101 22.5946 27.9116 22.5914 28.6477C22.5882 29.3805 21.9895 29.9767 21.257 29.9767ZM21.2609 27.6658C20.7205 27.6658 20.2828 28.1017 20.2807 28.6375C20.2797 28.7657 20.3042 28.8928 20.3528 29.0115C20.4013 29.1302 20.473 29.2381 20.5635 29.3289C20.6535 29.4202 20.7608 29.4928 20.8791 29.5424C20.9973 29.592 21.1242 29.6176 21.2525 29.6178L21.2571 29.7972V29.6178C21.7926 29.6178 22.2302 29.1819 22.2327 28.6459C22.2335 28.3871 22.1316 28.1386 21.9494 27.9549C21.7673 27.7711 21.5196 27.6672 21.2609 27.6658ZM60.2226 41.0108H60.217C59.8603 41.0092 59.5255 40.8689 59.2746 40.6156C59.0237 40.3624 58.8864 40.0265 58.8877 39.6698C58.8909 38.9371 59.4897 38.3409 60.2225 38.3409C60.9646 38.344 61.5608 38.9456 61.5576 39.6817C61.5546 40.4146 60.9557 41.0108 60.2226 41.0108ZM60.2272 38.6997C59.6868 38.6997 59.2492 39.1356 59.2467 39.6717C59.2458 39.7999 59.2703 39.9271 59.3189 40.0458C59.3674 40.1644 59.439 40.2723 59.5296 40.3631C59.6196 40.4545 59.7269 40.527 59.8451 40.5766C59.9634 40.6262 60.0903 40.6519 60.2185 40.6521L60.2227 40.8314V40.6521C60.7585 40.6521 61.1966 40.216 61.199 39.6799C61.2 39.5517 61.1754 39.4246 61.1269 39.306C61.0783 39.1873 61.0067 39.0795 60.9162 38.9887C60.8261 38.8974 60.7189 38.8248 60.6006 38.7752C60.4824 38.7256 60.3555 38.7 60.2272 38.6997Z" fill="#241726"/>
<path d="M57.699 27.3766C57.699 27.3766 57.2937 24.4239 60.143 25.3646C62.9923 26.3052 62.0803 29.0156 60.991 28.0956C59.9016 27.1758 61.919 24.0249 64.103 25.4111C66.287 26.7973 65.815 29.5129 64.2723 29.7214C62.7295 29.93 65.1896 26.5577 67.1455 28.6214C69.1015 30.6853 64.8761 34.4904 63.1322 33.1094C61.3883 31.7284 62.7349 29.4766 63.1589 30.8421C63.583 32.2077 62.4669 33.5551 59.387 33.5189C56.307 33.4826 57.6829 28.7369 58.7669 30.1102C59.8509 31.4836 58.0723 33.0499 55.8909 31.4369C53.7096 29.8241 56.1695 26.4516 57.699 27.3766Z" fill="white"/>
<path d="M59.5076 33.6991L59.3846 33.6983C58.3792 33.6865 57.6703 33.1736 57.4201 32.2848C56.8881 32.223 56.3254 31.9815 55.7843 31.5811C54.9334 30.9521 54.6429 29.9917 54.9874 28.9462C55.3399 27.8768 56.2815 27.0391 57.1309 27.0391C57.2585 27.0391 57.3815 27.057 57.4996 27.0925C57.4912 26.6871 57.5441 25.9713 57.9657 25.4883C58.424 24.9623 59.1838 24.8587 60.1987 25.1941C60.5982 25.3259 60.9475 25.4985 61.2402 25.7084C61.728 25.1826 62.3545 24.8844 62.9822 24.8844C63.3975 24.8844 63.8068 25.0107 64.1989 25.2596C65.1433 25.859 65.7174 26.787 65.7636 27.771C66.3173 27.7791 66.8258 28.0236 67.2757 28.4983C67.8813 29.1372 67.9952 30.0004 67.596 30.9287C66.9884 32.3429 65.3263 33.5836 64.0395 33.5837H64.0392C63.6429 33.5837 63.3005 33.4714 63.0208 33.2502C62.8841 33.1423 62.7578 33.0219 62.6435 32.8906C61.9606 33.4201 60.8822 33.6991 59.5076 33.6991ZM57.7995 32.2978C57.9754 32.8077 58.3977 33.3278 59.3888 33.3395L59.5076 33.3402C61.108 33.3402 61.9714 32.9598 62.4288 32.6027C61.9848 31.9037 62.0136 31.136 62.2532 30.6607C62.3885 30.3926 62.5843 30.2388 62.7907 30.2388C62.9285 30.2388 63.1814 30.3104 63.33 30.7888C63.5452 31.4823 63.3959 32.1371 62.9098 32.6499C63.0105 32.7666 63.1222 32.8733 63.2434 32.9686C63.4579 33.1386 63.7256 33.2247 64.0389 33.2247H64.0392C65.1798 33.2246 66.7179 32.0625 67.2663 30.7868C67.5059 30.2292 67.657 29.4222 67.0147 28.7448C66.6337 28.3429 66.2104 28.1359 65.7567 28.1297C65.675 29.0746 65.0915 29.7917 64.296 29.8992C63.7921 29.9668 63.6183 29.705 63.6081 29.4608C63.5842 28.9084 64.3836 27.9735 65.4055 27.799C65.3683 26.9278 64.8542 26.1006 64.0065 25.5625C63.6725 25.3505 63.3278 25.2431 62.9818 25.2431C62.4611 25.2431 61.9358 25.4935 61.5184 25.9356C62.2011 26.5695 62.3319 27.3556 62.146 27.88C62.0188 28.2391 61.7455 28.4626 61.4321 28.4626C61.2457 28.4626 61.0526 28.3831 60.8745 28.2325C60.2773 27.7282 60.4716 26.7302 61.0113 25.986C60.7523 25.8038 60.4418 25.6523 60.0861 25.5346C59.2185 25.2483 58.5975 25.309 58.2358 25.7241C57.7379 26.295 57.8745 27.3416 57.876 27.3521C57.8805 27.3857 57.8755 27.4199 57.8615 27.4507C57.8475 27.4815 57.825 27.5077 57.7967 27.5263C57.7684 27.5449 57.7354 27.5551 57.7016 27.5558C57.6677 27.5564 57.6344 27.5474 57.6054 27.5299C57.4624 27.4428 57.298 27.3971 57.1306 27.3979C56.4384 27.3979 55.6296 28.1429 55.328 29.0585C55.035 29.9472 55.279 30.7616 55.997 31.2926C56.448 31.6261 56.9096 31.8374 57.3455 31.9117C57.2618 31.2225 57.4353 30.4382 57.7849 30.0017C57.9527 29.7921 58.1487 29.6814 58.3512 29.6814C58.4904 29.6814 58.6998 29.7365 58.9073 29.9989C59.2889 30.4827 59.3776 31.029 59.1501 31.4979C58.9241 31.9653 58.4125 32.2656 57.7995 32.2978ZM62.7907 30.5977C62.749 30.5977 62.6565 30.6577 62.5735 30.8223C62.393 31.1799 62.3674 31.7885 62.6962 32.3513C63.0509 31.9435 63.1545 31.4337 62.9874 30.8955C62.9239 30.6909 62.8407 30.5977 62.7907 30.5977ZM58.3515 30.0403C58.2629 30.0403 58.1611 30.1062 58.0651 30.226C57.7985 30.5588 57.6061 31.2724 57.7119 31.9417C58.2246 31.9351 58.6508 31.7064 58.8277 31.3415C58.9927 31.001 58.9192 30.5928 58.6258 30.2214C58.5606 30.1388 58.46 30.0403 58.3515 30.0403ZM65.3923 28.1673C64.5842 28.3436 63.9513 29.0918 63.9668 29.4455C63.9685 29.4877 63.9714 29.5513 64.1427 29.5513C64.1749 29.5513 64.21 29.5489 64.2478 29.5437C64.8544 29.4616 65.3047 28.9084 65.3923 28.1673ZM61.2898 26.2129C60.8114 26.8768 60.7228 27.6347 61.1061 27.9586C61.3973 28.204 61.6832 28.1112 61.8081 27.7603C61.9522 27.3527 61.8403 26.733 61.2898 26.2129Z" fill="#241726"/>
<path d="M17.1927 15.1252C17.1927 15.1252 16.7874 12.1725 19.6367 13.1131C22.486 14.0538 21.574 16.7642 20.4847 15.8442C19.3953 14.9244 21.4127 11.7735 23.5967 13.1597C25.7807 14.5459 25.3087 17.2615 23.7659 17.47C22.2232 17.6786 24.6833 14.3063 26.6392 16.37C28.5952 18.4339 24.3698 22.239 22.6259 20.858C20.882 19.4769 22.2286 17.2252 22.6526 18.5907C23.0767 19.9563 21.9606 21.3037 18.8806 21.2675C15.8007 21.2312 17.1766 16.4855 18.2606 17.8588C19.3446 19.2322 17.566 20.7985 15.3846 19.1855C13.2032 17.5725 15.6634 14.2 17.1927 15.1252Z" fill="white"/>
<path d="M19.001 21.4476L18.8787 21.4469C17.8734 21.435 17.164 20.9221 16.9142 20.0332C16.3822 19.9715 15.8196 19.7299 15.2784 19.3295C14.4276 18.7005 14.1371 17.7401 14.4815 16.6948C14.834 15.6255 15.7756 14.7878 16.625 14.7878C16.7522 14.7878 16.8757 14.8057 16.9937 14.8412C16.9849 14.4358 17.0382 13.72 17.4594 13.2369C17.9182 12.7111 18.6768 12.6072 19.6927 12.9425C20.0922 13.0743 20.442 13.247 20.7342 13.4568C21.222 12.9311 21.8485 12.6329 22.4762 12.6329C22.8915 12.6329 23.3008 12.7591 23.6929 13.0078C24.6373 13.6072 25.2113 14.5353 25.2576 15.5192C25.8113 15.5273 26.3198 15.7719 26.7697 16.2465C27.3753 16.8855 27.4892 17.7488 27.09 18.6771C26.4819 20.0913 24.8202 21.332 23.5335 21.3321H23.5332C23.1369 21.3321 22.7945 21.2198 22.5148 20.9985C22.378 20.8908 22.2517 20.7703 22.1375 20.6388C21.4547 21.1687 20.3763 21.4476 19.001 21.4476ZM17.2936 20.0462C17.4692 20.5563 17.8919 21.0763 18.8829 21.088L19.001 21.0887C20.6021 21.0887 21.4652 20.7083 21.9228 20.351C21.4788 19.6522 21.5076 18.8843 21.7472 18.4091C21.8825 18.141 22.0783 17.9874 22.2847 17.9874C22.4225 17.9874 22.6754 18.0589 22.824 18.5373C23.0392 19.2308 22.8899 19.8857 22.4038 20.3985C22.5045 20.5152 22.6162 20.6219 22.7374 20.7171C22.9519 20.8871 23.2196 20.9733 23.5329 20.9733H23.5332C24.6735 20.9731 26.2119 19.8111 26.7603 18.5353C26.9999 17.9776 27.151 17.1708 26.5087 16.4932C26.1277 16.0913 25.7045 15.8843 25.2507 15.8781C25.169 16.823 24.5855 17.5401 23.79 17.6477C23.7392 17.6547 23.6879 17.6583 23.6365 17.6586C23.2567 17.6586 23.1113 17.4266 23.1018 17.2095C23.0779 16.6571 23.8773 15.722 24.8994 15.5474C24.8623 14.6762 24.3482 13.849 23.5005 13.3109C23.1665 13.099 22.8221 12.9917 22.4758 12.9917C21.9551 12.9917 21.4301 13.2418 21.0127 13.684C21.695 14.3179 21.8257 15.104 21.64 15.6282C21.5128 15.9875 21.2395 16.211 20.9261 16.211C20.7397 16.211 20.5466 16.1315 20.3685 15.9809C19.7713 15.4767 19.9656 14.4787 20.5053 13.7346C20.2463 13.5522 19.9358 13.4005 19.5801 13.283C18.7113 12.9964 18.0914 13.0571 17.7295 13.4727C17.2316 14.0436 17.3686 15.0901 17.3699 15.1007C17.3745 15.1342 17.3695 15.1684 17.3555 15.1992C17.3415 15.23 17.319 15.2563 17.2907 15.2749C17.2624 15.2935 17.2294 15.3037 17.1956 15.3043C17.1617 15.3049 17.1284 15.296 17.0994 15.2784C16.9564 15.1913 16.792 15.1457 16.6246 15.1465C15.9322 15.1465 15.1236 15.8914 14.822 16.807C14.529 17.6957 14.773 18.5099 15.491 19.041C15.942 19.3744 16.4036 19.5858 16.8395 19.6602C16.7558 18.9709 16.9296 18.1863 17.2793 17.7498C17.4471 17.5403 17.6427 17.4296 17.8453 17.4296C17.9845 17.4296 18.1944 17.4848 18.4015 17.7472C18.783 18.2309 18.8718 18.7772 18.6443 19.2463C18.4181 19.7138 17.9066 20.014 17.2936 20.0462ZM22.2849 18.3463C22.2431 18.3463 22.1506 18.4059 22.0676 18.5709C21.8871 18.9284 21.8615 19.537 22.1904 20.0999C22.545 19.692 22.6487 19.1822 22.4816 18.644C22.418 18.4393 22.3349 18.3463 22.2849 18.3463ZM17.8456 17.7887C17.7573 17.7887 17.6557 17.8547 17.5597 17.9744C17.2931 18.3072 17.1003 19.0208 17.2062 19.6901C17.7188 19.6836 18.1451 19.4548 18.322 19.0899C18.487 18.7496 18.4135 18.3413 18.1201 17.9698C18.0547 17.8872 17.9541 17.7887 17.8456 17.7887ZM24.8864 15.9157C24.0784 16.0921 23.4455 16.8407 23.4609 17.1942C23.4627 17.2363 23.4656 17.2998 23.6368 17.2998C23.6691 17.2998 23.7042 17.2974 23.7419 17.2922C24.3485 17.2101 24.7989 16.6568 24.8864 15.9157ZM20.7839 13.9613C20.3055 14.6252 20.2169 15.3831 20.6004 15.707C20.8912 15.9527 21.1782 15.8596 21.3022 15.5087C21.4466 15.101 21.3344 14.4815 20.7839 13.9613Z" fill="#241726"/>
<path d="M17.8089 49.4394C17.8089 49.4394 17.0099 75.1284 18.5787 75.7734C20.1474 76.4184 58.2284 76.581 58.9898 76.316C59.7512 76.0509 60.5868 51.3021 58.4861 50.207C56.3852 49.1119 17.8089 49.4394 17.8089 49.4394Z" fill="#EB7E95"/>
<path d="M13.2435 53.9438C13.2435 53.9438 16.0938 61.0666 26.8861 60.1324C37.6784 59.1981 57.3323 50.211 62.9442 56.6102C68.5561 63.0093 64.1753 69.6105 63.1915 70.3418C62.2077 71.0731 58.7693 63.0262 43.0477 69.8236C37.5674 72.1932 29.2766 74.3637 19.7208 72.8513C10.165 71.3389 8.57226 56.866 13.2435 53.9438Z" fill="white"/>
<path d="M26.1068 73.5324C23.959 73.5321 21.8146 73.3637 19.6932 73.0287C14.4479 72.1985 11.6851 67.515 10.8483 63.4088C9.97824 59.1381 10.924 55.1834 13.1485 53.7919C13.1708 53.778 13.1958 53.7692 13.2219 53.766C13.2479 53.7629 13.2744 53.7654 13.2993 53.7736C13.3242 53.7817 13.3471 53.7952 13.3663 53.8131C13.3854 53.831 13.4005 53.8529 13.4103 53.8773C13.4351 53.9388 15.9933 60.0376 24.9829 60.0376C25.5934 60.0376 26.2286 60.0094 26.871 59.9539C30.4031 59.6483 34.8424 58.4881 39.5424 57.26C45.3974 55.73 51.4518 54.148 56.1535 54.148C59.4308 54.148 61.6963 54.9147 63.0795 56.4921C65.2444 58.9607 66.1833 61.7047 65.8706 64.6479C65.5475 67.6848 63.9222 70.0227 63.2984 70.4859C63.2256 70.5405 63.1368 70.5696 63.0458 70.5688H63.0455C62.7704 70.5689 62.4721 70.3355 61.9784 69.949C60.7758 69.0075 58.5368 67.2555 54.1763 67.2555C51.0334 67.2555 47.3131 68.1749 43.1191 69.9883C39.3801 71.6052 33.3936 73.5324 26.1068 73.5324ZM13.1678 54.2111C11.2228 55.6075 10.3955 59.3894 11.1997 63.3371C12.0124 67.3256 14.685 71.8727 19.7491 72.6744C21.852 73.0064 23.9777 73.1733 26.1066 73.1736C33.3319 73.1736 39.2688 71.2624 42.9767 69.6592C47.216 67.8263 50.9841 66.8969 54.1762 66.8969C58.6603 66.8969 60.9624 68.6985 62.1994 69.6666C62.5723 69.9583 62.894 70.2103 63.0453 70.2102C63.0595 70.211 63.0734 70.2067 63.0847 70.198C63.6516 69.7766 65.2068 67.4957 65.5135 64.6102C65.8156 61.7706 64.9059 59.1188 62.8096 56.7287C61.4987 55.2336 59.3214 54.5068 56.1535 54.5068C51.4977 54.5068 45.466 56.0831 39.6327 57.6073C34.918 58.8393 30.4644 60.0031 26.9018 60.3115C26.2637 60.3674 25.6235 60.3958 24.9829 60.3966C20.1602 60.3966 17.1827 58.6667 15.5342 57.2154C14.0936 55.9467 13.3987 54.6898 13.1678 54.2111Z" fill="#241726"/>
<path d="M34.3062 9.77973L37.5857 9.73102C37.5857 9.73102 37.785 13.2553 36.0371 13.4994C34.2891 13.7435 34.3062 9.77973 34.3062 9.77973Z" fill="#EB7E95"/>
<path d="M36.5048 11.6571L36.6979 14.3608L38.8842 14.2417C38.8842 14.2417 37.5791 18.3737 36.3851 18.0926C35.191 17.8116 33.3672 14.3098 33.3672 14.3098L35.6928 14.2748L35.4015 11.6522L36.5048 11.6571Z" fill="#EB7E95"/>
<path d="M41.3038 28.8718C41.3038 28.8718 39.9802 21.6679 37.7864 19.1908C37.9998 17.9277 38.335 16.0212 38.2406 15.8622C38.1038 15.6317 34.8608 15.7557 34.3546 15.8455C33.9551 15.9163 34.521 18.3482 34.5953 19.4134C32.3581 22.1311 30.9126 29.1947 30.9126 29.1947L41.3038 28.8718Z" fill="white"/>
<path d="M30.9124 29.3741C30.8858 29.3741 30.8595 29.3681 30.8355 29.3567C30.8115 29.3453 30.7903 29.3287 30.7735 29.3081C30.7566 29.2875 30.7446 29.2634 30.7382 29.2376C30.7318 29.2118 30.7312 29.1848 30.7365 29.1588C30.7957 28.8706 32.1974 22.1134 34.4107 19.3556C34.383 19.0296 34.3153 18.5906 34.2442 18.1278C33.9842 16.4365 33.9183 15.7405 34.3234 15.6687C34.6238 15.6153 35.8128 15.5511 36.8391 15.5511C38.2644 15.5511 38.3365 15.6727 38.3947 15.7705C38.4922 15.9349 38.4225 16.5169 38.0201 18.8851L37.9773 19.1373C40.1447 21.6777 41.4263 28.5457 41.4802 28.8394C41.4896 28.8907 41.476 28.9438 41.443 28.9845C41.4269 29.0046 41.4065 29.021 41.3834 29.0325C41.3603 29.044 41.335 29.0504 41.3092 29.0512L30.9178 29.3744C30.9161 29.3741 30.9141 29.3741 30.9124 29.3741ZM34.4206 16.0165C34.3182 16.2494 34.4931 17.3858 34.5989 18.0734C34.6767 18.5778 34.7499 19.0542 34.7741 19.4007C34.7773 19.4464 34.7628 19.4918 34.7335 19.5272C32.7715 21.911 31.4033 27.7902 31.1359 29.0082L41.0875 28.6987C40.8516 27.5092 39.5824 21.4891 37.6523 19.3095C37.6344 19.2895 37.6213 19.2657 37.6139 19.24C37.6065 19.2142 37.605 19.1871 37.6095 19.1607L37.6666 18.8248C37.8264 17.8823 38.0878 16.3423 38.0791 15.9794C37.9792 15.9548 37.681 15.9099 36.8393 15.9099C35.8938 15.91 34.7562 15.9671 34.4206 16.0165Z" fill="#241726"/>
<path d="M36.0169 9.72305C36.0169 9.72305 35.1497 11.4661 34.534 11.5404C33.9183 11.6147 34.2393 8.53905 35.7006 8.58386C37.162 8.62866 38.2705 10.2104 37.7681 10.7852C37.2658 11.36 36.5416 10.2348 36.0169 9.72305Z" fill="white"/>
<path d="M34.512 11.7211C34.4352 11.7211 34.2906 11.6939 34.1861 11.5131C33.9253 11.0617 34.0749 9.91586 34.4881 9.1997C34.7888 8.67896 35.1971 8.40363 35.6688 8.40363L35.7059 8.4042C36.7516 8.43643 37.6431 9.20534 37.9511 9.91253C38.1242 10.3093 38.1063 10.6703 37.9027 10.9031C37.7748 11.0496 37.623 11.124 37.4517 11.124C37.0309 11.124 36.6275 10.6679 36.2378 10.2267C36.1773 10.1584 36.118 10.0915 36.0605 10.0284C35.7781 10.5547 35.1259 11.6499 34.555 11.7186C34.5407 11.7198 34.5264 11.7206 34.512 11.7211ZM35.6942 8.76307C34.9538 8.76307 34.6279 9.70412 34.5452 9.99275C34.3381 10.7138 34.4225 11.2877 34.5165 11.3616C34.8761 11.311 35.5152 10.3282 35.8561 9.64327C35.8687 9.61795 35.887 9.59595 35.9097 9.57908C35.9323 9.5622 35.9586 9.55091 35.9865 9.54614C36.0144 9.54154 36.0429 9.54354 36.0699 9.55197C36.0968 9.5604 36.1214 9.57504 36.1417 9.59471C36.2556 9.70556 36.3786 9.84446 36.5065 9.98913C36.812 10.3349 37.1926 10.7651 37.4516 10.7651C37.4926 10.7651 37.5557 10.755 37.6328 10.667C37.7411 10.543 37.7373 10.3201 37.6223 10.0558C37.3581 9.44945 36.5926 8.79054 35.6945 8.76307H35.6942Z" fill="#241726"/>
<path d="M17.6251 48.865C17.6251 48.865 16.7406 52.8047 19.1858 52.7363C21.6309 52.6679 21.7211 50.0657 21.0103 50.2992C20.2995 50.5328 21.8632 53.6943 24.4687 53.0745C27.074 52.4548 27.0058 50.0096 26.69 50.0871C26.3742 50.1645 25.7283 53.632 28.7263 53.4084C31.7243 53.1848 33.3146 50.1946 32.1306 50.426C30.9466 50.6575 31.1691 53.8921 34.7992 53.4345C38.4291 52.977 38.677 50.3754 37.888 50.4508C37.099 50.5263 37.4786 53.9193 41.1085 53.4617C44.7384 53.0041 45.3036 50.0096 44.4339 50.479C43.5643 50.9485 44.4993 53.6341 47.4186 53.3312C50.3382 53.0283 52.0869 49.8811 51.2207 49.5618C50.3545 49.2426 50.2597 52.9491 53.2563 53.0408C56.253 53.1326 57.3716 49.7461 56.6605 50.0584C55.9493 50.3709 55.6217 53.2088 58.7778 52.9069C61.9339 52.6049 60.1403 47.865 59.1956 47.4667C58.251 47.0684 42.4749 47.5523 36.8759 47.3704C31.277 47.1886 17.7915 46.8941 17.6251 48.865Z" fill="white"/>
<path d="M40.4596 53.6837C38.856 53.6837 38.0829 52.8755 37.7508 52.353C37.2588 52.8539 36.375 53.417 34.8216 53.6127C34.5812 53.6431 34.3471 53.6584 34.1252 53.6584C32.5469 53.6584 31.8587 52.9091 31.5773 52.4185C31.044 52.869 30.0812 53.4874 28.7398 53.5876C27.1776 53.7054 26.5858 52.8703 26.3639 52.1782C26.0124 52.5894 25.437 53.0288 24.5104 53.2492C24.2728 53.3059 24.0335 53.3345 23.7993 53.3345C22.6531 53.3345 21.7399 52.6461 21.2064 51.9292C20.9068 52.3611 20.314 52.8843 19.1911 52.9159L19.1238 52.9168C18.5666 52.9168 18.1261 52.7195 17.8146 52.3301C16.9259 51.22 17.4284 48.9231 17.4501 48.8258C17.5114 48.0815 18.8384 47.0598 29.5695 47.0598C31.7649 47.0598 34.157 47.1027 36.8819 47.1913C37.7632 47.22 38.9469 47.234 40.5005 47.234C42.7068 47.234 45.3469 47.2056 47.8999 47.178C50.4255 47.1509 52.8105 47.1253 54.7838 47.1253C58.3646 47.1253 59.0588 47.2145 59.2654 47.3016C59.9576 47.5937 60.9492 49.7273 60.7067 51.3125C60.5938 52.0489 60.1705 52.9542 58.7947 53.0859C57.0853 53.2486 56.4195 52.5036 56.1752 51.9671C55.6559 52.5358 54.7062 53.2593 53.2505 53.2206C51.746 53.1744 51.0735 52.2741 50.7914 51.6724C49.9255 52.6997 48.6924 53.3797 47.4371 53.5101C47.279 53.5264 47.1221 53.5347 46.97 53.5347C45.5977 53.5347 44.702 52.862 44.2674 52.1595C43.7803 52.691 42.8205 53.4271 41.1307 53.64C40.9081 53.6685 40.684 53.6831 40.4596 53.6837ZM37.9975 52.0678C38.2845 52.5786 38.9605 53.3248 40.4596 53.3248C40.6593 53.3248 40.8704 53.3109 41.0861 53.2838C42.7805 53.0701 43.679 52.3063 44.0918 51.816C43.8244 51.1672 43.926 50.5495 44.3491 50.3215C44.5923 50.1899 44.8201 50.2515 44.9185 50.454C45.0678 50.7607 44.9003 51.3291 44.5107 51.8633C44.8993 52.5841 45.8567 53.3158 47.4003 53.1531C49.1605 52.9706 50.2717 51.7591 50.6431 51.2853C50.4458 50.6342 50.4778 49.9311 50.7265 49.5843C50.8572 49.4018 51.0114 49.3634 51.1176 49.3634C51.1723 49.3634 51.2276 49.3735 51.2827 49.3939C51.4365 49.4505 51.5434 49.5679 51.5924 49.7332C51.7036 50.1074 51.4935 50.7209 51.0433 51.3491C51.2642 51.9325 51.8335 52.8182 53.2619 52.8619L53.3755 52.8636C54.7597 52.8636 55.6274 52.0807 56.0469 51.5679C55.9067 50.8666 56.1534 50.0859 56.5886 49.8945C56.7659 49.817 56.9305 49.8737 57.0038 50.0246C57.1499 50.3243 56.9025 51.0266 56.4375 51.6506C56.5753 52.0954 57.0031 52.7504 58.327 52.7504C58.4633 52.7504 58.6077 52.7435 58.7604 52.7289C59.6807 52.6407 60.2162 52.1462 60.3517 51.2584C60.5746 49.8042 59.6519 47.8543 59.126 47.6323C58.893 47.534 57.4319 47.4843 54.7838 47.4843C52.8127 47.4843 50.4284 47.5099 47.9038 47.5371C45.3498 47.5645 42.7091 47.593 40.5006 47.593C38.9433 47.593 37.7557 47.579 36.8702 47.5501C34.1494 47.4618 31.7613 47.4188 29.5696 47.4188C19.0619 47.4188 17.8413 48.4408 17.8042 48.8803C17.7954 48.9266 17.3139 51.131 18.095 52.1064C18.3385 52.4104 18.675 52.5581 19.1239 52.5581L19.1814 52.5572C20.2645 52.5271 20.7692 51.9805 20.9894 51.6023C20.709 51.123 20.5965 50.6641 20.6964 50.3884C20.7424 50.2607 20.8341 50.1687 20.9547 50.1291C21.1547 50.063 21.3465 50.1383 21.4597 50.3225C21.6366 50.6112 21.6107 51.1185 21.4019 51.5842C21.8626 52.2718 22.7167 52.9758 23.7995 52.9758C24.0056 52.9758 24.2172 52.9503 24.4278 52.9002C25.438 52.6598 25.9792 52.1389 26.2598 51.7234C26.1548 50.9799 26.3152 49.9945 26.6475 49.913C26.6615 49.9095 26.6903 49.9059 26.705 49.9059C26.7498 49.9059 26.8627 49.921 26.9394 50.0604C27.0915 50.3375 27.0659 51.0865 26.6366 51.7999C26.7758 52.516 27.258 53.339 28.7133 53.2296C30.0242 53.1316 30.9455 52.4994 31.4221 52.0785C31.2585 51.6104 31.2752 51.1064 31.4718 50.7374C31.6115 50.4744 31.8334 50.3014 32.0963 50.2499C32.3945 50.1928 32.5876 50.2901 32.6685 50.4943C32.8164 50.8692 32.4818 51.5468 31.8503 52.1691C32.0609 52.5793 32.6426 53.2992 34.1254 53.2992C34.3322 53.2992 34.5512 53.2846 34.7768 53.2563C36.3211 53.0616 37.1439 52.4932 37.5726 52.0185C37.335 51.479 37.2986 50.8861 37.4885 50.5439C37.5771 50.3836 37.7131 50.2871 37.8712 50.2719C37.8768 50.2713 37.9157 50.2694 37.9213 50.2694C38.113 50.2694 38.2731 50.3765 38.3612 50.5631C38.5077 50.8753 38.4506 51.4687 37.9975 52.0678ZM32.2515 50.5929C32.2252 50.5929 32.1965 50.5962 32.165 50.6023C31.9669 50.641 31.851 50.7889 31.7886 50.9061C31.6597 51.148 31.6344 51.4729 31.7126 51.7968C32.2056 51.2706 32.3976 50.786 32.3346 50.626C32.3296 50.6137 32.3216 50.5929 32.2515 50.5929ZM37.9211 50.6287C37.8674 50.6331 37.8327 50.6631 37.802 50.7183C37.7021 50.8983 37.6891 51.272 37.8265 51.6831C38.0732 51.2853 38.1259 50.9068 38.0364 50.7165C37.9951 50.6287 37.9432 50.6287 37.9211 50.6287ZM44.5916 50.6036C44.5933 50.6091 44.5682 50.6109 44.5195 50.6373C44.3072 50.7519 44.2479 51.0807 44.3495 51.4611C44.6347 50.9961 44.6406 50.6582 44.5916 50.6036ZM21.0976 50.4638C21.059 50.4722 21.0457 50.4767 21.0339 50.5101C20.9921 50.6248 21.0314 50.8698 21.1692 51.1713C21.2494 50.8673 21.2196 50.6174 21.1537 50.5096C21.1257 50.4638 21.1053 50.4638 21.0976 50.4638ZM56.6903 50.2501C56.5277 50.3722 56.3791 50.7128 56.3669 51.1109C56.5946 50.7258 56.6871 50.3994 56.6903 50.2501ZM26.6621 50.5481C26.6284 50.6934 26.6058 50.841 26.5944 50.9898C26.6387 50.8224 26.6579 50.6714 26.6621 50.5481ZM51.1178 49.7219C51.0855 49.7219 51.0523 49.7459 51.0182 49.793C50.8836 49.9806 50.8261 50.4106 50.9161 50.8931C51.2137 50.4077 51.3026 50.0175 51.2484 49.835C51.2278 49.7641 51.1913 49.7425 51.1587 49.7303C51.1456 49.7252 51.1318 49.7224 51.1178 49.7219Z" fill="#241726"/>
<path d="M38.5496 35.2576C38.5496 35.2576 53.2224 34.5322 54.7128 36.4315C56.2031 38.3308 55.4852 40.2205 53.3561 40.1325C51.227 40.0445 51.1583 37.6781 51.7876 38.0751C52.4169 38.4721 52.7269 39.7355 50.2806 40.0403C47.8343 40.3451 47.2939 37.6613 47.9227 38.1373C48.5516 38.6132 48.9372 40.6654 45.5468 40.4142C42.1565 40.163 41.9305 37.7171 42.5606 37.8775C43.1909 38.038 44.0478 40.4866 39.9475 40.3112C35.847 40.1357 36.1744 37.3767 36.4876 37.9302C36.8008 38.4836 36.3161 41.0843 33.1639 40.5186C30.0117 39.9529 30.4196 36.7999 31.1263 37.5127C31.8331 38.2256 31.1932 40.2734 28.2754 40.182C25.3576 40.0905 25.3689 37.4879 26.1562 37.8067C26.9434 38.1256 26.3027 40.41 23.7792 40.3203C21.2557 40.2305 22.3749 36.7651 24.1923 35.9842C26.0095 35.2036 38.5496 35.2576 38.5496 35.2576Z" fill="white"/>
<path d="M34.0077 40.7781C33.7329 40.7782 33.4382 40.7503 33.132 40.6954C31.9923 40.4909 31.3458 39.9692 30.986 39.5069C30.3948 40.094 29.4545 40.3957 28.2693 40.3617C27.176 40.3273 26.5235 39.957 26.1457 39.5999C25.7848 40.0109 25.0647 40.547 23.7727 40.5C22.5651 40.4571 22.2459 39.7084 22.1628 39.266C21.935 38.0492 22.9049 36.3423 24.121 35.8198C25.7239 35.1313 35.175 35.0776 38.0336 35.0776L38.5501 35.0785C38.5681 35.0774 41.334 34.9425 44.5421 34.9425C50.6666 34.9425 54.136 35.4063 54.854 36.321C55.6509 37.337 55.8891 38.4315 55.4914 39.2492C55.1448 39.9621 54.365 40.3542 53.3484 40.312C52.6203 40.2818 52.1507 40.0017 51.8646 39.7324C51.5058 39.9709 50.9816 40.1342 50.3024 40.2188C50.1664 40.2358 50.0311 40.2443 49.9005 40.2443C49.1894 40.2445 48.6824 39.9927 48.3478 39.7311C48.0818 40.1832 47.3712 40.7304 45.5332 40.5935C44.2194 40.4961 43.4172 40.0786 42.9505 39.6999C42.5791 40.1307 41.7517 40.5687 39.9397 40.4908C37.9674 40.4064 37.0245 39.7339 36.5808 39.1838C36.2564 40.0095 35.4507 40.7781 34.0077 40.7781ZM31.2246 39.2273C31.5318 39.6487 32.114 40.1482 33.1951 40.3422C33.4807 40.3934 33.754 40.4195 34.0078 40.4192C35.7407 40.4192 36.2116 39.2505 36.3287 38.7973C36.111 38.3692 36.097 37.9771 36.2005 37.8022C36.247 37.7231 36.3218 37.6778 36.4049 37.6778C36.4715 37.6778 36.5667 37.7064 36.6435 37.8421C36.7542 38.0382 36.7783 38.3786 36.7087 38.7427C37.0115 39.2471 37.8244 40.0408 39.9551 40.1322C41.6369 40.2029 42.3812 39.8216 42.6868 39.4568C42.1663 38.9106 42.0174 38.2865 42.1495 37.9515C42.2277 37.7535 42.4096 37.6536 42.6048 37.7039C42.8277 37.7607 43.0442 37.9905 43.1696 38.304C43.3165 38.6713 43.3074 39.0618 43.1483 39.3977C43.5664 39.7469 44.3068 40.1427 45.5599 40.2355C45.7373 40.249 45.9151 40.2559 46.0929 40.2562C47.1421 40.2562 47.8395 39.982 48.0753 39.4812C47.6166 38.99 47.4207 38.3657 47.5349 38.0835C47.6117 37.8931 47.8272 37.8405 48.0308 37.9941C48.3627 38.2453 48.6146 38.8303 48.4874 39.3809C48.8168 39.6671 49.3985 39.9692 50.2585 39.8623C50.8476 39.7889 51.3147 39.6508 51.6249 39.4595C51.2724 38.9748 51.1882 38.3923 51.3242 38.0874C51.4266 37.8578 51.662 37.7837 51.8831 37.9233C52.1884 38.1157 52.3906 38.4433 52.4113 38.7782C52.4231 38.9696 52.3808 39.238 52.1414 39.4989C52.4519 39.7764 52.8703 39.9327 53.3634 39.953C54.2392 39.9904 54.8833 39.6792 55.1689 39.0919C55.5054 38.4006 55.2821 37.4474 54.5717 36.5422C54.2079 36.0785 52.4215 35.3009 44.5424 35.3009C41.3429 35.3009 38.5861 35.4354 38.5584 35.4368L38.0337 35.4361C32.1788 35.4361 25.4865 35.6234 24.2628 36.1492C23.1999 36.6058 22.3183 38.145 22.5158 39.1995C22.6263 39.7898 23.0654 40.1154 23.7854 40.1412C24.9752 40.1839 25.6035 39.6886 25.9045 39.33C25.5141 38.8128 25.4524 38.2313 25.6035 37.8996C25.7201 37.6429 25.9675 37.537 26.2234 37.6405C26.4118 37.7169 26.5503 37.8792 26.613 38.0983C26.7136 38.449 26.6176 38.9024 26.3624 39.3098C26.6844 39.6281 27.2647 39.9709 28.2806 40.0028C29.7122 40.0475 30.4495 39.5541 30.7813 39.2026C30.3941 38.5322 30.3762 37.8221 30.5668 37.4718C30.6814 37.2605 30.8401 37.229 30.9247 37.229C31.0393 37.229 31.1497 37.282 31.2533 37.3865C31.6903 37.8276 31.6716 38.5999 31.2246 39.2273ZM51.6536 38.2099C51.6596 38.213 51.6305 38.2602 51.6224 38.3698C51.6056 38.5929 51.6876 38.928 51.9006 39.2294C52.0111 39.0981 52.0622 38.9545 52.0527 38.8006C52.039 38.5822 51.8975 38.3572 51.6914 38.2271C51.6659 38.2111 51.6541 38.2099 51.6536 38.2099ZM42.5161 38.0517C42.4971 38.0533 42.4708 38.0878 42.4635 38.1765C42.4445 38.4084 42.5661 38.7733 42.8703 39.1258C42.965 38.8274 42.8833 38.5558 42.8359 38.4374C42.747 38.2151 42.6076 38.0751 42.5161 38.0517ZM47.8613 38.3208C47.876 38.4711 47.9629 38.7428 48.1623 39.0231C48.1472 38.7273 48.0091 38.4611 47.8613 38.3208ZM26.028 37.9595C25.9898 37.9595 25.9568 37.9894 25.9298 38.0485C25.8479 38.2287 25.8664 38.6207 26.1197 39.0129C26.2739 38.724 26.3318 38.4209 26.2676 38.1975C26.2351 38.0837 26.1747 38.0084 26.0885 37.9733C26.0694 37.9648 26.0488 37.9601 26.028 37.9595ZM30.9245 37.588C30.9189 37.5906 30.8822 37.6217 30.851 37.7171C30.7644 37.9795 30.8023 38.4378 31.0188 38.8849C31.3016 38.3958 31.2468 37.8902 30.9981 37.6393C30.9578 37.5983 30.9309 37.5883 30.9245 37.588Z" fill="#241726"/>
<path d="M37.8861 26.1575C37.8861 26.1575 48.8196 25.5385 49.9293 27.1421C51.039 28.7457 50.5032 30.3422 48.9167 30.2687C47.3302 30.1953 47.2802 28.1966 47.7489 28.5316C48.2176 28.8668 48.448 29.9336 46.6251 30.1921C44.8022 30.4507 44.4007 28.184 44.8691 28.5858C45.3375 28.9876 45.6238 30.7208 43.0977 30.5101C40.5716 30.2994 40.4042 28.2336 40.8738 28.3687C41.3434 28.504 41.9809 30.5718 38.9255 30.4254C35.8703 30.279 36.1154 27.9484 36.3484 28.4158C36.5814 28.8831 36.2193 31.08 33.8707 30.6035C31.5221 30.1269 31.8273 27.4637 32.3537 28.0655C32.8801 28.6673 32.4024 30.3972 30.2284 30.3213C28.0543 30.2453 28.0637 28.047 28.6502 28.3161C29.2367 28.5851 28.7583 30.5149 26.878 30.4401C24.9978 30.3654 25.8332 27.4379 27.1876 26.7776C28.5421 26.1172 37.8861 26.1575 37.8861 26.1575Z" fill="white"/>
<path d="M34.4985 30.8502C34.2899 30.8502 34.0668 30.8263 33.8351 30.7794C33.0067 30.6111 32.522 30.1936 32.2431 29.8103C31.9231 30.1436 31.3032 30.5418 30.2221 30.5006C29.4283 30.4728 28.9391 30.1813 28.6459 29.8873C28.2373 30.3823 27.6041 30.6507 26.8709 30.6194C26.2079 30.5931 25.7716 30.2393 25.6422 29.6234C25.4218 28.574 26.1486 27.0846 27.1091 26.6163C28.3244 26.0236 35.4283 25.9775 37.5764 25.9775L37.8866 25.978C37.8964 25.9772 39.9843 25.8605 42.3955 25.8605C46.9509 25.8605 49.535 26.2574 50.0767 27.0399C50.7123 27.959 50.8711 28.9291 50.501 29.635C50.2105 30.1895 49.6449 30.4825 48.908 30.448C48.3739 30.4231 48.021 30.2011 47.7993 29.9775C47.5267 30.1684 47.1412 30.3001 46.6503 30.3698C45.9856 30.4633 45.5054 30.2417 45.2005 29.9907C44.9773 30.3709 44.4239 30.8003 43.0825 30.6887C42.1279 30.6093 41.5298 30.2755 41.1702 29.9613C40.8716 30.3202 40.2451 30.6671 38.9165 30.6048C37.5036 30.5371 36.789 30.0161 36.4323 29.5601C36.1687 30.2382 35.5597 30.85 34.4985 30.8502ZM32.4745 29.5134C32.7001 29.8607 33.1242 30.2689 33.9066 30.4276C34.1148 30.4698 34.3138 30.4913 34.4985 30.4913C35.7513 30.4912 36.0969 29.5274 36.1837 29.1491C36.0349 28.812 35.9987 28.4475 36.1021 28.2824C36.1449 28.2139 36.2121 28.1746 36.2871 28.1746C36.34 28.1746 36.4391 28.1956 36.5089 28.3358C36.5923 28.5033 36.611 28.7921 36.5591 29.1002C36.7822 29.5185 37.378 30.1716 38.934 30.246C39.9482 30.2939 40.6136 30.1035 40.9182 29.7029C40.512 29.216 40.4139 28.6772 40.5354 28.3947C40.6063 28.2306 40.7635 28.1496 40.9236 28.1962C41.0887 28.2437 41.2471 28.4169 41.3477 28.6597C41.4812 28.9824 41.4837 29.3423 41.3593 29.6481C41.6662 29.9346 42.2059 30.2556 43.1129 30.3313C44.1231 30.4162 44.7339 30.1975 44.9351 29.7231C44.5878 29.2962 44.441 28.7487 44.5444 28.5143C44.6184 28.3465 44.8175 28.3046 44.986 28.4497C45.2432 28.6701 45.4314 29.1586 45.3368 29.6312C45.5754 29.8623 45.9928 30.1009 46.6001 30.0147C47.0185 29.9553 47.3518 29.8461 47.5761 29.6958C47.3095 29.2709 47.2502 28.7598 47.3736 28.5047C47.4666 28.3134 47.674 28.2579 47.8538 28.3859C48.0855 28.5517 48.2407 28.8315 48.2589 29.1164C48.2694 29.2799 48.2397 29.5085 48.0623 29.7335C48.2842 29.9538 48.5737 30.0735 48.9255 30.0898C49.51 30.1173 49.961 29.8943 50.1839 29.4689C50.4863 28.8919 50.3325 28.0396 49.7822 27.2446C49.5173 26.8618 48.2057 26.2197 42.3961 26.2197C39.995 26.2197 37.9172 26.3359 37.8966 26.3369L37.577 26.3368C33.3908 26.3368 28.1787 26.4946 27.2666 26.9392C26.4642 27.3306 25.8099 28.6725 25.9939 29.5501C26.0888 30.0022 26.3889 30.2416 26.8853 30.2614C27.7246 30.2939 28.1925 29.8971 28.4143 29.6026C28.1095 29.1389 28.0778 28.6227 28.2128 28.3491C28.3149 28.1412 28.5255 28.0617 28.7252 28.1534C28.8706 28.22 28.9754 28.3501 29.028 28.5297C29.1163 28.8307 29.049 29.2246 28.8524 29.5837C29.0875 29.8422 29.507 30.117 30.2353 30.1426C31.0391 30.1707 31.6738 29.9385 32.0487 29.4914C31.7543 28.9074 31.7442 28.2797 31.9144 27.9863C32.0091 27.823 32.137 27.7984 32.2046 27.7984C32.2747 27.7984 32.3813 27.8243 32.4892 27.9479C32.8179 28.3233 32.8063 28.9791 32.4745 29.5134ZM47.6803 28.7055C47.652 28.8325 47.6709 29.1308 47.8348 29.4294C47.8846 29.3411 47.9073 29.2401 47.9003 29.1389C47.8899 28.9768 47.8052 28.8113 47.6803 28.7055ZM40.8561 28.5595C40.8274 28.6686 40.8488 28.9765 41.0807 29.3228C41.1189 29.0795 41.0463 28.8704 41.0159 28.797C40.9619 28.6665 40.8978 28.592 40.8561 28.5595ZM28.572 28.4787C28.5499 28.4787 28.5226 28.5124 28.5065 28.5948C28.475 28.7549 28.5033 28.994 28.6187 29.2364C28.7136 28.9935 28.7245 28.7704 28.6836 28.6303C28.6678 28.5767 28.6363 28.507 28.5756 28.4792L28.572 28.4787ZM32.2151 28.1795C32.1533 28.3018 32.1176 28.6827 32.2763 29.1173C32.4313 28.7431 32.3853 28.3739 32.2188 28.1837C32.2176 28.1823 32.2163 28.1809 32.2151 28.1795Z" fill="#241726"/>
<path d="M33.3669 14.31C33.3669 14.31 31.7888 17.7971 32.3967 18.9645C33.0046 20.1319 35.7566 21.6148 36.1235 21.8002C36.4905 21.9857 39.6888 19.4863 39.9991 18.5682C40.3096 17.6502 38.8838 14.242 38.8838 14.242L38.053 15.0047C38.053 15.0047 39.2058 17.7679 38.713 18.3176C38.2203 18.8671 36.3737 20.6367 36.0062 20.5739C35.6386 20.511 33.3779 18.8462 33.5639 18.3566C33.7499 17.8671 34.2498 15.6626 34.2498 15.6626L33.3669 14.31ZM41.9006 9.81237L45.6706 9.76569C45.6706 9.76569 45.3795 13.2879 43.6315 13.532C41.8835 13.7761 41.9006 9.81237 41.9006 9.81237Z" fill="#EB7E95"/>
<path d="M44.0995 11.6899L44.2926 14.3936L46.479 14.2745C46.479 14.2745 45.1738 18.4065 43.9799 18.1254C42.7858 17.8444 40.9619 14.3426 40.9619 14.3426L43.2876 14.3076L42.9962 11.6849L44.0995 11.6899Z" fill="#EB7E95"/>
<path d="M40.9616 14.3428C40.9616 14.3428 39.3835 17.8299 39.9914 18.9972C40.5993 20.1645 43.3513 21.6475 43.7183 21.8329C44.0852 22.0184 47.56 19.7793 47.8705 18.8611C48.181 17.943 46.4787 14.2745 46.4787 14.2745L45.6479 15.0372C45.6479 15.0372 46.8007 17.8005 46.3078 18.3502C45.8151 18.8997 43.9686 20.6693 43.6011 20.6065C43.2335 20.5436 40.9727 18.8787 41.1588 18.3892C41.3448 17.8997 41.8447 15.6951 41.8447 15.6951L40.9616 14.3428Z" fill="#241726"/>
<path d="M40.8083 26.1513C40.8083 26.1513 40.6603 14.2036 41.0221 14.2052C41.3838 14.2068 46.2045 13.2878 46.5839 14.413C46.9633 15.5382 46.6672 26.1766 46.6672 26.1766L44.3191 26.1264L43.789 22.6922L43.5583 25.8738L40.8083 26.1513Z" fill="#241726"/>
<path d="M42.0784 9.0148C42.0784 9.0148 42.5656 7.98256 43.8976 8.26411C45.2296 8.54566 46.1451 9.46907 45.8453 9.67473C45.5456 9.88026 41.2439 10.6432 42.0784 9.0148Z" fill="white"/>
<path d="M43.4536 10.2123C42.5989 10.2123 42.0848 10.0506 41.8813 9.71803C41.7495 9.50239 41.7622 9.23833 41.9184 8.93293C41.9334 8.90128 42.3546 8.03583 43.4539 8.03583C43.6081 8.03583 43.7697 8.05346 43.9348 8.08844C45.0466 8.32359 45.9813 9.01951 46.0738 9.48475C46.1019 9.62495 46.0556 9.74809 45.9469 9.82252C45.7332 9.96922 44.446 10.2123 43.4536 10.2123ZM43.4539 8.3947C42.5873 8.3947 42.2537 9.06373 42.24 9.09221C42.1423 9.28299 42.1254 9.42911 42.1874 9.53071C42.3128 9.73595 42.7743 9.85345 43.4535 9.85345C44.4168 9.85345 45.5003 9.62784 45.7197 9.53765C45.6661 9.32057 44.9508 8.66974 43.8603 8.43936C43.7268 8.41047 43.5906 8.3955 43.4539 8.3947Z" fill="#241726"/>
<path d="M42.4478 14.0963C42.4478 14.0963 43.5413 16.3767 43.7698 16.6764C43.9983 16.9762 45.0232 13.8774 45.0232 13.8774C45.0232 13.8774 43.2076 13.8007 42.4478 14.0963Z" fill="white"/>
<path d="M43.8092 16.8766C43.7738 16.8769 43.7389 16.8688 43.7073 16.8529C43.6757 16.8371 43.6483 16.814 43.6274 16.7855C43.394 16.48 42.3987 14.4093 42.286 14.1741C42.2753 14.1518 42.2694 14.1276 42.2685 14.1029C42.2677 14.0782 42.2719 14.0536 42.281 14.0306C42.29 14.0076 42.3038 13.9868 42.3213 13.9693C42.3388 13.9519 42.3597 13.9383 42.3827 13.9293C42.8926 13.7307 43.8163 13.6892 44.5018 13.6892C44.8154 13.6892 45.0309 13.6983 45.0309 13.6983C45.0587 13.6995 45.0857 13.7071 45.11 13.7205C45.1343 13.7339 45.1552 13.7527 45.1709 13.7756C45.1867 13.7984 45.197 13.8246 45.2009 13.8521C45.2048 13.8796 45.2023 13.9076 45.1935 13.9339C44.2276 16.8549 43.9448 16.8766 43.8092 16.8766ZM42.6991 14.2048C43.0761 14.9862 43.5934 16.0302 43.825 16.4291C44.0348 16.0842 44.4414 15.037 44.776 14.0504C44.6985 14.0492 44.6057 14.0481 44.5016 14.0481C43.7167 14.0481 43.0894 14.1031 42.6991 14.2048ZM22.5147 63.315L21.9484 67.8337L21.7777 68.9708C21.7241 69.3256 21.6569 69.578 21.5758 69.7276C21.5083 69.8543 21.4346 69.9776 21.355 70.097C21.2896 70.1931 21.2075 70.2765 21.1124 70.3433C21.0171 70.4108 20.912 70.4696 20.7981 70.5202C20.5585 70.6228 20.2508 70.6459 19.8754 70.5896C19.7917 70.5771 19.7563 70.5271 19.7692 70.4403L19.8066 70.2645C19.8125 70.2226 19.869 70.1921 19.9751 70.1723C20.3631 70.099 20.6115 70.019 20.7205 69.9324C20.9591 69.7403 21.1227 69.3507 21.2107 68.763L21.9105 63.2881L21.9175 63.2412C21.6462 63.2006 21.4556 63.1478 21.3463 63.0833C21.237 63.019 21.1736 62.9729 21.1564 62.9456C21.1392 62.9181 21.1343 62.879 21.1416 62.8285C21.1493 62.7781 21.1967 62.7355 21.2839 62.7006C21.3707 62.6656 21.5035 62.6616 21.6831 62.6883C21.8621 62.7154 22.1947 62.7875 22.68 62.9048C23.1658 63.0222 23.403 63.1185 23.3917 63.193C23.3804 63.2679 23.3427 63.3236 23.2785 63.3603C23.2141 63.3967 23.1422 63.409 23.0623 63.3971L22.5147 63.315ZM26.2012 65.1974L26.2128 65.382C26.2283 68.5789 25.7716 70.1795 24.8429 70.1839C24.4845 70.1889 24.2181 70.0444 24.0443 69.7497C23.8635 69.4484 23.753 69.148 23.7127 68.8493C23.6507 68.3888 23.6138 67.8607 23.6027 67.2645C23.5909 66.6686 23.5823 65.8079 23.5771 64.6823L23.5225 63.1371C23.588 62.9855 23.6641 62.9095 23.7503 62.909C23.8364 62.9087 23.9136 62.9742 23.9808 63.106C24.0482 63.2376 24.0824 63.3773 24.0831 63.525L24.0972 66.4631C24.0982 66.7199 24.1259 67.1013 24.1791 67.6075C24.2324 68.1139 24.26 68.4953 24.2608 68.7521C24.2635 69.2795 24.4935 69.5422 24.9508 69.5401C25.4641 69.5377 25.7116 67.6004 25.6929 63.7284L25.6902 63.1218L25.6843 62.9424C25.6835 62.8582 25.7028 62.7946 25.7411 62.7521C25.7799 62.7099 25.8473 62.6885 25.944 62.6879C26.0407 62.6876 26.114 62.7028 26.1634 62.7343C26.2089 62.7623 26.2429 62.8044 26.264 62.8605C26.2927 62.9482 26.3092 63.0643 26.3134 63.2082L26.2443 64.2954L26.2012 65.1974ZM27.5291 69.4447L27.9836 69.4693C28.1199 69.4528 28.2313 69.3788 28.3183 69.2479C28.4049 69.1172 28.462 68.9595 28.4893 68.7756C28.5422 68.422 28.5523 68.1135 28.5205 67.8497C28.4875 67.5834 28.4111 67.3243 28.2942 67.0828C28.1803 66.843 28.0432 66.6149 27.8849 66.4018C27.7284 66.1929 27.5743 65.9822 27.4227 65.7697C27.0561 65.2616 26.8414 64.7457 26.7775 64.2222C26.7382 63.9011 26.7578 63.6099 26.836 63.3488C26.9824 62.8635 27.2232 62.6005 27.5587 62.5597C27.6841 62.5445 27.8089 62.5701 27.9319 62.6365C28.0551 62.7031 28.1225 62.7834 28.1341 62.8777C28.154 63.0419 28.0765 63.1344 27.9021 63.1558C27.8227 63.1646 27.7425 63.1524 27.6694 63.1202C27.4433 63.1582 27.3208 63.4299 27.3007 63.9355C27.2965 64.0459 27.3032 64.1737 27.3206 64.3184C27.3381 64.4633 27.391 64.6385 27.4801 64.8434C27.5687 65.049 27.671 65.2286 27.7873 65.3827C28.0477 65.7301 28.3005 66.083 28.5457 66.4412C28.8222 66.8505 28.9929 67.3365 29.0576 67.8987C29.1137 68.3313 29.0646 68.7572 28.9101 69.1762C28.838 69.3806 28.7147 69.563 28.5519 69.7061C28.3868 69.8516 28.1896 69.9403 27.9596 69.972L27.9628 69.9982C27.6642 69.9918 27.4873 69.8736 27.4308 69.643L27.5291 69.4447ZM31.1753 69.1607L30.9893 68.3534C30.9695 68.2319 30.9501 68.1103 30.9312 67.9886C30.8852 67.9045 30.667 67.1198 30.2766 65.6346C29.8855 64.1494 29.6532 63.2405 29.5782 62.9076C29.5642 62.9102 29.5505 62.9132 29.5369 62.916C28.9625 63.0224 28.6552 62.9754 28.6142 62.7755C28.6009 62.7102 28.6279 62.6482 28.6951 62.5896C28.7618 62.5311 28.8319 62.4944 28.904 62.4796L30.3607 62.2851L30.5307 62.2449C30.7508 62.2001 30.8787 62.2621 30.913 62.4308C30.9309 62.5169 30.9088 62.5941 30.8471 62.6625C30.7877 62.7293 30.708 62.7748 30.6203 62.792L30.1199 62.8186L30.1209 62.9314C30.2572 63.5999 30.5201 64.5892 30.9091 65.8987C31.298 67.2084 31.5612 68.1993 31.6979 68.8712C31.7147 68.9541 31.6916 69.0351 31.6288 69.1142C31.5658 69.1934 31.4901 69.2421 31.4003 69.2603L31.1753 69.1607ZM37.9425 67.732L37.6358 66.3841C37.5637 66.0724 37.4326 65.6209 37.2416 65.0297C37.0506 64.4389 36.9307 64.0387 36.8827 63.8296C36.834 63.6207 36.7831 63.3699 36.7302 63.0771C36.6769 62.7843 36.6335 62.5661 36.6001 62.4221C36.5907 62.5217 36.5844 63.0339 36.5819 63.9586C36.5721 66.3505 36.4526 67.5729 36.2228 67.6262C36.0857 67.6578 35.9694 67.6414 35.8734 67.577C35.7767 67.5126 35.7133 67.4119 35.6813 67.2747C35.6043 66.9425 35.3151 66.2885 34.813 65.3124C34.3112 64.3367 33.9058 63.594 33.5966 63.0844C34.0354 65.5891 34.355 67.2766 34.5562 68.1469L34.6445 68.4569C34.6703 68.57 34.6666 68.6618 34.6326 68.7331C34.5982 68.8042 34.53 68.8516 34.4272 68.8753C34.3242 68.8991 34.2344 68.8936 34.1581 68.859C34.0814 68.8243 34.0354 68.7728 34.0197 68.7043C33.8536 67.9882 33.6598 66.9033 33.4372 65.4493C33.2143 63.9958 33.0205 62.9108 32.8547 62.1945C32.7985 62.1387 32.7595 62.0678 32.7426 61.9904C32.7239 61.91 32.7527 61.8394 32.8287 61.7784C32.9058 61.7169 32.9958 61.6738 33.0919 61.6523C33.243 61.6175 33.7042 62.2534 34.4758 63.5604C35.2472 64.8674 35.7471 65.7797 35.9749 66.2971C35.9823 66.1873 35.9862 65.9128 35.9875 65.474C35.9889 65.0351 35.9924 64.5788 35.9983 64.1046C36.0032 63.6269 36.018 63.1435 36.0418 62.6542C36.0927 61.5308 36.2206 60.9451 36.4263 60.8977C36.5192 60.8763 36.6164 60.882 36.7062 60.9142C36.8002 60.9464 36.8575 61.0074 36.8779 61.0963C36.9953 61.6036 37.193 62.3556 37.4705 63.3527C37.7477 64.3499 37.9394 65.0761 38.0449 65.5317L38.2758 66.6478L38.2773 66.6528C38.2955 66.7319 38.374 66.9772 38.5124 67.3891L38.5808 67.5898C38.6292 67.6582 38.6627 67.7342 38.6824 67.8182C38.7016 67.9022 38.6898 67.9996 38.647 68.1104C38.6039 68.2216 38.5292 68.2894 38.4234 68.3141C38.204 68.3644 38.0438 68.1707 37.9425 67.732ZM41.0289 64.8249L41.3011 65.4421C41.3221 65.5277 41.4074 65.7275 41.556 66.0422C41.7045 66.3567 41.7914 66.5654 41.8167 66.6677L41.8194 66.6778C41.8573 66.8315 41.8241 66.9449 41.7188 67.0181C41.572 67.0543 41.4515 67.0587 41.3582 67.0314C41.2643 67.0039 41.2006 66.9218 41.1666 66.7852C41.093 66.4882 40.9346 66.0691 40.6921 65.5277L39.6198 65.6306C39.6132 65.8978 39.6266 66.1651 39.6601 66.4303C39.6945 66.7153 39.712 66.9247 39.7123 67.0585C39.7155 67.3333 39.6331 67.4913 39.4656 67.5327C39.3839 67.5531 39.3013 67.5453 39.2186 67.5098C39.1352 67.4742 39.0837 67.4155 39.0634 67.3334L39.0661 67.2351C39.0865 65.2989 38.9975 63.4405 38.7987 61.66C38.7938 61.6104 38.7693 61.4682 38.7255 61.2326C38.6325 60.7119 38.6168 60.3701 38.6775 60.2062L39.031 60.1186C39.1267 60.0949 39.216 60.0963 39.2984 60.1232C39.3811 60.1498 39.4332 60.2075 39.4553 60.2962C39.5874 60.8288 39.8538 61.6016 40.2553 62.6143C40.6567 63.6272 40.9142 64.3642 41.0289 64.8249ZM40.5325 65.1704C40.487 65.0731 40.4324 64.8974 40.3692 64.6431C40.3065 64.3889 40.2135 64.0767 40.091 63.7066C39.9473 63.2759 39.7968 62.8475 39.6396 62.4215C39.4608 61.9352 39.3334 61.5817 39.2573 61.3615C39.3758 63.1984 39.4777 64.488 39.564 65.2312C39.7028 65.2801 40.0258 65.26 40.5325 65.1704ZM42.0468 63.0992L42.323 64.2374C42.556 65.1613 42.8063 65.8727 43.0732 66.3711L43.0267 66.6822L42.7352 66.7557L42.5583 66.6369C42.4769 66.283 42.3915 65.9301 42.3022 65.5781C42.2037 65.1877 41.9632 64.3609 41.5814 63.0971C41.1987 61.8333 40.9283 60.886 40.7691 60.255C40.6857 59.9243 40.76 59.7295 40.992 59.671C41.3568 59.579 41.6876 59.597 41.9848 59.7253C42.2819 59.8535 42.4753 60.095 42.5648 60.4494L42.7508 61.1862C42.8012 61.3874 42.8101 61.5801 42.7764 61.7642C42.7434 61.9485 42.7004 62.1445 42.6475 62.3519C42.5946 62.5593 42.5655 62.6745 42.5606 62.6976C42.6412 62.8586 42.7918 63.1761 43.013 63.6498C43.492 64.6861 43.916 65.4115 44.2854 65.826C44.3912 65.9442 44.454 66.0419 44.4733 66.1186C44.4925 66.1954 44.4876 66.2655 44.4583 66.3291C44.4292 66.3927 44.3788 66.4336 44.307 66.4515C44.1606 66.4886 43.9776 66.356 43.7585 66.0543C43.5388 65.7523 43.3366 65.4071 43.1516 65.0185C42.587 63.83 42.2614 63.1795 42.175 63.0672L42.0468 63.0992ZM41.3095 60.0045L41.3113 60.1619C41.3834 60.4484 41.4945 60.8602 41.6446 61.3971C41.7946 61.9343 41.9004 62.3256 41.9624 62.571C42.1046 62.4447 42.1808 62.1888 42.1904 61.8035C42.2003 61.4183 42.1811 61.1306 42.1329 60.9394C42.0849 60.7484 42.0443 60.6091 42.0114 60.5211C41.9728 60.4228 41.9252 60.3283 41.8692 60.2388C41.7444 60.031 41.558 59.9526 41.3095 60.0045ZM44.6298 62.449L44.9021 63.588C45.1321 64.513 45.3798 65.2252 45.6455 65.7242L45.5975 66.0351L45.306 66.1077L45.1296 65.9886C45.0488 65.6345 44.9646 65.2812 44.877 64.9287C44.7796 64.5383 44.5424 63.7103 44.1646 62.4452C43.7868 61.1802 43.5191 60.232 43.3622 59.6006C43.2798 59.2695 43.3548 59.0751 43.5868 59.0174C43.9519 58.9266 44.2827 58.9457 44.5795 59.0749C44.876 59.2043 45.0684 59.4462 45.1567 59.8012L45.3399 60.5383C45.3901 60.7398 45.398 60.9327 45.3641 61.1169C45.3272 61.314 45.2834 61.5098 45.2327 61.7039C45.1794 61.9111 45.1496 62.0261 45.1447 62.0492C45.2246 62.2107 45.3742 62.5282 45.5936 63.003C46.0695 64.0407 46.491 64.7676 46.859 65.1834C46.9645 65.3022 47.0268 65.3997 47.0461 65.4766C47.0651 65.5534 47.0599 65.6235 47.0304 65.6869C47.0009 65.7505 46.9502 65.7911 46.8786 65.8091C46.7318 65.8455 46.5492 65.7124 46.3308 65.4097C46.1122 65.1071 45.9114 64.7612 45.7274 64.3721C45.1671 63.1815 44.8436 62.5299 44.7575 62.4171L44.6298 62.449ZM43.9034 59.3517L43.9044 59.5091C43.976 59.796 44.0857 60.208 44.2338 60.7456C44.3814 61.2831 44.4862 61.6747 44.5475 61.9206C44.6897 61.7944 44.7664 61.539 44.778 61.1537C44.7893 60.7688 44.7706 60.4805 44.7234 60.2894C44.6757 60.0985 44.6358 59.959 44.6031 59.871C44.5649 59.7724 44.5177 59.6776 44.4619 59.5879C44.3376 59.3796 44.1519 59.3008 43.9034 59.3517ZM47.8545 61.6922L48.4299 63.9143L48.5034 64.2273L48.5672 64.5213L48.7056 64.4888L49.0063 64.4075C49.294 64.34 49.4579 64.3935 49.499 64.5683C49.5199 64.6573 49.5029 64.7417 49.4475 64.8213C49.396 64.8988 49.3165 64.9533 49.2257 64.9735L48.7637 65.0822C48.4452 65.1568 48.2395 65.1978 48.1473 65.2051C48.1062 65.2209 48.0642 65.2344 48.0216 65.2455C47.7717 65.3042 47.6284 65.2548 47.5913 65.0971C47.5758 65.0322 47.5822 64.9657 47.6095 64.8976C47.6368 64.8299 47.6708 64.7895 47.7111 64.7764L48.009 64.7066L47.9967 64.5631L47.4009 62.3458L46.9072 59.9905C46.8199 59.6131 46.7143 59.2401 46.5908 58.8729L46.3908 58.9198L46.1518 58.9867C46.0487 59.0107 45.9636 59.0099 45.8967 58.9843C45.829 58.9587 45.7825 58.8911 45.7565 58.7814C45.719 58.6204 45.8728 58.4994 46.2187 58.4183L47.4718 58.1239C47.7559 58.0571 47.9155 58.0976 47.9502 58.2447C47.9652 58.3099 47.9484 58.377 47.8997 58.4462C47.855 58.5127 47.7865 58.5597 47.7084 58.5776L47.1691 58.7042C47.2641 58.9855 47.3541 59.3076 47.4392 59.6705L47.8545 61.6922ZM49.0516 59.5094L48.8088 58.6279C48.7048 58.1287 48.8012 57.8481 49.0972 57.7864C49.2864 57.747 49.5537 57.7371 49.8993 57.7568C50.2445 57.7764 50.4316 57.8551 50.4604 57.9928C50.4904 58.1375 50.4102 58.2693 50.2193 58.388C49.8692 58.3459 49.5886 58.3343 49.3768 58.3533C49.4187 58.5024 49.4554 58.6529 49.4868 58.8045L49.7567 60.3328C49.7581 60.3396 49.7801 60.3923 49.8221 60.4913L50.196 60.3975C50.537 60.3264 50.7273 60.3874 50.7672 60.5801C50.783 60.6558 50.7662 60.7286 50.7161 60.7982C50.6659 60.8678 50.5934 60.9126 50.4988 60.9324C50.4043 60.9522 50.3001 60.9665 50.1869 60.9756L49.9185 61.0317C49.9948 61.2937 50.0607 61.5586 50.1161 61.8258L50.4686 63.7515C50.5517 64.1474 50.5993 64.3439 50.6133 64.3409L51.3874 64.1526C51.6562 64.0969 51.8083 64.155 51.844 64.327C51.8664 64.4337 51.8363 64.5209 51.7532 64.5883C51.6701 64.656 51.5702 64.7021 51.4533 64.7264L50.5597 64.9122C50.4667 64.9318 50.3757 64.9174 50.2871 64.8693C50.1978 64.8215 50.1424 64.7535 50.1203 64.6645L50.0625 64.3857L49.6227 62.6128L49.0516 59.5094ZM52.1536 63.0582L51.6545 59.6921C51.6184 59.4627 51.5423 59.1161 51.4267 58.652C51.3107 58.1879 51.2424 57.8913 51.2223 57.763C51.202 57.6344 51.2263 57.5284 51.2949 57.4443C51.3636 57.3608 51.4432 57.3116 51.5335 57.2973C52.2663 57.1817 52.9297 57.517 53.524 58.3025C53.865 58.7509 54.0787 59.2476 54.1646 59.7931L54.2287 60.3331L54.3212 60.9217C54.4344 61.6375 54.4775 62.1202 54.4509 62.3699C54.4243 62.62 54.3892 62.8303 54.3447 63.0011C54.3037 63.1637 54.2423 63.3204 54.1621 63.4677C53.9809 63.7884 53.7324 64.0625 53.416 64.2903L52.6444 64.4119C52.464 64.4405 52.3004 63.9893 52.1536 63.0582ZM52.9933 63.5401L53.0336 63.7953C53.6518 63.6977 53.9251 63.0138 53.853 61.7435C53.8366 61.4621 53.8066 61.1816 53.7632 60.9031C53.4247 58.7562 52.8342 57.6993 51.9918 57.7324C51.9845 58.022 52.0192 58.4125 52.0966 58.9042C52.1744 59.3959 52.3227 60.1602 52.5413 61.1972C52.7599 62.2345 52.9109 63.0154 52.9933 63.5401Z" fill="#241726"/>
<path d="M21.8516 47.9126C21.8516 47.9126 22.8553 42.584 24.6923 43.0211C26.5293 43.4582 27.8599 47.6321 27.1235 47.8127C26.3872 47.9935 21.8516 47.9126 21.8516 47.9126Z" fill="#E23962"/>
<path d="M25.703 45.067C25.6592 45.067 25.617 45.0508 25.5842 45.0217C25.5515 44.9926 25.5306 44.9524 25.5254 44.9089C25.4984 44.6869 25.2167 44.456 25.12 44.3925C25.082 44.3657 25.0558 44.3251 25.0472 44.2793C25.0385 44.2336 25.0479 44.1862 25.0735 44.1473C25.099 44.1084 25.1387 44.0809 25.1842 44.0707C25.2296 44.0605 25.2773 44.0684 25.317 44.0926C25.3692 44.127 25.8304 44.4408 25.8815 44.866C25.8846 44.8912 25.8823 44.9168 25.8747 44.9411C25.8671 44.9654 25.8545 44.9878 25.8376 45.0068C25.8207 45.0258 25.8 45.041 25.7768 45.0514C25.7536 45.0618 25.7285 45.0671 25.703 45.067ZM25.1434 46.3282C25.0996 46.3281 25.0574 46.312 25.0247 46.2829C24.9919 46.2538 24.971 46.2137 24.9658 46.1703C24.9388 45.9483 24.6571 45.7173 24.5604 45.6538C24.5223 45.627 24.4962 45.5864 24.4875 45.5406C24.4788 45.4949 24.4883 45.4476 24.5139 45.4086C24.5394 45.3697 24.5791 45.3422 24.6246 45.332C24.67 45.3218 24.7176 45.3297 24.7574 45.3539C24.8096 45.3883 25.2708 45.7021 25.3219 46.1273C25.325 46.1526 25.3226 46.1781 25.315 46.2024C25.3075 46.2266 25.2948 46.249 25.2779 46.268C25.2611 46.287 25.2403 46.3022 25.2172 46.3126C25.194 46.323 25.1688 46.3283 25.1434 46.3282ZM26.3618 46.533C26.318 46.5329 26.2757 46.5168 26.243 46.4877C26.2103 46.4585 26.1894 46.4184 26.1842 46.3749C26.1572 46.1529 25.8755 45.9219 25.7788 45.8585C25.7591 45.8456 25.7421 45.8289 25.7289 45.8094C25.7156 45.7899 25.7063 45.768 25.7016 45.7449C25.6968 45.7218 25.6966 45.698 25.701 45.6749C25.7054 45.6517 25.7143 45.6297 25.7273 45.61C25.7402 45.5903 25.7569 45.5733 25.7764 45.5601C25.7959 45.5468 25.8178 45.5375 25.8408 45.5327C25.8639 45.528 25.8877 45.5278 25.9109 45.5322C25.934 45.5366 25.9561 45.5455 25.9758 45.5585C26.028 45.5929 26.4892 45.9065 26.5403 46.332C26.5434 46.3572 26.5411 46.3828 26.5335 46.4071C26.5259 46.4314 26.5133 46.4537 26.4964 46.4728C26.4795 46.4918 26.4588 46.507 26.4356 46.5174C26.4124 46.5278 26.3872 46.5331 26.3618 46.533ZM24.5511 44.8846C24.5074 44.8846 24.4651 44.8685 24.4324 44.8394C24.3997 44.8103 24.3787 44.7703 24.3735 44.7268C24.3465 44.5048 24.0648 44.2737 23.9681 44.2103C23.93 44.1834 23.9039 44.1428 23.8952 44.0971C23.8866 44.0513 23.896 44.004 23.9216 43.965C23.9471 43.9261 23.9868 43.8987 24.0323 43.8885C24.0777 43.8783 24.1253 43.8861 24.1651 43.9104C24.2173 43.9448 24.6782 44.2585 24.7296 44.6838C24.7326 44.709 24.7303 44.7345 24.7227 44.7588C24.7151 44.783 24.7024 44.8053 24.6855 44.8243C24.6687 44.8433 24.648 44.8585 24.6248 44.8689C24.6016 44.8793 24.5765 44.8847 24.5511 44.8846Z" fill="#241726"/>
<path d="M31.2554 47.9533C31.2554 47.9533 32.2591 42.6247 34.0961 43.0617C35.9331 43.4988 37.2637 47.6727 36.5273 47.8534C35.7911 48.034 31.2554 47.9533 31.2554 47.9533Z" fill="#E23962"/>
<path d="M35.1067 45.1077C35.0629 45.1076 35.0206 45.0915 34.9879 45.0624C34.9552 45.0333 34.9342 44.9932 34.929 44.9497C34.9024 44.7285 34.627 44.5017 34.5232 44.433C34.4834 44.4069 34.4557 44.366 34.4461 44.3194C34.4365 44.2728 34.4458 44.2243 34.472 44.1845C34.4981 44.1448 34.539 44.117 34.5856 44.1074C34.6322 44.0978 34.6807 44.1071 34.7205 44.1333C34.7726 44.1677 35.2338 44.4815 35.285 44.9071C35.288 44.9323 35.2856 44.9578 35.278 44.982C35.2705 45.0063 35.2578 45.0286 35.241 45.0475C35.2241 45.0665 35.2034 45.0817 35.1803 45.092C35.1571 45.1024 35.132 45.1078 35.1067 45.1077ZM34.547 46.369C34.5033 46.369 34.461 46.3529 34.4283 46.3238C34.3956 46.2947 34.3746 46.2547 34.3694 46.2112C34.3424 45.9898 34.0673 45.7632 33.9636 45.6945C33.9238 45.6684 33.8961 45.6275 33.8865 45.5809C33.8769 45.5343 33.8862 45.4857 33.9123 45.446C33.9385 45.4062 33.9794 45.3785 34.026 45.3689C34.0726 45.3593 34.1211 45.3686 34.1608 45.3948C34.213 45.4292 34.6739 45.7428 34.7254 46.1681C34.7284 46.1934 34.726 46.2189 34.7184 46.2431C34.7108 46.2673 34.6982 46.2897 34.6813 46.3087C34.6645 46.3276 34.6438 46.3428 34.6207 46.3532C34.5975 46.3637 34.5724 46.369 34.547 46.369ZM35.7656 46.5736C35.7218 46.5735 35.6796 46.5574 35.6468 46.5283C35.6141 46.4992 35.5932 46.4592 35.5879 46.4157C35.5609 46.1937 35.2792 45.9626 35.1825 45.8992C35.1445 45.8723 35.1184 45.8317 35.1097 45.786C35.101 45.7402 35.1104 45.6929 35.136 45.654C35.1616 45.615 35.2013 45.5876 35.2467 45.5774C35.2922 45.5672 35.3398 45.575 35.3795 45.5993C35.4317 45.6337 35.8926 45.9474 35.9441 46.3727C35.9471 46.3979 35.9447 46.4234 35.9371 46.4477C35.9295 46.4719 35.9169 46.4942 35.9 46.5132C35.8831 46.5322 35.8624 46.5474 35.8392 46.5578C35.8161 46.5682 35.791 46.5736 35.7656 46.5736ZM33.9545 44.9253C33.9106 44.9252 33.8684 44.9091 33.8356 44.88C33.8029 44.8508 33.782 44.8107 33.7768 44.7672C33.7498 44.5452 33.4681 44.3142 33.3714 44.2508C33.3334 44.2239 33.3072 44.1834 33.2986 44.1376C33.2899 44.0918 33.2993 44.0445 33.3249 44.0056C33.3505 43.9667 33.3902 43.9392 33.4356 43.929C33.481 43.9188 33.5287 43.9266 33.5684 43.9509C33.6206 43.9853 34.0818 44.2991 34.133 44.7243C34.136 44.7495 34.1337 44.7751 34.1261 44.7994C34.1186 44.8237 34.1059 44.846 34.089 44.865C34.0722 44.8841 34.0514 44.8993 34.0282 44.9097C34.005 44.92 33.9799 44.9254 33.9545 44.9253Z" fill="#241726"/>
<path d="M41.3076 47.9966C41.3076 47.9966 42.3114 42.668 44.1484 43.1051C45.9854 43.5421 47.3159 47.7161 46.5795 47.8967C45.8433 48.0774 41.3076 47.9966 41.3076 47.9966Z" fill="#E23962"/>
<path d="M45.1594 45.151C45.1156 45.1509 45.0734 45.1348 45.0407 45.1057C45.0079 45.0766 44.987 45.0365 44.9818 44.993C44.9548 44.771 44.6731 44.5401 44.5764 44.4766C44.5383 44.4498 44.5122 44.4092 44.5035 44.3634C44.4949 44.3177 44.5043 44.2703 44.5299 44.2314C44.5554 44.1925 44.5951 44.165 44.6406 44.1548C44.686 44.1446 44.7336 44.1525 44.7734 44.1767C44.8256 44.2111 45.2868 44.5249 45.3379 44.9501C45.341 44.9753 45.3386 45.0009 45.3311 45.0252C45.3235 45.0494 45.3108 45.0718 45.294 45.0908C45.2771 45.1098 45.2564 45.125 45.2332 45.1354C45.21 45.1457 45.1849 45.1511 45.1594 45.151ZM44.5998 46.4122C44.556 46.4121 44.5137 46.396 44.481 46.3668C44.4483 46.3377 44.4273 46.2976 44.4222 46.2541C44.3952 46.0321 44.1135 45.8011 44.0168 45.7377C43.9787 45.7108 43.9526 45.6702 43.9439 45.6245C43.9352 45.5787 43.9447 45.5314 43.9702 45.4925C43.9958 45.4535 44.0355 45.4261 44.081 45.4159C44.1264 45.4057 44.174 45.4135 44.2138 45.4378C44.266 45.4722 44.7271 45.7859 44.7783 46.2112C44.7814 46.2364 44.7791 46.262 44.7715 46.2863C44.7639 46.3105 44.7513 46.3329 44.7344 46.3519C44.7175 46.3709 44.6968 46.3861 44.6736 46.3965C44.6504 46.4069 44.6252 46.4123 44.5998 46.4122ZM45.8182 46.617C45.7744 46.6169 45.7321 46.6008 45.6994 46.5717C45.6667 46.5425 45.6457 46.5024 45.6406 46.4589C45.6136 46.2369 45.3319 46.0059 45.2352 45.9425C45.1971 45.9156 45.171 45.875 45.1623 45.8293C45.1536 45.7835 45.1631 45.7362 45.1886 45.6973C45.2142 45.6583 45.2539 45.6309 45.2993 45.6207C45.3448 45.6105 45.3924 45.6183 45.4322 45.6426C45.4843 45.677 45.9455 45.9906 45.9967 46.4161C45.9998 46.4413 45.9974 46.4669 45.9898 46.4912C45.9823 46.5154 45.9696 46.5378 45.9527 46.5568C45.9359 46.5758 45.9151 46.591 45.8919 46.6013C45.8688 46.6117 45.8436 46.6171 45.8182 46.617ZM44.0075 44.9688C43.9638 44.9687 43.9215 44.9526 43.8888 44.9235C43.8561 44.8944 43.8351 44.8544 43.8299 44.8109C43.8029 44.5895 43.5278 44.3627 43.4241 44.2941C43.3845 44.2678 43.3569 44.2269 43.3474 44.1804C43.3379 44.1338 43.3471 44.0854 43.3732 44.0456C43.3861 44.026 43.4028 44.009 43.4222 43.9958C43.4417 43.9826 43.4636 43.9733 43.4866 43.9686C43.5097 43.9638 43.5334 43.9636 43.5565 43.968C43.5797 43.9725 43.6017 43.9814 43.6213 43.9943C43.6735 44.0287 44.1344 44.3425 44.1859 44.7679C44.1889 44.7931 44.1865 44.8186 44.1789 44.8428C44.1713 44.8671 44.1587 44.8894 44.1418 44.9084C44.125 44.9274 44.1043 44.9426 44.0812 44.953C44.058 44.9634 44.0329 44.9688 44.0075 44.9688Z" fill="#241726"/>
<path d="M51.6055 48.0409C51.6055 48.0409 52.6092 42.7123 54.4462 43.1494C56.2832 43.5865 57.6138 47.7604 56.8774 47.941C56.1412 48.1218 51.6055 48.0409 51.6055 48.0409Z" fill="#E23962"/>
<path d="M55.457 45.1955C55.4131 45.1954 55.3709 45.1792 55.3381 45.1501C55.3054 45.121 55.2845 45.0809 55.2793 45.0373C55.2523 44.8153 54.9706 44.5844 54.8739 44.5209C54.8342 44.4948 54.8064 44.454 54.7968 44.4074C54.7871 44.3609 54.7964 44.3124 54.8225 44.2726C54.8353 44.2528 54.8519 44.2358 54.8714 44.2225C54.8909 44.2091 54.9128 44.1998 54.9359 44.195C54.959 44.1902 54.9828 44.19 55.006 44.1944C55.0292 44.1989 55.0512 44.2079 55.0709 44.2209C55.1231 44.2553 55.5843 44.5689 55.6355 44.9944C55.6385 45.0197 55.6362 45.0453 55.6286 45.0695C55.6211 45.0938 55.6084 45.1162 55.5915 45.1352C55.5747 45.1542 55.5539 45.1694 55.5307 45.1798C55.5075 45.1902 55.4824 45.1955 55.457 45.1955ZM54.8973 46.4566C54.8535 46.4566 54.8112 46.4404 54.7785 46.4113C54.7458 46.3822 54.7249 46.342 54.7197 46.2985C54.6927 46.0765 54.411 45.8456 54.3143 45.7821C54.2745 45.756 54.2467 45.7151 54.2371 45.6685C54.2274 45.6219 54.2366 45.5734 54.2628 45.5336C54.2889 45.4938 54.3297 45.466 54.3764 45.4564C54.423 45.4467 54.4715 45.456 54.5113 45.4821C54.5635 45.5165 55.0247 45.8301 55.0758 46.2556C55.0789 46.2808 55.0766 46.3064 55.069 46.3307C55.0614 46.355 55.0488 46.3774 55.0319 46.3964C55.015 46.4154 54.9943 46.4306 54.9711 46.441C54.9479 46.4514 54.9228 46.4567 54.8973 46.4566ZM56.1159 46.6614C56.0721 46.6614 56.0299 46.6453 55.9971 46.6162C55.9644 46.5871 55.9435 46.5471 55.9382 46.5036C55.9112 46.2822 55.6362 46.0554 55.5324 45.9868C55.4928 45.9605 55.4653 45.9196 55.4558 45.873C55.4462 45.8265 55.4555 45.7781 55.4815 45.7383C55.5076 45.6986 55.5484 45.6709 55.595 45.6613C55.6415 45.6517 55.69 45.6609 55.7297 45.687C55.7819 45.7214 56.2428 46.0352 56.2942 46.4605C56.2972 46.4858 56.2949 46.5113 56.2873 46.5355C56.2797 46.5597 56.267 46.5821 56.2502 46.6011C56.2333 46.62 56.2126 46.6352 56.1895 46.6457C56.1663 46.6561 56.1413 46.6614 56.1159 46.6614ZM54.3048 45.0131C54.261 45.013 54.2187 44.9969 54.186 44.9678C54.1533 44.9387 54.1323 44.8986 54.1271 44.8551C54.1001 44.6331 53.8187 44.4021 53.722 44.3387C53.684 44.3118 53.6578 44.2712 53.6491 44.2255C53.6405 44.1797 53.6499 44.1324 53.6755 44.0935C53.701 44.0545 53.7407 44.0271 53.7862 44.0169C53.8316 44.0067 53.8792 44.0145 53.919 44.0388C53.9712 44.0732 54.4321 44.387 54.4833 44.8122C54.4863 44.8374 54.484 44.863 54.4764 44.8872C54.4688 44.9115 54.4561 44.9338 54.4393 44.9528C54.4224 44.9718 54.4017 44.987 54.3785 44.9974C54.3553 45.0078 54.3302 45.0131 54.3048 45.0131Z" fill="#241726"/>
<path d="M45.7744 35.634C45.7744 35.634 46.7782 30.3055 48.6152 30.7425C50.4522 31.1796 51.7827 35.3535 51.0463 35.5342C50.3101 35.7148 45.7744 35.634 45.7744 35.634Z" fill="#E23962"/>
<path d="M49.626 32.7883C49.5822 32.7882 49.5399 32.7721 49.5072 32.7429C49.4744 32.7138 49.4535 32.6737 49.4484 32.6302C49.4213 32.4082 49.1396 32.1772 49.0429 32.1138C49.0049 32.0869 48.9788 32.0463 48.9701 32.0006C48.9614 31.9548 48.9708 31.9075 48.9964 31.8686C49.022 31.8296 49.0617 31.8022 49.1071 31.792C49.1526 31.7818 49.2002 31.7896 49.2399 31.8139C49.2921 31.8483 49.7533 32.162 49.8045 32.5873C49.8075 32.6125 49.8052 32.6381 49.7977 32.6624C49.7901 32.6866 49.7774 32.709 49.7606 32.728C49.7437 32.747 49.723 32.7622 49.6998 32.7726C49.6766 32.783 49.6514 32.7884 49.626 32.7883ZM49.0664 34.0498C49.0225 34.0497 48.9803 34.0336 48.9475 34.0044C48.9148 33.9753 48.8939 33.9352 48.8887 33.8917C48.8621 33.6704 48.5867 33.4436 48.4829 33.375C48.4431 33.3488 48.4154 33.3079 48.4058 33.2613C48.3962 33.2147 48.4055 33.1662 48.4316 33.1264C48.4578 33.0867 48.4987 33.059 48.5453 33.0493C48.5919 33.0397 48.6404 33.049 48.6802 33.0752C48.7323 33.1096 49.1935 33.4234 49.2447 33.849C49.2477 33.8742 49.2454 33.8998 49.2378 33.924C49.2302 33.9482 49.2176 33.9706 49.2007 33.9895C49.1839 34.0085 49.1632 34.0237 49.14 34.0341C49.1168 34.0445 49.0917 34.0498 49.0664 34.0498ZM50.2848 34.2544C50.241 34.2543 50.1987 34.2382 50.166 34.2091C50.1333 34.18 50.1123 34.1399 50.1071 34.0965C50.0801 33.8745 49.7984 33.6435 49.7017 33.58C49.6637 33.5532 49.6375 33.5126 49.6289 33.4668C49.6202 33.4211 49.6296 33.3738 49.6552 33.3348C49.6807 33.2959 49.7204 33.2684 49.7659 33.2582C49.8113 33.248 49.859 33.2559 49.8987 33.2801C49.9509 33.3145 50.4121 33.6283 50.4633 34.0535C50.4663 34.0788 50.464 34.1043 50.4564 34.1286C50.4488 34.1528 50.4361 34.1752 50.4193 34.1942C50.4024 34.2132 50.3817 34.2284 50.3585 34.2388C50.3353 34.2492 50.3102 34.2545 50.2848 34.2544ZM48.4741 32.6062C48.4302 32.6061 48.388 32.59 48.3553 32.5608C48.3225 32.5317 48.3016 32.4916 48.2964 32.4481C48.2694 32.2261 47.9877 31.9951 47.891 31.9317C47.8512 31.9055 47.8235 31.8647 47.8138 31.8181C47.8041 31.7715 47.8134 31.7229 47.8395 31.6831C47.8656 31.6434 47.9065 31.6156 47.9531 31.6059C47.9997 31.5962 48.0482 31.6055 48.088 31.6316C48.1402 31.666 48.6014 31.9797 48.6526 32.4052C48.6556 32.4304 48.6533 32.456 48.6457 32.4803C48.6382 32.5045 48.6255 32.5269 48.6086 32.5459C48.5918 32.5649 48.571 32.5801 48.5478 32.5905C48.5246 32.6009 48.4995 32.6063 48.4741 32.6062Z" fill="#241726"/>
<path d="M36.5796 35.7169C36.5796 35.7169 37.5834 30.3884 39.4204 30.8254C41.2573 31.2625 42.5879 35.4364 41.8515 35.6171C41.1151 35.7977 36.5796 35.7169 36.5796 35.7169Z" fill="#E23962"/>
<path d="M40.4309 32.8715C40.3871 32.8714 40.3448 32.8553 40.3121 32.8262C40.2794 32.797 40.2585 32.7569 40.2533 32.7134C40.2267 32.4921 39.9515 32.2655 39.8479 32.1968C39.8083 32.1705 39.7808 32.1296 39.7712 32.0831C39.7617 32.0366 39.771 31.9881 39.797 31.9484C39.8099 31.9287 39.8266 31.9118 39.8461 31.8986C39.8655 31.8853 39.8874 31.8761 39.9105 31.8713C39.9335 31.8665 39.9573 31.8664 39.9804 31.8708C40.0035 31.8752 40.0255 31.8841 40.0452 31.8971C40.0974 31.9315 40.5583 32.2451 40.6094 32.6706C40.6125 32.6958 40.6101 32.7214 40.6026 32.7457C40.595 32.7699 40.5823 32.7923 40.5654 32.8113C40.5486 32.8303 40.5279 32.8455 40.5047 32.8559C40.4815 32.8662 40.4563 32.8716 40.4309 32.8715ZM39.8713 34.1327C39.8275 34.1326 39.7852 34.1165 39.7525 34.0873C39.7198 34.0582 39.6988 34.0181 39.6937 33.9746C39.6667 33.7526 39.385 33.5216 39.2883 33.4582C39.2485 33.432 39.2207 33.3912 39.211 33.3446C39.2014 33.298 39.2106 33.2494 39.2367 33.2096C39.2629 33.1699 39.3037 33.1421 39.3503 33.1324C39.3969 33.1227 39.4455 33.132 39.4853 33.1581C39.5374 33.1925 39.9986 33.5062 40.0498 33.9317C40.0529 33.9569 40.0505 33.9825 40.043 34.0068C40.0354 34.031 40.0228 34.0534 40.0059 34.0724C39.989 34.0914 39.9683 34.1066 39.9451 34.117C39.9219 34.1274 39.8967 34.1328 39.8713 34.1327ZM41.0898 34.3375C41.046 34.3374 41.0038 34.3213 40.971 34.2921C40.9383 34.263 40.9174 34.2229 40.9122 34.1794C40.8856 33.9581 40.6102 33.7313 40.5064 33.6627C40.4668 33.6364 40.4393 33.5955 40.4297 33.5489C40.4202 33.5024 40.4295 33.454 40.4555 33.4142C40.4816 33.3745 40.5224 33.3468 40.569 33.3372C40.6155 33.3276 40.6639 33.3368 40.7037 33.3629C40.7558 33.3973 41.217 33.7111 41.2682 34.1367C41.2712 34.1619 41.2689 34.1875 41.2613 34.2117C41.2537 34.2359 41.2411 34.2583 41.2242 34.2773C41.2074 34.2962 41.1867 34.3114 41.1635 34.3218C41.1403 34.3322 41.1152 34.3375 41.0898 34.3375ZM39.2792 32.6891C39.2353 32.689 39.1931 32.6729 39.1603 32.6438C39.1276 32.6146 39.1067 32.5745 39.1015 32.531C39.0745 32.309 38.7928 32.078 38.6961 32.0146C38.6581 31.9877 38.6319 31.9471 38.6233 31.9014C38.6146 31.8556 38.624 31.8083 38.6496 31.7694C38.6752 31.7304 38.7149 31.703 38.7603 31.6928C38.8057 31.6826 38.8534 31.6904 38.8931 31.7147C38.9453 31.7491 39.4065 32.0629 39.4577 32.4881C39.4607 32.5133 39.4584 32.5389 39.4508 32.5632C39.4433 32.5874 39.4306 32.6098 39.4137 32.6288C39.3969 32.6478 39.3761 32.6631 39.3529 32.6734C39.3297 32.6838 39.3046 32.6892 39.2792 32.6891Z" fill="#241726"/>
<path d="M26.5254 36.0413C26.5254 36.0413 27.5292 30.7127 29.3662 31.1498C31.2031 31.5868 32.5337 35.7607 31.7973 35.9414C31.0611 36.1222 26.5254 36.0413 26.5254 36.0413Z" fill="#E23962"/>
<path d="M30.3768 33.1958C30.333 33.1958 30.2908 33.1797 30.2581 33.1505C30.2253 33.1214 30.2044 33.0814 30.1992 33.0379C30.1722 32.8159 29.8905 32.5849 29.7938 32.5215C29.7558 32.4946 29.7296 32.454 29.7209 32.4083C29.7123 32.3625 29.7217 32.3152 29.7473 32.2762C29.7728 32.2373 29.8125 32.2099 29.858 32.1997C29.9034 32.1894 29.951 32.1973 29.9908 32.2216C30.043 32.256 30.5042 32.5697 30.5553 32.9949C30.5584 33.0202 30.556 33.0458 30.5485 33.07C30.5409 33.0943 30.5282 33.1166 30.5114 33.1356C30.4945 33.1546 30.4738 33.1698 30.4506 33.1802C30.4274 33.1906 30.4022 33.1959 30.3768 33.1958ZM29.8172 34.457C29.7734 34.4569 29.7312 34.4409 29.6985 34.4118C29.6658 34.3827 29.6448 34.3427 29.6396 34.2992C29.6126 34.0772 29.3309 33.8461 29.2342 33.7826C29.1961 33.7558 29.17 33.7152 29.1613 33.6694C29.1526 33.6237 29.1621 33.5764 29.1876 33.5374C29.2132 33.4985 29.2529 33.471 29.2983 33.4608C29.3438 33.4506 29.3914 33.4585 29.4312 33.4827C29.4833 33.5171 29.9443 33.8309 29.9957 34.2561C29.9987 34.2813 29.9963 34.3069 29.9887 34.3311C29.9811 34.3554 29.9685 34.3777 29.9516 34.3967C29.9348 34.4157 29.9141 34.4309 29.8909 34.4413C29.8677 34.4517 29.8426 34.457 29.8172 34.457ZM31.0353 34.6618C30.9915 34.6617 30.9492 34.6456 30.9165 34.6165C30.8838 34.5873 30.8629 34.5472 30.8577 34.5037C30.8307 34.2817 30.5493 34.0507 30.4526 33.9873C30.4145 33.9604 30.3884 33.9199 30.3797 33.8741C30.371 33.8283 30.3805 33.781 30.406 33.7421C30.4316 33.7032 30.4713 33.6757 30.5167 33.6655C30.5622 33.6553 30.6098 33.6631 30.6496 33.6874C30.7017 33.7218 31.1627 34.0356 31.2138 34.4608C31.2169 34.486 31.2146 34.5116 31.207 34.5359C31.1994 34.5602 31.1868 34.5825 31.1699 34.6015C31.153 34.6206 31.1323 34.6358 31.1091 34.6462C31.0859 34.6565 31.0607 34.6619 31.0353 34.6618ZM29.2246 33.0136C29.1808 33.0135 29.1385 32.9974 29.1058 32.9682C29.0731 32.9391 29.0522 32.899 29.047 32.8555C29.0204 32.6342 28.7449 32.4074 28.6412 32.3388C28.6016 32.3125 28.5741 32.2716 28.5645 32.225C28.555 32.1785 28.5643 32.1301 28.5903 32.0903C28.6032 32.0707 28.6199 32.0537 28.6393 32.0405C28.6588 32.0273 28.6807 32.018 28.7037 32.0132C28.7268 32.0085 28.7505 32.0083 28.7737 32.0127C28.7968 32.0171 28.8188 32.0261 28.8384 32.039C28.8906 32.0734 29.3518 32.3872 29.403 32.8128C29.406 32.838 29.4037 32.8636 29.3961 32.8878C29.3885 32.912 29.3759 32.9344 29.359 32.9534C29.3421 32.9723 29.3214 32.9875 29.2983 32.9979C29.2751 33.0083 29.25 33.0136 29.2246 33.0136ZM36.5596 80.7235C17.0167 80.7235 11.4304 76.3335 11.1957 76.1413C11.1588 76.1111 11.1355 76.0676 11.1308 76.0202C11.126 75.9728 11.1403 75.9255 11.1705 75.8886C11.2007 75.8518 11.2442 75.8285 11.2916 75.8237C11.339 75.819 11.3863 75.8333 11.4232 75.8635C11.4379 75.8753 12.9321 77.0674 16.9775 78.2108C20.7128 79.2665 27.4459 80.495 38.3198 80.3531C57.9553 80.0964 64.3602 77.8995 67.4383 76.8437C67.6492 76.7707 67.8607 76.6991 68.0726 76.6289C68.1178 76.6141 68.1671 76.6178 68.2096 76.6392C68.2521 76.6607 68.2844 76.6982 68.2992 76.7434C68.3141 76.7886 68.3104 76.8379 68.2889 76.8804C68.2675 76.9229 68.23 76.9552 68.1848 76.97C67.9914 77.0335 67.7828 77.1052 67.5548 77.1832C64.459 78.2451 58.0174 80.4547 38.3249 80.7121C37.7241 80.7199 37.1353 80.7235 36.5596 80.7235ZM17.3664 61.7585C17.3615 61.7585 17.357 61.7584 17.3521 61.758C14.0318 61.4977 12.8375 56.6641 12.7881 56.4584C12.7826 56.4355 12.7817 56.4117 12.7854 56.3885C12.7891 56.3652 12.7974 56.3429 12.8097 56.3228C12.8221 56.3027 12.8382 56.2853 12.8573 56.2714C12.8764 56.2576 12.898 56.2477 12.9209 56.2422C12.9438 56.2366 12.9677 56.2355 12.991 56.2392C13.0143 56.2428 13.0367 56.251 13.0568 56.2634C13.0769 56.2757 13.0944 56.2919 13.1082 56.3111C13.122 56.3302 13.1318 56.3519 13.1372 56.3749C13.1487 56.4227 14.3199 61.1602 17.3802 61.4003C17.426 61.4043 17.4685 61.4259 17.499 61.4604C17.5294 61.495 17.5454 61.5399 17.5436 61.5859C17.5418 61.6319 17.5225 61.6755 17.4895 61.7076C17.4565 61.7397 17.4125 61.758 17.3664 61.7585ZM14.1308 63.0603C14.114 63.0603 14.0964 63.0579 14.0794 63.0528C13.9903 63.0262 11.906 62.3487 12.6598 57.8221C12.6636 57.7989 12.672 57.7766 12.6845 57.7566C12.697 57.7366 12.7132 57.7193 12.7324 57.7056C12.7516 57.6919 12.7732 57.6821 12.7962 57.6767C12.8191 57.6714 12.8429 57.6707 12.8662 57.6745C12.8894 57.6784 12.9116 57.6868 12.9316 57.6993C12.9516 57.7117 12.969 57.728 12.9827 57.7472C12.9964 57.7663 13.0062 57.788 13.0115 57.811C13.0168 57.8339 13.0176 57.8577 13.0137 57.8809C12.3112 62.0985 14.1635 62.7033 14.1824 62.709C14.224 62.721 14.2598 62.7477 14.2833 62.7842C14.3067 62.8206 14.3162 62.8643 14.3099 62.9072C14.3036 62.95 14.282 62.9892 14.249 63.0173C14.2161 63.0455 14.1741 63.0608 14.1308 63.0603ZM63.0285 68.8933C62.988 68.8932 62.9487 68.8795 62.917 68.8544C62.8852 68.8292 62.8629 68.7941 62.8536 68.7547C62.3013 66.3895 57.4468 65.7638 57.3977 65.7576C57.3743 65.7547 57.3517 65.7472 57.3313 65.7356C57.3108 65.724 57.2928 65.7085 57.2783 65.6899C57.2638 65.6714 57.2531 65.6502 57.2468 65.6275C57.2406 65.6048 57.2388 65.5811 57.2417 65.5577C57.2536 65.459 57.3409 65.3869 57.4418 65.4016C57.6516 65.4275 62.5942 66.0666 63.2032 68.6731C63.2094 68.6994 63.2095 68.7268 63.2036 68.7532C63.1977 68.7795 63.1859 68.8043 63.1691 68.8254C63.1523 68.8466 63.1309 68.8637 63.1066 68.8755C63.0822 68.8872 63.0555 68.8933 63.0285 68.8933Z" fill="#241726"/>
<path d="M63.5096 68.1777C63.4195 68.1777 63.3418 68.1098 63.3315 68.0178C62.8931 64.0298 59.1343 63.8539 59.0966 63.8525C59.0491 63.8508 59.0041 63.8303 58.9717 63.7955C58.9392 63.7608 58.9219 63.7146 58.9234 63.667C58.9239 63.6433 58.9291 63.62 58.9388 63.5984C58.9485 63.5768 58.9624 63.5573 58.9797 63.5412C58.997 63.525 59.0174 63.5125 59.0396 63.5044C59.0619 63.4963 59.0855 63.4927 59.1092 63.4939C59.1502 63.4953 63.2162 63.6854 63.6882 67.9785C63.691 68.0036 63.6884 68.029 63.6807 68.0531C63.673 68.0771 63.6603 68.0993 63.6434 68.118C63.6265 68.1368 63.6059 68.1519 63.5828 68.1622C63.5598 68.1724 63.5348 68.1777 63.5096 68.1777Z" fill="#241726"/>
</g>
<defs>
<clipPath id="clip0_1160_1351">
<rect width="74" height="74" fill="white" transform="translate(2 8.03583)"/>
</clipPath>
</defs>
</svg>
